<svg version="1.1" xmlns="http://www.w3.org/2000/svg" viewBox="0 0 1473.9727546932932 719.8270915042406" width="4421.918264079879" height="2159.481274512722">
  <!-- svg-source:excalidraw -->
  
  <defs>
    <style class="style-fonts">
      @font-face {
        font-family: "Virgil";
        src: url("https://excalidraw.com/Virgil.woff2");
      }
      @font-face {
        font-family: "Cascadia";
        src: url("https://excalidraw.com/Cascadia.woff2");
      }
      @font-face {
        font-family: "Assistant";
        src: url("https://excalidraw.com/Assistant-Regular.woff2");
      }
    </style>
    
  </defs>
  <g stroke-linecap="round" transform="translate(163.6719796350667 338.28917869949385) rotate(0 74.5 33.99999999999994)"><path d="M17 0 C54.68 1.16, 90.04 -0.67, 132 0 M17 0 C58.24 -1.2, 98.3 -0.2, 132 0 M132 0 C144.68 -1.19, 148.11 5.12, 149 17 M132 0 C144.67 -2.06, 150.43 6.55, 149 17 M149 17 C150.21 30.25, 149.07 42.67, 149 51 M149 17 C150.24 27.48, 149.07 39.51, 149 51 M149 51 C150.64 62.18, 142.5 66.11, 132 68 M149 51 C147.91 62.59, 143.82 68.57, 132 68 M132 68 C104.09 66.96, 81.43 67.98, 17 68 M132 68 C101.85 67.85, 73.34 66.72, 17 68 M17 68 C6.3 69.05, 0.44 60.69, 0 51 M17 68 C5.46 68.13, -0.85 63.77, 0 51 M0 51 C-0.92 42.66, -1.22 32.66, 0 17 M0 51 C0.5 40.65, 0.65 30.55, 0 17 M0 17 C2 5.75, 6.66 1.46, 17 0 M0 17 C-0.13 4.25, 6.3 -0.5, 17 0" stroke="#868e96" stroke-width="2" fill="none"></path></g><g transform="translate(184.0215890100667 360.28917869949373) rotate(0 54.150390625 12)"><text x="54.150390625" y="0" font-family="Cascadia, Segoe UI Emoji" font-size="20px" fill="#868e96" text-anchor="middle" style="white-space: pre;" direction="ltr" dominant-baseline="text-before-edge">API Gateway</text></g><g transform="translate(10 356.38905653833353) rotate(0 35.15625 12)"><text x="0" y="0" font-family="Cascadia, Segoe UI Emoji" font-size="20px" fill="#868e96" text-anchor="start" style="white-space: pre;" direction="ltr" dominant-baseline="text-before-edge">Client</text></g><g stroke-linecap="round"><g transform="translate(89.68835089512231 371.8963967254931) rotate(0 30.692444728331793 0.7349223423840385)"><path d="M0 0 C10.23 0.24, 51.15 1.22, 61.38 1.47 M0 0 C10.23 0.24, 51.15 1.22, 61.38 1.47" stroke="#868e96" stroke-width="1" fill="none"></path></g><g transform="translate(89.68835089512231 371.8963967254931) rotate(0 30.692444728331793 0.7349223423840385)"><path d="M32.96 11.05 C41.89 8.04, 50.83 5.03, 61.38 1.47 M32.96 11.05 C40.71 8.44, 48.47 5.82, 61.38 1.47" stroke="#868e96" stroke-width="1" fill="none"></path></g><g transform="translate(89.68835089512231 371.8963967254931) rotate(0 30.692444728331793 0.7349223423840385)"><path d="M33.45 -9.46 C42.23 -6.03, 51.01 -2.59, 61.38 1.47 M33.45 -9.46 C41.07 -6.48, 48.69 -3.5, 61.38 1.47" stroke="#868e96" stroke-width="1" fill="none"></path></g></g><mask></mask><g stroke-linecap="round" transform="translate(425.93070618859974 335.6576029665482) rotate(0 89.81252361174165 34)"><path d="M17 0 C45.62 2.39, 80.83 3.86, 162.63 0 C175.66 2.2, 179.28 3.18, 179.63 17 C182.69 28.19, 176.93 37.37, 179.63 51 C179.21 64.49, 177.54 67.88, 162.63 68 C114.13 67.24, 61.3 66.36, 17 68 C4.38 68.57, -3.14 65.39, 0 51 C3.82 42.95, -1.51 28.65, 0 17 C-0.7 9.02, 7.65 1.72, 17 0" stroke="none" stroke-width="0" fill="#ffc9c9"></path><path d="M17 0 C46.64 -1.87, 78.1 0.19, 162.63 0 M17 0 C48.27 -1.21, 77.87 0.16, 162.63 0 M162.63 0 C174.94 0.3, 180.75 6.15, 179.63 17 M162.63 0 C176.16 1.2, 181.72 4.45, 179.63 17 M179.63 17 C179.63 25.49, 177.9 34.7, 179.63 51 M179.63 17 C178.96 27.13, 180.07 37.23, 179.63 51 M179.63 51 C178.16 63.87, 173.52 67.1, 162.63 68 M179.63 51 C179.11 60.65, 172.08 69.6, 162.63 68 M162.63 68 C119.8 68.9, 73.23 68.28, 17 68 M162.63 68 C117.82 68.21, 74.11 68.33, 17 68 M17 68 C6.5 66.55, 0 62.49, 0 51 M17 68 C5.2 67.98, 0.99 62.59, 0 51 M0 51 C-0.08 39.82, 1.3 26.54, 0 17 M0 51 C0.4 43.55, -0.43 34.44, 0 17 M0 17 C1.79 4.38, 4.43 -1.35, 17 0 M0 17 C0.85 5.71, 3.76 1.95, 17 0" stroke="#1e1e1e" stroke-width="2" fill="none"></path></g><g transform="translate(459.4932298003414 360.0576029665483) rotate(0 56.25 9.600000000000023)"><text x="56.25" y="0" font-family="Cascadia, Segoe UI Emoji" font-size="16px" fill="#1e1e1e" text-anchor="middle" style="white-space: pre;" direction="ltr" dominant-baseline="text-before-edge">User Service</text></g><g stroke-linecap="round"><g transform="translate(320.4488174262797 364.6754453391627) rotate(0 26.973373772251307 0.47752669918793345)"><path d="M0.7 -1.07 C0.91 -0.9, -8.27 0.51, 0.73 0.71 C9.73 0.92, 45.92 -0.01, 54.7 0.17 M-0.39 0.98 C-0.23 0.81, -8.95 -1.18, 0.17 -1.17 C9.29 -1.15, 45.45 0.93, 54.32 1.08" stroke="#868e96" stroke-width="1" fill="none"></path></g><g transform="translate(320.4488174262797 364.6754453391627) rotate(0 26.973373772251307 0.47752669918793345)"><path d="M28.61 9.31 C33.41 8.3, 42.54 6.17, 54.32 1.08 M28.61 9.31 C35.17 7.34, 41.28 5.5, 54.32 1.08" stroke="#868e96" stroke-width="1" fill="none"></path></g><g transform="translate(320.4488174262797 364.6754453391627) rotate(0 26.973373772251307 0.47752669918793345)"><path d="M29.33 -9.14 C33.9 -5.43, 42.85 -2.84, 54.32 1.08 M29.33 -9.14 C35.64 -6.77, 41.58 -4.28, 54.32 1.08" stroke="#868e96" stroke-width="1" fill="none"></path></g></g><mask></mask><g transform="translate(440.8431665912317 311.66036475427813) rotate(0 18.75 9.600000000000023)"><text x="0" y="0" font-family="Cascadia, Segoe UI Emoji" font-size="16px" fill="#868e96" text-anchor="start" style="white-space: pre;" direction="ltr" dominant-baseline="text-before-edge">gRPC</text></g><g stroke-linecap="round" transform="translate(433.82700664734875 593.6634563492701) rotate(0 86.16668465656517 34)"><path d="M17 0 C47.32 0.76, 83.19 -5, 155.33 0 C169.31 -0.42, 174.49 9.25, 172.33 17 C174.74 29.83, 170.37 38.34, 172.33 51 C169.17 61.05, 167.24 64.86, 155.33 68 C105.36 70.68, 51.4 65.34, 17 68 C4.54 67.3, 3.35 64.32, 0 51 C1.39 36.63, -2.73 24.9, 0 17 C0.02 2.62, 3.9 -1.74, 17 0" stroke="none" stroke-width="0" fill="#ffc9c9"></path><path d="M17 0 C68.37 1.61, 117.17 1.76, 155.33 0 M17 0 C62.72 -1.25, 106.36 -0.24, 155.33 0 M155.33 0 C168.31 -0.16, 171.5 3.78, 172.33 17 M155.33 0 C165.58 0.26, 172.83 6.23, 172.33 17 M172.33 17 C170.33 23.24, 173.72 31.97, 172.33 51 M172.33 17 C171.44 26.37, 172.27 33.91, 172.33 51 M172.33 51 C172.97 63.39, 167.11 66.36, 155.33 68 M172.33 51 C172.13 62.46, 165.82 69.44, 155.33 68 M155.33 68 C116.85 69.5, 79.23 68.67, 17 68 M155.33 68 C113.2 68.1, 70.78 68.46, 17 68 M17 68 C7.66 68.09, 0.99 63.79, 0 51 M17 68 C5.53 66.58, 0.64 61.83, 0 51 M0 51 C-0.94 40.9, -1.51 25.99, 0 17 M0 51 C-0.96 43.95, -0.97 35.35, 0 17 M0 17 C-0.47 4.11, 6.65 0.55, 17 0 M0 17 C2.07 6.75, 7.07 -0.22, 17 0" stroke="#1e1e1e" stroke-width="2" fill="none"></path></g><g transform="translate(459.0561913039137 618.0634563492702) rotate(0 60.9375 9.600000000000023)"><text x="60.9375" y="0" font-family="Cascadia, Segoe UI Emoji" font-size="16px" fill="#1e1e1e" text-anchor="middle" style="white-space: pre;" direction="ltr" dominant-baseline="text-before-edge">Order Service</text></g><g transform="translate(440.8638871629755 565.5737311036755) rotate(0 18.75 9.600000000000023)"><text x="0" y="0" font-family="Cascadia, Segoe UI Emoji" font-size="16px" fill="#868e96" text-anchor="start" style="white-space: pre;" direction="ltr" dominant-baseline="text-before-edge">gRPC</text></g><g stroke-linecap="round"><g transform="translate(243.53055037585955 413.2987914392561) rotate(0 68.48144987207297 106.72510528921873)"><path d="M1.15 0.63 C3.16 32.2, -9.85 154.17, 12.73 189.74 C35.32 225.3, 115.78 210.1, 136.65 214.03 M0.29 -0.09 C2.18 31.61, -10.21 155.59, 12.36 190.94 C34.93 226.29, 114.67 208.09, 135.72 212" stroke="#868e96" stroke-width="1" fill="none"></path></g><g transform="translate(243.53055037585955 413.2987914392561) rotate(0 68.48144987207297 106.72510528921873)"><path d="M107.67 222.62 C118.69 220.39, 126.58 214.26, 135.72 212 M107.67 222.62 C116.95 217.99, 126.67 215.35, 135.72 212" stroke="#868e96" stroke-width="1" fill="none"></path></g><g transform="translate(243.53055037585955 413.2987914392561) rotate(0 68.48144987207297 106.72510528921873)"><path d="M107.4 202.1 C118.57 207.18, 126.55 208.37, 135.72 212 M107.4 202.1 C116.94 204.63, 126.76 209.14, 135.72 212" stroke="#868e96" stroke-width="1" fill="none"></path></g></g><mask></mask><g stroke-linecap="round" transform="translate(429.9115926116797 84.22137316820681) rotate(0 92.00002698484764 34)"><path d="M17 0 C75.07 0.69, 139.58 -3.68, 167 0 C179.5 -3.16, 182.72 6.24, 184 17 C183.19 27.51, 188.12 34.03, 184 51 C182.26 61.21, 177.63 71.35, 167 68 C111.18 71.05, 57.89 66.93, 17 68 C3.21 68.02, -3.05 60.56, 0 51 C-3.12 40.31, -1.02 30.51, 0 17 C-0.4 3.88, 8.05 0.51, 17 0" stroke="none" stroke-width="0" fill="#ffc9c9"></path><path d="M17 0 C76.64 2.03, 134.17 -0.45, 167 0 M17 0 C48.05 0.08, 77.94 -0.61, 167 0 M167 0 C179.07 -1.86, 182.54 7.2, 184 17 M167 0 C177.83 -1.03, 183.48 3.98, 184 17 M184 17 C183.37 25.06, 185.29 32.3, 184 51 M184 17 C183.6 25.04, 183.67 31.12, 184 51 M184 51 C184.96 61.17, 179.17 66.55, 167 68 M184 51 C184.01 62.51, 177.87 67.98, 167 68 M167 68 C116.5 70.87, 64.18 69.86, 17 68 M167 68 C111.32 66.86, 55.57 67.72, 17 68 M17 68 C4.99 67.28, 1.79 61.04, 0 51 M17 68 C4.24 66.44, 0.85 62.37, 0 51 M0 51 C0.02 43.15, -1.84 37.23, 0 17 M0 51 C0.3 39.76, -1 28.32, 0 17 M0 17 C1.49 4.77, 7.12 1.29, 17 0 M0 17 C-2.01 7.35, 5.4 1.38, 17 0" stroke="#1e1e1e" stroke-width="2" fill="none"></path></g><g transform="translate(446.9116195965271 108.62137316820679) rotate(0 75 9.600000000000023)"><text x="75" y="0" font-family="Cascadia, Segoe UI Emoji" font-size="16px" fill="#1e1e1e" text-anchor="middle" style="white-space: pre;" direction="ltr" dominant-baseline="text-before-edge">Merchant Service</text></g><g stroke-linecap="round"><g transform="translate(246.81891599858955 328.3833422771711) rotate(0 62.86815354079158 -104.04686580088207)"><path d="M-0.5 -1.13 C2.08 -32.14, -4.6 -151.68, 16.48 -186.13 C37.56 -220.57, 107.93 -204.05, 125.99 -207.8 M1.44 0.89 C3.73 -29.89, -5.42 -149.98, 15.23 -184.52 C35.89 -219.05, 107.13 -202.45, 125.36 -206.33" stroke="#868e96" stroke-width="1" fill="none"></path></g><g transform="translate(246.81891599858955 328.3833422771711) rotate(0 62.86815354079158 -104.04686580088207)"><path d="M97.13 -196.17 C106.04 -200.88, 118.93 -203.39, 125.36 -206.33 M97.13 -196.17 C106.74 -200.27, 114.8 -201.87, 125.36 -206.33" stroke="#868e96" stroke-width="1" fill="none"></path></g><g transform="translate(246.81891599858955 328.3833422771711) rotate(0 62.86815354079158 -104.04686580088207)"><path d="M97.21 -216.69 C106.07 -213.56, 118.94 -208.23, 125.36 -206.33 M97.21 -216.69 C106.64 -214.13, 114.68 -209.07, 125.36 -206.33" stroke="#868e96" stroke-width="1" fill="none"></path></g></g><mask></mask><g transform="translate(449.32066347756245 55.44361887630441) rotate(0 18.75 9.600000000000023)"><text x="0" y="0" font-family="Cascadia, Segoe UI Emoji" font-size="16px" fill="#868e96" text-anchor="start" style="white-space: pre;" direction="ltr" dominant-baseline="text-before-edge">gRPC</text></g><g stroke-linecap="round" transform="translate(772.2495440264142 333.33002352140056) rotate(0 93.45836256691837 34)"><path d="M17 0 C49.58 1.92, 81.31 4.05, 169.92 0 C181.72 0.92, 184.33 7.15, 186.92 17 C185.69 27.39, 185.54 33.83, 186.92 51 C186.25 64.66, 181.27 70.83, 169.92 68 C126.86 68.2, 83.63 73.18, 17 68 C6.36 64.6, -1.3 63.76, 0 51 C0.68 43.81, -3.32 28.85, 0 17 C-1.09 2.86, 5.99 1.93, 17 0" stroke="none" stroke-width="0" fill="#fab005"></path><path d="M17 0 C64.47 -2.06, 107.72 -2.67, 169.92 0 M17 0 C71.82 0.04, 125.1 -0.26, 169.92 0 M169.92 0 C179.47 -1.14, 186.37 4.09, 186.92 17 M169.92 0 C179.19 -1.34, 187.21 7.75, 186.92 17 M186.92 17 C186.28 27.62, 185.81 35.97, 186.92 51 M186.92 17 C186.59 25.06, 186.78 33.86, 186.92 51 M186.92 51 C188.25 61.53, 181.32 66.63, 169.92 68 M186.92 51 C185.1 63.09, 180.68 67.53, 169.92 68 M169.92 68 C133.78 67.48, 101.14 69.21, 17 68 M169.92 68 C122.31 67.27, 72.78 69.09, 17 68 M17 68 C4.07 68.46, 1.17 63.52, 0 51 M17 68 C6.54 69.26, 1.91 61.36, 0 51 M0 51 C-1.21 39.05, -0.34 29.62, 0 17 M0 51 C-0.87 39.42, 0.38 25.6, 0 17 M0 17 C1.08 5.97, 6.45 -0.66, 17 0 M0 17 C1.89 6.88, 7.42 1.17, 17 0" stroke="#1e1e1e" stroke-width="2" fill="none"></path></g><g transform="translate(804.7704065933326 357.73002352140065) rotate(0 60.9375 9.600000000000023)"><text x="60.9375" y="0" font-family="Cascadia, Segoe UI Emoji" font-size="16px" fill="#1e1e1e" text-anchor="middle" style="white-space: pre;" direction="ltr" dominant-baseline="text-before-edge">User Database</text></g><g stroke-linecap="round" transform="translate(762.2690704545626 90.06483280162331) rotate(0 88.22281800951805 34)"><path d="M17 0 C47.84 0.43, 71.9 0.45, 159.45 0 C168.73 -0.27, 177.57 5.78, 176.45 17 C178.58 23.85, 179.06 33.8, 176.45 51 C176.85 65.75, 167.6 69.35, 159.45 68 C101.82 65.12, 50.08 65.65, 17 68 C7.99 70.44, -2.7 62.67, 0 51 C1.87 41.57, 0.2 32.62, 0 17 C-3.41 5.95, 4.78 2.39, 17 0" stroke="none" stroke-width="0" fill="#fab005"></path><path d="M17 0 C60.22 0.63, 100.92 0.88, 159.45 0 M17 0 C67.1 -1.96, 118.65 -0.86, 159.45 0 M159.45 0 C169.64 1.4, 177.46 3.97, 176.45 17 M159.45 0 C169.21 0.84, 178.38 3.73, 176.45 17 M176.45 17 C174.65 29.42, 176.68 44.6, 176.45 51 M176.45 17 C176.06 29.26, 176.48 40.98, 176.45 51 M176.45 51 C177.33 62.75, 172.22 67.98, 159.45 68 M176.45 51 C178.71 64.4, 171.94 68.97, 159.45 68 M159.45 68 C122.91 65.9, 89.1 66.21, 17 68 M159.45 68 C104.62 68.53, 48.7 67.59, 17 68 M17 68 C4.68 66.59, 1.65 62.57, 0 51 M17 68 C5.21 67.95, 0.07 60.17, 0 51 M0 51 C0.02 41.15, 1 30.69, 0 17 M0 51 C-0.61 41.95, -0.18 33.5, 0 17 M0 17 C-0.35 6.91, 5.31 -1.26, 17 0 M0 17 C1.36 7.12, 5.77 -1.64, 17 0" stroke="#1e1e1e" stroke-width="2" fill="none"></path></g><g transform="translate(770.8043884640806 114.46483280162329) rotate(0 79.6875 9.600000000000023)"><text x="79.6875" y="0" font-family="Cascadia, Segoe UI Emoji" font-size="16px" fill="#1e1e1e" text-anchor="middle" style="white-space: pre;" direction="ltr" dominant-baseline="text-before-edge">Merchant Database</text></g><g stroke-linecap="round"><g transform="translate(613.2722453076117 362.2986856550583) rotate(0 73.20767183454927 1.192172283632658)"><path d="M0.26 -0.74 C24.45 0.01, 121.79 2.95, 146.17 3.46 M-1.06 1.48 C22.86 2.01, 120.61 1.55, 145.09 1.91" stroke="#868e96" stroke-width="1" fill="none"></path></g><g transform="translate(613.2722453076117 362.2986856550583) rotate(0 73.20767183454927 1.192172283632658)"><path d="M116.85 12.06 C126.53 7.69, 140.38 4.39, 145.09 1.91 M116.85 12.06 C124.8 8.78, 134.17 5.55, 145.09 1.91" stroke="#868e96" stroke-width="1" fill="none"></path></g><g transform="translate(613.2722453076117 362.2986856550583) rotate(0 73.20767183454927 1.192172283632658)"><path d="M116.94 -8.46 C126.4 -4.97, 140.23 -0.39, 145.09 1.91 M116.94 -8.46 C124.98 -5.69, 134.32 -2.86, 145.09 1.91" stroke="#868e96" stroke-width="1" fill="none"></path></g></g><mask></mask><g stroke-linecap="round"><g transform="translate(617.1028420536272 625.6086945993877) rotate(0 69.04522111889855 1.4188757141405404)"><path d="M-1.08 -0.24 C8.98 0.11, 36.84 1.59, 60.22 1.99 C83.6 2.39, 126.39 1.99, 139.2 2.16 M0.55 -1.4 C10.98 -1.37, 39.23 -0.37, 62.3 0.39 C85.38 1.14, 126.6 2.48, 139.01 3.12" stroke="#868e96" stroke-width="1" fill="none"></path></g><g transform="translate(617.1028420536272 625.6086945993877) rotate(0 69.04522111889855 1.4188757141405404)"><path d="M110.42 12.21 C118.21 7.88, 128.42 9.11, 139.01 3.12 M110.42 12.21 C118.31 9.44, 124.66 7.84, 139.01 3.12" stroke="#868e96" stroke-width="1" fill="none"></path></g><g transform="translate(617.1028420536272 625.6086945993877) rotate(0 69.04522111889855 1.4188757141405404)"><path d="M111.26 -8.29 C118.8 -6.77, 128.77 0.32, 139.01 3.12 M111.26 -8.29 C118.77 -6.08, 124.92 -2.68, 139.01 3.12" stroke="#868e96" stroke-width="1" fill="none"></path></g></g><mask></mask><g stroke-linecap="round" transform="translate(1099.518852747356 300.19614511574514) rotate(0 62.866144545276256 63.35728629953633)"><path d="M78.86 2.75 C88.1 4.34, 98.14 11.01, 105.24 17.44 C112.33 23.87, 118.22 32.31, 121.42 41.33 C124.62 50.35, 125.78 61.75, 124.44 71.56 C123.1 81.38, 118.87 92.17, 113.38 100.23 C107.9 108.29, 100.13 115.42, 91.54 119.93 C82.94 124.45, 71.47 127.62, 61.8 127.3 C52.12 126.97, 41.98 122.68, 33.48 117.96 C24.98 113.24, 16.16 106.91, 10.79 98.97 C5.42 91.03, 2.29 80.17, 1.26 70.33 C0.23 60.5, 1.13 49.32, 4.63 39.96 C8.14 30.6, 14.81 20.48, 22.29 14.16 C29.76 7.85, 39.05 3.69, 49.49 2.1 C59.93 0.5, 78.01 3.58, 84.93 4.61 C91.85 5.63, 91.34 7.48, 91.01 8.27 M69.11 1.29 C78.45 1.81, 90.08 7.28, 98.12 12.59 C106.15 17.9, 112.82 24.69, 117.34 33.16 C121.85 41.63, 125.22 53.67, 125.19 63.41 C125.15 73.14, 121.65 82.75, 117.1 91.56 C112.55 100.37, 105.84 110.34, 97.9 116.27 C89.95 122.2, 78.83 125.87, 69.43 127.14 C60.03 128.41, 50.5 127.58, 41.51 123.89 C32.51 120.19, 22.28 112.39, 15.44 104.96 C8.59 97.54, 2.96 88.89, 0.46 79.32 C-2.04 69.75, -2.18 57.19, 0.43 47.53 C3.05 37.88, 9.67 28.59, 16.13 21.38 C22.58 14.16, 30.06 7.52, 39.18 4.25 C48.3 0.97, 65.55 2.06, 70.86 1.74 C76.17 1.41, 71.12 1.55, 71.05 2.29" stroke="none" stroke-width="0" fill="#b2f2bb"></path><path d="M48.08 1.23 C56.79 -1.7, 69.13 0.17, 78.65 2.77 C88.17 5.38, 98.19 10.5, 105.21 16.85 C112.23 23.21, 117.39 31.72, 120.76 40.91 C124.13 50.09, 126.33 62.12, 125.44 71.95 C124.55 81.79, 121.15 92.04, 115.42 99.9 C109.69 107.77, 99.9 114.79, 91.06 119.14 C82.23 123.49, 71.92 125.89, 62.4 126.01 C52.87 126.14, 42.48 124.3, 33.91 119.88 C25.34 115.46, 16.57 107.71, 11 99.49 C5.43 91.28, 1.75 80.37, 0.47 70.6 C-0.8 60.83, -0.29 49.9, 3.35 40.88 C6.98 31.86, 14.01 23.07, 22.3 16.49 C30.58 9.9, 47.15 4, 53.07 1.39 C58.98 -1.23, 57.71 -0.2, 57.81 0.8 M55.47 1.47 C64.84 -0.34, 77.54 2.32, 86.71 5.6 C95.87 8.89, 104.28 13.76, 110.45 21.16 C116.62 28.55, 121.61 39.98, 123.74 50 C125.87 60.02, 125.7 71.65, 123.22 81.29 C120.75 90.92, 115.42 101.09, 108.88 107.83 C102.33 114.57, 93.06 118.91, 83.94 121.73 C74.83 124.55, 63.75 126.01, 54.18 124.75 C44.62 123.5, 34.31 119.65, 26.54 114.21 C18.78 108.77, 12.18 100.89, 7.6 92.11 C3.02 83.33, -1.13 71.65, -0.92 61.55 C-0.72 51.45, 3.76 40.22, 8.85 31.52 C13.93 22.82, 21.53 14.74, 29.57 9.34 C37.62 3.94, 52.72 0.59, 57.12 -0.88 C61.53 -2.35, 55.76 -0.92, 56 0.52" stroke="#1e1e1e" stroke-width="1" fill="none"></path></g><g transform="translate(1134.4397326776138 344.5530646353018) rotate(0 27.9921875 19.200000000000045)"><text x="27.9921875" y="0" font-family="Cascadia, Segoe UI Emoji" font-size="16px" fill="#1e1e1e" text-anchor="middle" style="white-space: pre;" direction="ltr" dominant-baseline="text-before-edge">Message</text><text x="27.9921875" y="19.2" font-family="Cascadia, Segoe UI Emoji" font-size="16px" fill="#1e1e1e" text-anchor="middle" style="white-space: pre;" direction="ltr" dominant-baseline="text-before-edge">Broker</text></g><g stroke-linecap="round" transform="translate(1312.5347630087658 331.0526587216798) rotate(0 75.71899584226367 34)"><path d="M17 0 C43.68 -1.13, 70.64 -1.21, 134.44 0 C148.84 -2.54, 151.74 4.42, 151.44 17 C152.81 27.3, 149.04 29.55, 151.44 51 C150.89 60.77, 147.95 67.82, 134.44 68 C97.03 68.78, 62.5 67.3, 17 68 C2.89 69.65, 3.58 62.61, 0 51 C2.27 36.96, -1.92 26.26, 0 17 C2.58 3.9, 5.22 -1.6, 17 0" stroke="none" stroke-width="0" fill="#ffc9c9"></path><path d="M17 0 C41.68 0.26, 68.14 1.32, 134.44 0 M17 0 C64.07 1.44, 110.82 0.07, 134.44 0 M134.44 0 C145 0.31, 151.8 5.51, 151.44 17 M134.44 0 C146.6 -1.54, 151.21 6.49, 151.44 17 M151.44 17 C151.06 27.49, 153.21 43.21, 151.44 51 M151.44 17 C150.79 31.03, 152.06 42.38, 151.44 51 M151.44 51 C150.68 63.55, 146.55 67.09, 134.44 68 M151.44 51 C150.14 60.89, 143.93 68.85, 134.44 68 M134.44 68 C96.56 69.21, 58.46 69.66, 17 68 M134.44 68 C92.22 69.35, 51.18 69.21, 17 68 M17 68 C5.5 67.53, 0.05 63.76, 0 51 M17 68 C7.14 66.21, 2.04 62.09, 0 51 M0 51 C1.47 40.13, 1.66 32.6, 0 17 M0 51 C-0.71 38.52, -0.35 24.51, 0 17 M0 17 C1.93 5.33, 7.14 -1.14, 17 0 M0 17 C1.87 7.28, 7.95 1.3, 17 0" stroke="#1e1e1e" stroke-width="2" fill="none"></path></g><g transform="translate(1332.00375885103 355.4526587216799) rotate(0 56.25 9.600000000000023)"><text x="56.25" y="0" font-family="Cascadia, Segoe UI Emoji" font-size="16px" fill="#1e1e1e" text-anchor="middle" style="white-space: pre;" direction="ltr" dominant-baseline="text-before-edge">Mail Service</text></g><g stroke-linecap="round"><g transform="translate(1302.0841342814751 369.8198985785825) rotate(0 -32.53134225842996 0.3257754969645248)"><path d="M0.86 1.14 C-10.21 0.94, -55.34 -0.43, -66.19 -0.44 M-0.15 0.7 C-10.89 0.53, -53.33 0.81, -64.08 0.53" stroke="#868e96" stroke-width="1" fill="none"></path></g><g transform="translate(1302.0841342814751 369.8198985785825) rotate(0 -32.53134225842996 0.3257754969645248)"><path d="M-35.81 -9.51 C-42.83 -8, -55.55 -1.63, -64.08 0.53 M-35.81 -9.51 C-45.62 -6.25, -54.58 -3.1, -64.08 0.53" stroke="#868e96" stroke-width="1" fill="none"></path></g><g transform="translate(1302.0841342814751 369.8198985785825) rotate(0 -32.53134225842996 0.3257754969645248)"><path d="M-35.97 11.01 C-43.08 5.99, -55.74 5.83, -64.08 0.53 M-35.97 11.01 C-45.93 7.36, -54.83 3.59, -64.08 0.53" stroke="#868e96" stroke-width="1" fill="none"></path></g></g><mask></mask><g stroke-linecap="round"><g transform="translate(518.4361604716078 320.7305118157062) rotate(0 -0.5090905950819433 -79.44817963971553)"><path d="M0 0 C-0.17 -26.48, -0.85 -132.41, -1.02 -158.9 M0 0 C-0.17 -26.48, -0.85 -132.41, -1.02 -158.9" stroke="#868e96" stroke-width="1" fill="none"></path></g><g transform="translate(518.4361604716078 320.7305118157062) rotate(0 -0.5090905950819433 -79.44817963971553)"><path d="M-10.44 -28.12 C-7.23 -19.48, -4.02 -10.83, 0 0 M-10.44 -28.12 C-6.55 -17.64, -2.66 -7.17, 0 0" stroke="#868e96" stroke-width="1" fill="none"></path></g><g transform="translate(518.4361604716078 320.7305118157062) rotate(0 -0.5090905950819433 -79.44817963971553)"><path d="M10.08 -28.26 C6.98 -19.57, 3.88 -10.88, 0 0 M10.08 -28.26 C6.32 -17.73, 2.57 -7.2, 0 0" stroke="#868e96" stroke-width="1" fill="none"></path></g><g transform="translate(518.4361604716078 320.7305118157062) rotate(0 -0.5090905950819433 -79.44817963971553)"><path d="M9.42 -130.77 C6.21 -139.42, 3 -148.06, -1.02 -158.9 M9.42 -130.77 C5.53 -141.25, 1.64 -151.73, -1.02 -158.9" stroke="#868e96" stroke-width="1" fill="none"></path></g><g transform="translate(518.4361604716078 320.7305118157062) rotate(0 -0.5090905950819433 -79.44817963971553)"><path d="M-11.1 -130.64 C-8 -139.33, -4.9 -148.01, -1.02 -158.9 M-11.1 -130.64 C-7.34 -141.17, -3.59 -151.7, -1.02 -158.9" stroke="#868e96" stroke-width="1" fill="none"></path></g></g><mask></mask><g stroke-linecap="round"><g transform="translate(521.5784024273644 585.69908725029) rotate(0 1.1774964240157715 -85.3249611283685)"><path d="M0 0 C0.39 -28.44, 1.96 -142.21, 2.35 -170.65 M0 0 C0.39 -28.44, 1.96 -142.21, 2.35 -170.65" stroke="#868e96" stroke-width="1" fill="none"></path></g><g transform="translate(521.5784024273644 585.69908725029) rotate(0 1.1774964240157715 -85.3249611283685)"><path d="M-9.87 -28.33 C-7.65 -21.95, -5.43 -15.57, 0 0 M-9.87 -28.33 C-6.02 -17.29, -2.18 -6.25, 0 0" stroke="#868e96" stroke-width="1" fill="none"></path></g><g transform="translate(521.5784024273644 585.69908725029) rotate(0 1.1774964240157715 -85.3249611283685)"><path d="M10.65 -28.05 C8.25 -21.73, 5.85 -15.42, 0 0 M10.65 -28.05 C6.5 -17.12, 2.35 -6.19, 0 0" stroke="#868e96" stroke-width="1" fill="none"></path></g><g transform="translate(521.5784024273644 585.69908725029) rotate(0 1.1774964240157715 -85.3249611283685)"><path d="M12.23 -142.32 C10 -148.7, 7.78 -155.08, 2.35 -170.65 M12.23 -142.32 C8.38 -153.36, 4.53 -164.4, 2.35 -170.65" stroke="#868e96" stroke-width="1" fill="none"></path></g><g transform="translate(521.5784024273644 585.69908725029) rotate(0 1.1774964240157715 -85.3249611283685)"><path d="M-8.29 -142.6 C-5.9 -148.92, -3.5 -155.23, 2.35 -170.65 M-8.29 -142.6 C-4.14 -153.53, 0.01 -164.46, 2.35 -170.65" stroke="#868e96" stroke-width="1" fill="none"></path></g></g><mask></mask><g stroke-linecap="round" transform="translate(1129.515610475382 35.60839342013685) rotate(0 81.06251011931818 34)"><path d="M17 0 C43.54 -2.78, 70.33 2.31, 145.13 0 C153.2 0.8, 160.14 5.19, 162.13 17 C164.47 24.22, 160.49 40.1, 162.13 51 C162.75 63.85, 154.45 67.08, 145.13 68 C112.96 65.26, 82.57 67.66, 17 68 C7.33 66.02, 2.55 62.84, 0 51 C-1.58 42.31, 1.92 32.38, 0 17 C-2.11 2.11, 4.52 -0.77, 17 0" stroke="none" stroke-width="0" fill="#a5d8ff"></path><path d="M17 0 C42.77 0.75, 71.16 -0.35, 145.13 0 M17 0 C58.3 -1.94, 99.82 -1.36, 145.13 0 M145.13 0 C155.14 -1.29, 163.8 6.87, 162.13 17 M145.13 0 C154.41 0.84, 162.26 4.56, 162.13 17 M162.13 17 C162.06 29.32, 164.42 40.36, 162.13 51 M162.13 17 C160.98 26.43, 162.88 36.06, 162.13 51 M162.13 51 C163.2 62.58, 156.8 66.75, 145.13 68 M162.13 51 C160.12 62.76, 155.61 68.25, 145.13 68 M145.13 68 C95.64 70.47, 44.95 69.76, 17 68 M145.13 68 C101.45 67.73, 58.41 66.42, 17 68 M17 68 C4.03 67.24, 0.43 62.6, 0 51 M17 68 C6.97 69.87, 1.77 62.1, 0 51 M0 51 C1.3 39.53, -1.85 27.71, 0 17 M0 51 C0.85 43.35, -0.33 35.08, 0 17 M0 17 C0.56 5.01, 5.26 -0.19, 17 0 M0 17 C0.14 6.74, 5.46 0.66, 17 0" stroke="#1e1e1e" stroke-width="2" fill="none"></path></g><g transform="translate(1140.2656205947 60.00839342013683) rotate(0 70.3125 9.600000000000023)"><text x="70.3125" y="0" font-family="Cascadia, Segoe UI Emoji" font-size="16px" fill="#1e1e1e" text-anchor="middle" style="white-space: pre;" direction="ltr" dominant-baseline="text-before-edge">Google Maps API</text></g><g stroke-linecap="round"><g transform="translate(629.6750769225305 119.6816230754157) rotate(0 59.819256797873095 1.459673328633471)"><path d="M0.68 0.87 C20.49 0.99, 99.09 1.46, 119.08 1.81 M-0.42 0.28 C19.16 1.02, 97.71 2.1, 117.84 2.77" stroke="#868e96" stroke-width="1" fill="none"></path></g><g transform="translate(629.6750769225305 119.6816230754157) rotate(0 59.819256797873095 1.459673328633471)"><path d="M89.43 12.39 C99.86 8.23, 105.65 7.71, 117.84 2.77 M89.43 12.39 C98.01 9.86, 106.55 6.69, 117.84 2.77" stroke="#868e96" stroke-width="1" fill="none"></path></g><g transform="translate(629.6750769225305 119.6816230754157) rotate(0 59.819256797873095 1.459673328633471)"><path d="M89.89 -8.12 C100.37 -5.73, 106 0.3, 117.84 2.77 M89.89 -8.12 C98.14 -4.43, 106.54 -1.37, 117.84 2.77" stroke="#868e96" stroke-width="1" fill="none"></path></g></g><mask></mask><g stroke-linecap="round" transform="translate(1121.0655897422134 532.9787007165901) rotate(0 74.5 34)"><path d="M17 0 C60.25 2.96, 97.69 1, 132 0 C144.61 -3.31, 148.16 5.58, 149 17 C150.57 27.18, 145.57 39.78, 149 51 C147.21 64.76, 145.39 69.79, 132 68 C95.94 70.24, 59.37 66.21, 17 68 C8.14 71.25, 2.62 62.84, 0 51 C-2.21 34.73, -3.38 25.19, 0 17 C-2.02 2.83, 4.27 -0.54, 17 0" stroke="none" stroke-width="0" fill="#a5d8ff"></path><path d="M17 0 C44.51 -0.75, 73.81 0.63, 132 0 M17 0 C58.12 -0.15, 97.3 0.41, 132 0 M132 0 C144.44 -1.83, 148.43 4.24, 149 17 M132 0 C142.4 1.05, 148.52 7.49, 149 17 M149 17 C149.17 30.62, 148.28 43.99, 149 51 M149 17 C148.4 25.35, 150.24 35.19, 149 51 M149 51 C148.14 62.57, 141.53 67.11, 132 68 M149 51 C150.06 61.06, 142.33 69.53, 132 68 M132 68 C107.77 68.2, 79.9 68.02, 17 68 M132 68 C92.19 68.09, 52.08 68.29, 17 68 M17 68 C4.72 67.07, 1.75 62.91, 0 51 M17 68 C7.08 69.23, 2.21 61.96, 0 51 M0 51 C0.38 43.79, 1.29 36.22, 0 17 M0 51 C0.58 36.5, 0.12 24.56, 0 17 M0 17 C-1.02 5.89, 5.53 -1.11, 17 0 M0 17 C1.73 7.67, 6.77 1.49, 17 0" stroke="#1e1e1e" stroke-width="2" fill="none"></path></g><g transform="translate(1158.9015272422134 557.3787007165902) rotate(0 36.6640625 9.600000000000023)"><text x="36.6640625" y="0" font-family="Cascadia, Segoe UI Emoji" font-size="16px" fill="#1e1e1e" text-anchor="middle" style="white-space: pre;" direction="ltr" dominant-baseline="text-before-edge">Xendit API</text></g><g stroke-linecap="round"><g transform="translate(1004.2882533998977 626.7059261329134) rotate(0 50.01248058048759 22.846730859034096)"><path d="M-0.31 0.94 C16.39 8.34, 83.65 37, 100.33 44.58 M1.73 0.39 C18.28 7.88, 83.35 38.19, 99.54 45.54" stroke="#868e96" stroke-width="1" fill="none"></path></g><g transform="translate(1004.2882533998977 626.7059261329134) rotate(0 50.01248058048759 22.846730859034096)"><path d="M29.64 2.7 C21.78 2.58, 8.92 1.12, -0.31 0.94 M29.64 2.7 C19.62 2.58, 8.81 2.19, -0.31 0.94" stroke="#868e96" stroke-width="1" fill="none"></path></g><g transform="translate(1004.2882533998977 626.7059261329134) rotate(0 50.01248058048759 22.846730859034096)"><path d="M21.5 21.54 C16.17 15.51, 5.88 8.11, -0.31 0.94 M21.5 21.54 C14.31 14.61, 6.45 7.41, -0.31 0.94" stroke="#868e96" stroke-width="1" fill="none"></path></g><g transform="translate(1004.2882533998977 626.7059261329134) rotate(0 50.01248058048759 22.846730859034096)"><path d="M69.64 43.07 C80.63 44.43, 86.63 44.3, 99.54 45.54 M69.64 43.07 C81.27 44.5, 92.1 45.64, 99.54 45.54" stroke="#868e96" stroke-width="1" fill="none"></path></g><g transform="translate(1004.2882533998977 626.7059261329134) rotate(0 50.01248058048759 22.846730859034096)"><path d="M78.23 24.43 C86.54 31.64, 89.83 37.38, 99.54 45.54 M78.23 24.43 C86.86 32.59, 94.59 40.47, 99.54 45.54" stroke="#868e96" stroke-width="1" fill="none"></path></g></g><mask></mask><g stroke-linecap="round" transform="translate(1118.1676207595897 641.8270915042406) rotate(0 82.50367036338776 34)"><path d="M17 0 C43.79 3.94, 71.65 1.72, 148.01 0 C159.89 2.53, 161.71 3.45, 165.01 17 C166.8 28.72, 167.03 41.06, 165.01 51 C163.6 61.98, 161.1 69.51, 148.01 68 C116.5 65.64, 87.68 67.11, 17 68 C5.97 68.7, -0.28 63.48, 0 51 C2.65 34.53, -2.83 26.87, 0 17 C0.79 7.22, 2.27 -1.67, 17 0" stroke="none" stroke-width="0" fill="#a5d8ff"></path><path d="M17 0 C49.39 -0.83, 83.51 0.59, 148.01 0 M17 0 C62.89 0.72, 108.52 0.6, 148.01 0 M148.01 0 C159.31 1.38, 164.38 6.86, 165.01 17 M148.01 0 C159.73 -1.61, 163.32 7.35, 165.01 17 M165.01 17 C165 28.04, 164.73 35.04, 165.01 51 M165.01 17 C165.48 30.41, 165.35 42.88, 165.01 51 M165.01 51 C163.51 61.11, 158.69 69.61, 148.01 68 M165.01 51 C166.71 61.76, 160.72 69.93, 148.01 68 M148.01 68 C104.56 69.29, 60.37 68.06, 17 68 M148.01 68 C117.22 68.1, 87.55 68.91, 17 68 M17 68 C6.82 68.45, -1.15 64.3, 0 51 M17 68 C6.17 66.98, -1.33 60.62, 0 51 M0 51 C-0.65 39.84, -1.53 28.75, 0 17 M0 51 C-0.11 42.17, -0.08 32.53, 0 17 M0 17 C-0.43 4.13, 6.82 0.68, 17 0 M0 17 C0.11 3.64, 7.93 -1, 17 0" stroke="#1e1e1e" stroke-width="2" fill="none"></path></g><g transform="translate(1130.3587911229774 666.2270915042407) rotate(0 70.3125 9.600000000000023)"><text x="70.3125" y="0" font-family="Cascadia, Segoe UI Emoji" font-size="16px" fill="#1e1e1e" text-anchor="middle" style="white-space: pre;" direction="ltr" dominant-baseline="text-before-edge">Google Maps API</text></g><g stroke-linecap="round"><g transform="translate(1029.8994623677586 542.8091085314568) rotate(89.96718294506947 23.02302119105434 51.1948709979647)"><path d="M0.96 0.59 C8.44 17.57, 37.43 84.64, 44.99 101.57 M0.01 -0.15 C7.84 17, 39.54 85.43, 47.14 102.68" stroke="#868e96" stroke-width="1" fill="none"></path></g><g transform="translate(1029.8994623677586 542.8091085314568) rotate(89.96718294506947 23.02302119105434 51.1948709979647)"><path d="M21.62 22.34 C16.26 14.01, 7.54 9.44, 0.96 0.59 M21.62 22.34 C15.72 16.81, 9.58 10.56, 0.96 0.59" stroke="#868e96" stroke-width="1" fill="none"></path></g><g transform="translate(1029.8994623677586 542.8091085314568) rotate(89.96718294506947 23.02302119105434 51.1948709979647)"><path d="M2.8 30.53 C3.29 19.51, 0.39 12.41, 0.96 0.59 M2.8 30.53 C2.22 22.74, 1.4 14.17, 0.96 0.59" stroke="#868e96" stroke-width="1" fill="none"></path></g><g transform="translate(1029.8994623677586 542.8091085314568) rotate(89.96718294506947 23.02302119105434 51.1948709979647)"><path d="M26.15 81.25 C33.56 85.95, 37.72 94.74, 47.14 102.68 M26.15 81.25 C32.11 88.07, 37.76 94.05, 47.14 102.68" stroke="#868e96" stroke-width="1" fill="none"></path></g><g transform="translate(1029.8994623677586 542.8091085314568) rotate(89.96718294506947 23.02302119105434 51.1948709979647)"><path d="M44.84 72.77 C46.44 80.24, 44.82 91.66, 47.14 102.68 M44.84 72.77 C45.52 81.94, 45.88 90.31, 47.14 102.68" stroke="#868e96" stroke-width="1" fill="none"></path></g></g><mask></mask><g transform="translate(767.1542690710153 68.37386232357687) rotate(0 37.5 9.600000000000023)"><text x="0" y="0" font-family="Cascadia, Segoe UI Emoji" font-size="16px" fill="#868e96" text-anchor="start" style="white-space: pre;" direction="ltr" dominant-baseline="text-before-edge">Postgres</text></g><g transform="translate(780.096949781409 310.12605309670414) rotate(0 37.5 9.600000000000023)"><text x="0" y="0" font-family="Cascadia, Segoe UI Emoji" font-size="16px" fill="#868e96" text-anchor="start" style="white-space: pre;" direction="ltr" dominant-baseline="text-before-edge">Postgres</text></g><g transform="translate(775.2966364227054 569.1974194131458) rotate(0 34.2265625 9.600000000000023)"><text x="0" y="0" font-family="Cascadia, Segoe UI Emoji" font-size="16px" fill="#868e96" text-anchor="start" style="white-space: pre;" direction="ltr" dominant-baseline="text-before-edge">MongoDB</text></g><g stroke-linecap="round" transform="translate(767.7319155090049 593.0097969005692) rotate(0 93.45836256691837 34)"><path d="M17 0 C79.4 -1.42, 134.68 -3.06, 169.92 0 C182.18 -2.62, 183.48 2.86, 186.92 17 C186.61 24.24, 189.74 37.3, 186.92 51 C188.04 62.55, 179.84 67.47, 169.92 68 C140.53 68.97, 109.48 65.53, 17 68 C2.32 64.73, 0.57 63.99, 0 51 C2.94 40.74, 1.17 24.42, 0 17 C2.29 7.86, 4.28 -0.41, 17 0" stroke="none" stroke-width="0" fill="#fab005"></path><path d="M17 0 C72.66 -2.01, 125.3 0.91, 169.92 0 M17 0 C54.1 0.46, 90.69 0.24, 169.92 0 M169.92 0 C180.81 1.65, 186.69 5.21, 186.92 17 M169.92 0 C179.98 1.63, 188.2 4.11, 186.92 17 M186.92 17 C187.97 28.46, 184.73 37.55, 186.92 51 M186.92 17 C186.28 29.16, 187.66 39.64, 186.92 51 M186.92 51 C187.09 61.25, 181.53 66.64, 169.92 68 M186.92 51 C187.52 60.37, 183.23 66.43, 169.92 68 M169.92 68 C136 67.04, 101.22 65.72, 17 68 M169.92 68 C137.84 69.39, 106.42 69.65, 17 68 M17 68 C4.06 68.74, -1.7 63.77, 0 51 M17 68 C3.88 69.32, 0.33 64.63, 0 51 M0 51 C0.54 40.73, -1.21 32.52, 0 17 M0 51 C-0.25 42.26, -0.5 32.08, 0 17 M0 17 C-0.64 7.33, 4.26 0.86, 17 0 M0 17 C1.22 7.14, 6.61 -1.81, 17 0" stroke="#1e1e1e" stroke-width="2" fill="none"></path></g><g transform="translate(790.8777780759233 617.4097969005693) rotate(0 70.3125 9.600000000000023)"><text x="70.3125" y="0" font-family="Cascadia, Segoe UI Emoji" font-size="16px" fill="#1e1e1e" text-anchor="middle" style="white-space: pre;" direction="ltr" dominant-baseline="text-before-edge">Orders Database</text></g><g stroke-linecap="round" transform="translate(391.89292534893184 33.44885962739693) rotate(0 295.3501614134575 82.20291471919342)"><path d="M32 0 C154.94 -0.13, 276.86 0.09, 558.7 0 M32 0 C220.12 -1.21, 408.68 -1.44, 558.7 0 M558.7 0 C580.74 -1.56, 590.75 9.15, 590.7 32 M558.7 0 C580.63 1.38, 592.31 10.23, 590.7 32 M590.7 32 C589.7 61.39, 590.09 89.94, 590.7 132.41 M590.7 32 C590.2 68.8, 590.7 107.06, 590.7 132.41 M590.7 132.41 C589.63 155.32, 578.07 163.95, 558.7 164.41 M590.7 132.41 C591.18 152.99, 578.74 164.95, 558.7 164.41 M558.7 164.41 C412.19 163.52, 265.03 163.61, 32 164.41 M558.7 164.41 C436.25 166.52, 313.07 166.03, 32 164.41 M32 164.41 C8.95 163.65, -0.12 151.86, 0 132.41 M32 164.41 C12.4 162.2, -1.56 152.42, 0 132.41 M0 132.41 C1.51 93.75, 0.68 55.91, 0 32 M0 132.41 C1.66 110.31, 1.42 89.89, 0 32 M0 32 C-0.89 9.85, 12.4 0.42, 32 0 M0 32 C-1.44 10.62, 10.17 1.88, 32 0" stroke="#ff8787" stroke-width="1" fill="none"></path></g><g stroke-linecap="round" transform="translate(386.37177976209523 280.1436711591118) rotate(0 303.5103082893861 82.20291471919336)"><path d="M32 0 C166.03 -0.34, 299.44 0.49, 575.02 0 M32 0 C223.13 -1.44, 413.7 -1.51, 575.02 0 M575.02 0 C595.82 -1.97, 606.16 10.23, 607.02 32 M575.02 0 C595.33 0.06, 607.25 9.37, 607.02 32 M607.02 32 C607.47 60.69, 607.46 91.31, 607.02 132.41 M607.02 32 C606.9 66.12, 606.46 100.99, 607.02 132.41 M607.02 132.41 C608.05 155.43, 595.93 166.13, 575.02 164.41 M607.02 132.41 C606.26 154.98, 594.3 163.28, 575.02 164.41 M575.02 164.41 C408.21 166.99, 240.66 166.82, 32 164.41 M575.02 164.41 C405.93 162.74, 236.94 162.75, 32 164.41 M32 164.41 C12.44 166.08, -1.73 155.26, 0 132.41 M32 164.41 C11.44 163.18, -0.98 154.77, 0 132.41 M0 132.41 C0.38 93.82, 0.48 59.21, 0 32 M0 132.41 C1.23 101.3, -0.19 71.86, 0 32 M0 32 C1.09 11.59, 12.12 -1.73, 32 0 M0 32 C1.43 12.11, 10.77 -1.88, 32 0" stroke="#ff8787" stroke-width="1" fill="none"></path></g><g stroke-linecap="round" transform="translate(394.50710198366824 545.5362301241216) rotate(0 297.13935331124276 75.14490340124132)"><path d="M32 0 C232.33 0.39, 433.78 0.34, 562.28 0 M32 0 C202.34 0.23, 372.81 0.41, 562.28 0 M562.28 0 C582.98 1.7, 595.76 10.82, 594.28 32 M562.28 0 C581.83 -1.88, 595.76 8.6, 594.28 32 M594.28 32 C593.03 55.24, 594.6 74.46, 594.28 118.29 M594.28 32 C593.64 58.59, 593.73 83.95, 594.28 118.29 M594.28 118.29 C593.42 137.69, 584.87 148.91, 562.28 150.29 M594.28 118.29 C595.07 138.79, 582.96 152.52, 562.28 150.29 M562.28 150.29 C426.14 150.27, 289.06 150.85, 32 150.29 M562.28 150.29 C361.91 148.19, 161.35 148.46, 32 150.29 M32 150.29 C12.56 148.91, -0.57 141.02, 0 118.29 M32 150.29 C12.01 150.18, -0.88 139.48, 0 118.29 M0 118.29 C0.34 87.35, 1.37 56.72, 0 32 M0 118.29 C-0.29 92.83, 0.52 65.95, 0 32 M0 32 C1.3 11.74, 10.06 1.73, 32 0 M0 32 C-2.25 11.73, 11.46 -2.26, 32 0" stroke="#ff8787" stroke-width="1" fill="none"></path></g><g transform="translate(171.07815039314983 312.4294219999265) rotate(0 24.4482421875 12)"><text x="0" y="0" font-family="Cascadia, Segoe UI Emoji" font-size="20px" fill="#868e96" text-anchor="start" style="white-space: pre;" direction="ltr" dominant-baseline="text-before-edge">REST</text></g><g stroke-linecap="round"><g transform="translate(1007.9258946198574 368.37215040823344) rotate(0 41.44226338305771 0.04002713768477406)"><path d="M-0.44 0.55 C13.29 0.62, 67.84 1.03, 81.74 1.11 M1.53 -0.2 C15.66 -0.51, 70.4 -0.37, 83.85 -0.47" stroke="#868e96" stroke-width="1" fill="none"></path></g><g transform="translate(1007.9258946198574 368.37215040823344) rotate(0 41.44226338305771 0.04002713768477406)"><path d="M55.68 9.85 C63.53 5.48, 71.32 4.9, 83.85 -0.47 M55.68 9.85 C65.77 6.29, 77.04 2.37, 83.85 -0.47" stroke="#868e96" stroke-width="1" fill="none"></path></g><g transform="translate(1007.9258946198574 368.37215040823344) rotate(0 41.44226338305771 0.04002713768477406)"><path d="M55.63 -10.67 C63.62 -9.95, 71.41 -5.44, 83.85 -0.47 M55.63 -10.67 C65.74 -6.45, 77.02 -2.59, 83.85 -0.47" stroke="#868e96" stroke-width="1" fill="none"></path></g></g><mask></mask><g stroke-linecap="round" transform="translate(478.63088017367227 479.1487222609601) rotate(0 43.11192924266538 19.37614797423157)"><path d="M9.69 0 C31.81 -0.43, 55.7 -2.59, 76.54 0 C79.63 3.22, 84.78 0.11, 86.22 9.69 C86.67 12.25, 84.51 22.51, 86.22 29.06 C89.4 32.82, 80.58 36.45, 76.54 38.75 C46.96 36.41, 21.82 35.41, 9.69 38.75 C6.63 36.7, -0.1 36.94, 0 29.06 C-3.04 26.28, -0.94 16.03, 0 9.69 C2 5.16, 1.29 2.15, 9.69 0" stroke="none" stroke-width="0" fill="#ffffff"></path><path d="M9.69 0 C25.08 0.56, 42.44 -0.78, 76.54 0 M9.69 0 C34.13 0.01, 59.2 -1.44, 76.54 0 M76.54 0 C83.63 0.09, 87.06 4.42, 86.22 9.69 M76.54 0 C84.17 0.74, 87.81 5.13, 86.22 9.69 M86.22 9.69 C85.36 17.26, 86.54 23.26, 86.22 29.06 M86.22 9.69 C86.38 15.43, 86 22.3, 86.22 29.06 M86.22 29.06 C86.89 37.48, 83.44 38.19, 76.54 38.75 M86.22 29.06 C85.3 34.95, 82.23 39.11, 76.54 38.75 M76.54 38.75 C61.13 39.01, 42.14 37.36, 9.69 38.75 M76.54 38.75 C51.31 39.46, 24.32 37.86, 9.69 38.75 M9.69 38.75 C1.76 37, 0.53 35.66, 0 29.06 M9.69 38.75 C2.53 39.89, -1.56 36.72, 0 29.06 M0 29.06 C-0.49 24.81, -1.52 21.69, 0 9.69 M0 29.06 C-0.18 20.9, 0.8 12.76, 0 9.69 M0 9.69 C1.66 4.42, 1.88 1.05, 9.69 0 M0 9.69 C1.07 1.83, 3.24 -0.19, 9.69 0" stroke="#1e1e1e" stroke-width="1" fill="none"></path></g><g transform="translate(502.9928094163379 488.92487023519175) rotate(0 18.75 9.600000000000023)"><text x="18.75" y="0" font-family="Cascadia, Segoe UI Emoji" font-size="16px" fill="#1e1e1e" text-anchor="middle" style="white-space: pre;" direction="ltr" dominant-baseline="text-before-edge">Auth</text></g><g stroke-linecap="round" transform="translate(477.17766907560554 215.63310981140944) rotate(0 43.11192924266538 19.37614797423157)"><path d="M9.69 0 C31.59 -4.29, 51.93 -3.89, 76.54 0 C80.53 -0.79, 87.2 0.26, 86.22 9.69 C84.69 17.62, 85.79 27.59, 86.22 29.06 C84.6 32.73, 80.49 40.82, 76.54 38.75 C61.4 41.44, 48.73 42.72, 9.69 38.75 C5.35 40.6, -3.02 35.76, 0 29.06 C-0.94 22.95, -3.26 22.03, 0 9.69 C1.66 0.06, 3.62 -2.01, 9.69 0" stroke="none" stroke-width="0" fill="#ffffff"></path><path d="M9.69 0 C27.23 -2.6, 46.83 0.27, 76.54 0 M9.69 0 C27.31 0.85, 46.84 0.42, 76.54 0 M76.54 0 C83.1 -0.83, 85.95 1.81, 86.22 9.69 M76.54 0 C84.91 -0.41, 84.61 4.53, 86.22 9.69 M86.22 9.69 C86.34 12.98, 85.48 18.96, 86.22 29.06 M86.22 9.69 C86.56 13.6, 85.67 17.7, 86.22 29.06 M86.22 29.06 C87.27 34.37, 83.33 40.62, 76.54 38.75 M86.22 29.06 C84.2 35.66, 82.19 38.44, 76.54 38.75 M76.54 38.75 C56.06 38.34, 31.35 39.12, 9.69 38.75 M76.54 38.75 C52.33 37.94, 28.01 38.66, 9.69 38.75 M9.69 38.75 C4.86 39.94, -0.86 34.97, 0 29.06 M9.69 38.75 C3.67 37.38, 0.69 35.35, 0 29.06 M0 29.06 C-1.25 21.51, -0.63 18.3, 0 9.69 M0 29.06 C0.05 23.87, -0.54 17.16, 0 9.69 M0 9.69 C-0.25 4.33, 4.06 1.16, 9.69 0 M0 9.69 C-0.98 1.91, 2.71 0.37, 9.69 0" stroke="#1e1e1e" stroke-width="1" fill="none"></path></g><g transform="translate(501.53959831827115 225.409257785641) rotate(0 18.75 9.600000000000023)"><text x="18.75" y="0" font-family="Cascadia, Segoe UI Emoji" font-size="16px" fill="#1e1e1e" text-anchor="middle" style="white-space: pre;" direction="ltr" dominant-baseline="text-before-edge">Auth</text></g><g transform="translate(1323.3857058654107 307.1351508090395) rotate(0 18.75 9.600000000000023)"><text x="0" y="0" font-family="Cascadia, Segoe UI Emoji" font-size="16px" fill="#868e96" text-anchor="start" style="white-space: pre;" direction="ltr" dominant-baseline="text-before-edge">SMTP</text></g><g transform="translate(1134.348573076914 10) rotate(0 24.4482421875 12)"><text x="0" y="0" font-family="Cascadia, Segoe UI Emoji" font-size="20px" fill="#868e96" text-anchor="start" style="white-space: pre;" direction="ltr" dominant-baseline="text-before-edge">REST</text></g><g transform="translate(1127.3304520371453 615.6720542011576) rotate(0 24.4482421875 12)"><text x="0" y="0" font-family="Cascadia, Segoe UI Emoji" font-size="20px" fill="#868e96" text-anchor="start" style="white-space: pre;" direction="ltr" dominant-baseline="text-before-edge">REST</text></g><g transform="translate(1130.5448693511794 507.4890461919945) rotate(0 24.4482421875 12)"><text x="0" y="0" font-family="Cascadia, Segoe UI Emoji" font-size="20px" fill="#868e96" text-anchor="start" style="white-space: pre;" direction="ltr" dominant-baseline="text-before-edge">REST</text></g><g stroke-linecap="round" transform="translate(1136.8869337949268 146.49681627401696) rotate(0 74.5 34)"><path d="M17 0 C41.34 -2.32, 66.17 -0.12, 132 0 C143.37 2.2, 146.88 4.97, 149 17 C146.53 27.38, 145.83 30.07, 149 51 C152.35 62.86, 145.83 64.73, 132 68 C86.64 67.32, 48.46 67.74, 17 68 C5.71 68.21, -3.19 62.47, 0 51 C-0.66 40.71, 3.19 27.44, 0 17 C-3.43 7.07, 3.69 1.15, 17 0" stroke="none" stroke-width="0" fill="#fa5252"></path><path d="M17 0 C62.05 1.82, 110.1 1.59, 132 0 M17 0 C40.22 0.43, 63.76 -0.69, 132 0 M132 0 C142.54 -0.76, 148.66 7.05, 149 17 M132 0 C141.33 -0.21, 150.03 3.64, 149 17 M149 17 C147.9 27.11, 148.47 35.95, 149 51 M149 17 C150.1 28.63, 149.42 39.11, 149 51 M149 51 C150.91 60.65, 141.6 67.49, 132 68 M149 51 C149.63 61.87, 142.9 67.08, 132 68 M132 68 C108 65.97, 84.26 65.42, 17 68 M132 68 C97.93 67.2, 62.39 68.07, 17 68 M17 68 C5.3 67.94, 1.09 61.82, 0 51 M17 68 C3.86 68.48, -1.64 61.19, 0 51 M0 51 C1.75 36.81, -0.47 24.87, 0 17 M0 51 C-0.58 38, -0.76 24.86, 0 17 M0 17 C-0.35 5.28, 4.63 0.66, 17 0 M0 17 C0.73 6.74, 4.28 -0.78, 17 0" stroke="#1e1e1e" stroke-width="1" fill="none"></path></g><g transform="translate(1178.5744337949268 170.89681627401706) rotate(0 32.8125 9.600000000000023)"><text x="32.8125" y="0" font-family="Cascadia, Segoe UI Emoji" font-size="16px" fill="#1e1e1e" text-anchor="middle" style="white-space: pre;" direction="ltr" dominant-baseline="text-before-edge">Caching</text></g><g transform="translate(1146.6040170484216 125.12468253776626) rotate(0 18.22265625 9.600000000000023)"><text x="0" y="0" font-family="Cascadia, Segoe UI Emoji" font-size="16px" fill="#868e96" text-anchor="start" style="white-space: pre;" direction="ltr" dominant-baseline="text-before-edge">Redis</text></g><g stroke-linecap="round"><g transform="translate(1122.737023936927 182.0631415496946) rotate(0 -62.83048087312727 -28.074043325049843)"><path d="M-0.16 1.04 C-20.81 -8.09, -103.93 -46.08, -124.96 -55.68 M-1.71 0.54 C-22.36 -8.88, -105.19 -48.23, -125.55 -57.56" stroke="#868e96" stroke-width="1" fill="none"></path></g><g transform="translate(1122.737023936927 182.0631415496946) rotate(0 -62.83048087312727 -28.074043325049843)"><path d="M-30.07 -1.26 C-22.06 0.42, -16.73 -1.43, -0.16 1.04 M-30.07 -1.26 C-22.71 -1.45, -13.8 0.22, -0.16 1.04" stroke="#868e96" stroke-width="1" fill="none"></path></g><g transform="translate(1122.737023936927 182.0631415496946) rotate(0 -62.83048087312727 -28.074043325049843)"><path d="M-21.59 -19.95 C-15.5 -14.35, -11.95 -12.27, -0.16 1.04 M-21.59 -19.95 C-16.35 -15.15, -9.7 -8.48, -0.16 1.04" stroke="#868e96" stroke-width="1" fill="none"></path></g><g transform="translate(1122.737023936927 182.0631415496946) rotate(0 -62.83048087312727 -28.074043325049843)"><path d="M-95.66 -54.91 C-100.19 -54.35, -107.44 -57.25, -125.55 -57.56 M-95.66 -54.91 C-104.31 -56.4, -111.35 -56.05, -125.55 -57.56" stroke="#868e96" stroke-width="1" fill="none"></path></g><g transform="translate(1122.737023936927 182.0631415496946) rotate(0 -62.83048087312727 -28.074043325049843)"><path d="M-104.36 -36.32 C-106.92 -39.66, -112.34 -46.47, -125.55 -57.56 M-104.36 -36.32 C-110.82 -42.78, -115.55 -47.39, -125.55 -57.56" stroke="#868e96" stroke-width="1" fill="none"></path></g></g><mask></mask><g stroke-linecap="round"><g transform="translate(995.5560066879475 112.00234650919003) rotate(0 60.85937667454891 -19.21582572368004)"><path d="M0.56 1.09 C21.07 -5.47, 102.51 -31.42, 122.54 -38.18 M-0.6 0.62 C19.87 -5.82, 101.4 -33.62, 122.02 -40.17" stroke="#868e96" stroke-width="1" fill="none"></path></g><g transform="translate(995.5560066879475 112.00234650919003) rotate(0 60.85937667454891 -19.21582572368004)"><path d="M24.28 -17.28 C20.19 -11.08, 12.71 -9.32, 0.56 1.09 M24.28 -17.28 C19.15 -13.17, 13.66 -9.58, 0.56 1.09" stroke="#868e96" stroke-width="1" fill="none"></path></g><g transform="translate(995.5560066879475 112.00234650919003) rotate(0 60.85937667454891 -19.21582572368004)"><path d="M30.54 2.26 C24.65 3.47, 15.56 0.22, 0.56 1.09 M30.54 2.26 C24.15 2.19, 17.32 1.57, 0.56 1.09" stroke="#868e96" stroke-width="1" fill="none"></path></g><g transform="translate(995.5560066879475 112.00234650919003) rotate(0 60.85937667454891 -19.21582572368004)"><path d="M98.48 -21.58 C106.16 -25.09, 110.8 -32.81, 122.02 -40.17 M98.48 -21.58 C103.7 -25.62, 108.38 -29.99, 122.02 -40.17" stroke="#868e96" stroke-width="1" fill="none"></path></g><g transform="translate(995.5560066879475 112.00234650919003) rotate(0 60.85937667454891 -19.21582572368004)"><path d="M92.04 -41.07 C101.56 -39.61, 107.86 -42.33, 122.02 -40.17 M92.04 -41.07 C98.55 -40.93, 104.62 -41.11, 122.02 -40.17" stroke="#868e96" stroke-width="1" fill="none"></path></g></g><mask></mask></svg>