<svg version="1.1" xmlns="http://www.w3.org/2000/svg" viewBox="0 0 2181.326546834888 744.0414507917403" width="6543.9796405046645" height="2232.124352375221">
  <!-- svg-source:excalidraw -->
  
  <defs>
    <style class="style-fonts">
      @font-face {
        font-family: "Virgil";
        src: url("https://excalidraw.com/Virgil.woff2");
      }
      @font-face {
        font-family: "Cascadia";
        src: url("https://excalidraw.com/Cascadia.woff2");
      }
      @font-face {
        font-family: "Assistant";
        src: url("https://excalidraw.com/Assistant-Regular.woff2");
      }
    </style>
    
  </defs>
  <rect x="0" y="0" width="2181.326546834888" height="744.0414507917403" fill="#f5faff"></rect><g stroke-linecap="round" transform="translate(292 269.51943080273935) rotate(0 74.5 34)"><path d="M17 0 C49.89 -2.22, 83.16 0.71, 132 0 M17 0 C57.68 -0.73, 99.47 -0.29, 132 0 M132 0 C141.82 -0.03, 149.29 6.91, 149 17 M132 0 C144.44 0.73, 147.57 6.73, 149 17 M149 17 C148.15 27.19, 150.42 38.47, 149 51 M149 17 C148.61 24.99, 149.86 33.91, 149 51 M149 51 C148.44 61.36, 145.2 68.05, 132 68 M149 51 C150 62.81, 143.84 67.39, 132 68 M132 68 C87.19 69.43, 45.31 69.84, 17 68 M132 68 C104.52 68.1, 77.18 66.77, 17 68 M17 68 C5.21 69.63, -1.19 61.91, 0 51 M17 68 C5.79 70.04, 1.48 60.07, 0 51 M0 51 C0.25 37.33, 0.62 25.7, 0 17 M0 51 C-0.01 37.81, 0.5 24.35, 0 17 M0 17 C-0.15 6.76, 5.94 0.86, 17 0 M0 17 C1.48 3.51, 4.21 -1.16, 17 0" stroke="#1e1e1e" stroke-width="2" fill="none"></path></g><g transform="translate(302.046875 291.51943080273935) rotate(0 64.453125 12)"><text x="64.453125" y="0" font-family="Cascadia, Segoe UI Emoji" font-size="20px" fill="#1e1e1e" text-anchor="middle" style="white-space: pre;" direction="ltr" dominant-baseline="text-before-edge">API Gateway</text></g><g transform="translate(10 146.51943080273935) rotate(0 35.15625 12)"><text x="0" y="0" font-family="Cascadia, Segoe UI Emoji" font-size="20px" fill="#1e1e1e" text-anchor="start" style="white-space: pre;" direction="ltr" dominant-baseline="text-before-edge">Client</text></g><g transform="translate(139.84375 233.51943080273935) rotate(0 23.4375 12)"><text x="0" y="0" font-family="Cascadia, Segoe UI Emoji" font-size="20px" fill="#1e1e1e" text-anchor="start" style="white-space: pre;" direction="ltr" dominant-baseline="text-before-edge">http</text></g><g stroke-linecap="round"><g transform="translate(81.86380699271385 180.39837035181836) rotate(0 24.545085007700678 21.817853340178402)"><path d="M-0.2 -0.18 C7.91 7.05, 40 36.32, 48.32 43.73 M-1.76 -1.32 C6.75 6.09, 42.11 38.05, 50.63 45.32" stroke="#1e1e1e" stroke-width="1" fill="none"></path></g><g transform="translate(81.86380699271385 180.39837035181836) rotate(0 24.545085007700678 21.817853340178402)"><path d="M22.7 34.36 C30.08 36.13, 38.19 41.5, 50.63 45.32 M22.7 34.36 C33.05 38.17, 43.09 41.52, 50.63 45.32" stroke="#1e1e1e" stroke-width="1" fill="none"></path></g><g transform="translate(81.86380699271385 180.39837035181836) rotate(0 24.545085007700678 21.817853340178402)"><path d="M36.28 18.98 C39.98 24.93, 44.38 34.51, 50.63 45.32 M36.28 18.98 C41.78 28.35, 46.98 37.17, 50.63 45.32" stroke="#1e1e1e" stroke-width="1" fill="none"></path></g></g><mask></mask><g stroke-linecap="round"><g transform="translate(192.02134951438194 257.0891614720542) rotate(0 46.48932524280903 25.36489773812002)"><path d="M0 0 C15.5 8.45, 77.48 42.27, 92.98 50.73 M0 0 C15.5 8.45, 77.48 42.27, 92.98 50.73" stroke="#1e1e1e" stroke-width="1" fill="none"></path></g><g transform="translate(192.02134951438194 257.0891614720542) rotate(0 46.48932524280903 25.36489773812002)"><path d="M63.32 46.23 C74.83 47.98, 86.35 49.73, 92.98 50.73 M63.32 46.23 C72.85 47.68, 82.39 49.12, 92.98 50.73" stroke="#1e1e1e" stroke-width="1" fill="none"></path></g><g transform="translate(192.02134951438194 257.0891614720542) rotate(0 46.48932524280903 25.36489773812002)"><path d="M73.15 28.22 C80.85 36.96, 88.55 45.7, 92.98 50.73 M73.15 28.22 C79.52 35.46, 85.9 42.69, 92.98 50.73" stroke="#1e1e1e" stroke-width="1" fill="none"></path></g></g><mask></mask><g stroke-linecap="round" transform="translate(501.5 124.51943080273935) rotate(0 74.5 34)"><path d="M17 0 C60.67 1.84, 111.24 -0.79, 132 0 C140.83 -3.14, 149.57 6.17, 149 17 C146.65 26.56, 149.46 42.54, 149 51 C151.94 65.32, 141.39 65.64, 132 68 C92.72 66.18, 56.85 63.21, 17 68 C6.48 66.32, -0.44 64.47, 0 51 C2.06 38.07, 2.05 24.73, 0 17 C1.22 3.12, 7.36 2.35, 17 0" stroke="none" stroke-width="0" fill="#ffc9c9"></path><path d="M17 0 C62.63 -0.06, 106.91 1.16, 132 0 M17 0 C54.7 1.12, 91.84 -0.14, 132 0 M132 0 C145.05 -1.04, 149.24 7.05, 149 17 M132 0 C144.23 -1.47, 148.47 7.54, 149 17 M149 17 C150.7 26.46, 146.96 35.01, 149 51 M149 17 C148.53 26.84, 149.23 36.97, 149 51 M149 51 C148.75 63.81, 143.23 67.72, 132 68 M149 51 C150.04 61.07, 143.16 69.26, 132 68 M132 68 C94.07 67.47, 58.9 67.05, 17 68 M132 68 C92.69 68.42, 55.77 68.27, 17 68 M17 68 C4.48 69.95, 1.34 62.28, 0 51 M17 68 C7.63 68.24, 2.27 60.2, 0 51 M0 51 C0.14 42.56, 0.89 32.12, 0 17 M0 51 C0.26 42.42, 1.03 36.45, 0 17 M0 17 C0.63 5.1, 6.18 0.74, 17 0 M0 17 C-1.47 7.47, 3.83 0.61, 17 0" stroke="#1e1e1e" stroke-width="2" fill="none"></path></g><g transform="translate(519.75 148.91943080273933) rotate(0 56.25 9.599999999999994)"><text x="56.25" y="0" font-family="Cascadia, Segoe UI Emoji" font-size="16px" fill="#1e1e1e" text-anchor="middle" style="white-space: pre;" direction="ltr" dominant-baseline="text-before-edge">User Service</text></g><g stroke-linecap="round" transform="translate(965.3080152839727 24.9436116942654) rotate(0 74.5 34)"><path d="M17 0 C60.58 -1.93, 104.95 2.24, 132 0 C140.05 0.34, 146.85 5.59, 149 17 C151.74 23.88, 151.24 31.46, 149 51 C149.2 58.88, 141.66 71.47, 132 68 C98.52 68.96, 57.81 72.93, 17 68 C4.44 69.96, -2.31 65.45, 0 51 C2.48 43.13, 1.79 36.11, 0 17 C2.55 3.56, 7.5 3.04, 17 0" stroke="none" stroke-width="0" fill="#b2f2bb"></path><path d="M17 0 C42.94 1.98, 71.76 1.58, 132 0 M17 0 C50.26 -0.84, 83.21 0.17, 132 0 M132 0 C143.45 0.9, 147.38 6.31, 149 17 M132 0 C145.55 -0.88, 149.14 5.69, 149 17 M149 17 C150.16 25.36, 147.85 31.72, 149 51 M149 17 C148.39 24.87, 149.37 34.25, 149 51 M149 51 C148.75 60.76, 142.96 68.23, 132 68 M149 51 C149.41 60.95, 144.41 68.18, 132 68 M132 68 C90.64 68.33, 50.44 65.5, 17 68 M132 68 C107.6 67.88, 81.29 69.26, 17 68 M17 68 C5.7 69.19, -0.47 60.96, 0 51 M17 68 C7.77 70.07, -0.38 63.84, 0 51 M0 51 C-0.03 43.65, -1.01 33.42, 0 17 M0 51 C0.95 40.17, -0.73 30.22, 0 17 M0 17 C-1.88 6.13, 5.87 -0.05, 17 0 M0 17 C-1.39 7.78, 6.23 -0.93, 17 0" stroke="#1e1e1e" stroke-width="2" fill="none"></path></g><g transform="translate(1002.3080152839727 39.74361169426541) rotate(0 37.5 19.200000000000003)"><text x="37.5" y="0" font-family="Cascadia, Segoe UI Emoji" font-size="16px" fill="#1e1e1e" text-anchor="middle" style="white-space: pre;" direction="ltr" dominant-baseline="text-before-edge">Merchant</text><text x="37.5" y="19.2" font-family="Cascadia, Segoe UI Emoji" font-size="16px" fill="#1e1e1e" text-anchor="middle" style="white-space: pre;" direction="ltr" dominant-baseline="text-before-edge">Table</text></g><g stroke-linecap="round" transform="translate(956.210127385928 122.84572379622091) rotate(0 74.5 34)"><path d="M17 0 C58.32 1.44, 104.94 -1.91, 132 0 C141.93 0.92, 148.67 4.96, 149 17 C148.31 29.46, 150 36.71, 149 51 C150.24 61.43, 141.13 65.19, 132 68 C99.46 68.36, 73.58 66.06, 17 68 C2.18 65.49, -3.38 61.21, 0 51 C-2.18 45.61, 0.3 32.92, 0 17 C3.09 4.2, 6.48 0.28, 17 0" stroke="none" stroke-width="0" fill="#b2f2bb"></path><path d="M17 0 C57.54 -0.73, 98.5 2.33, 132 0 M17 0 C50.87 1.44, 82.6 1.58, 132 0 M132 0 C144.26 -1.69, 147.21 5.54, 149 17 M132 0 C142.96 -2.07, 149.97 7.1, 149 17 M149 17 C150.02 26.9, 150.18 35.71, 149 51 M149 17 C149.03 25.6, 149.27 32.94, 149 51 M149 51 C149.08 62.02, 142.11 68.81, 132 68 M149 51 C147.23 64.41, 144.16 67.15, 132 68 M132 68 C100 70.46, 69.55 71.01, 17 68 M132 68 C90.44 69.08, 49.26 68.64, 17 68 M17 68 C7.11 68.4, 0.59 61.28, 0 51 M17 68 C7.64 67.81, -1.88 62.8, 0 51 M0 51 C1.49 43.79, -0.37 35.63, 0 17 M0 51 C0.71 43.03, 0.89 35.1, 0 17 M0 17 C-1.73 4.57, 3.8 0.67, 17 0 M0 17 C2.05 5.69, 6.35 -0.98, 17 0" stroke="#1e1e1e" stroke-width="2" fill="none"></path></g><g transform="translate(1002.585127385928 137.64572379622092) rotate(0 28.125 19.19999999999999)"><text x="28.125" y="0" font-family="Cascadia, Segoe UI Emoji" font-size="16px" fill="#1e1e1e" text-anchor="middle" style="white-space: pre;" direction="ltr" dominant-baseline="text-before-edge">Driver</text><text x="28.125" y="19.2" font-family="Cascadia, Segoe UI Emoji" font-size="16px" fill="#1e1e1e" text-anchor="middle" style="white-space: pre;" direction="ltr" dominant-baseline="text-before-edge">Table</text></g><g stroke-linecap="round" transform="translate(960.1448687872316 226.55206010208747) rotate(0 74.5 34)"><path d="M17 0 C53.55 2.29, 84.75 0.1, 132 0 C141.38 -1.56, 147.04 8.38, 149 17 C152.25 22.96, 148.23 33.6, 149 51 C146 62.36, 145.72 69.99, 132 68 C102.01 69.15, 78.06 68.06, 17 68 C6.01 68.04, -3.02 60.56, 0 51 C-1.56 41.67, 2.27 25.96, 0 17 C-3.45 2.2, 8.3 2.43, 17 0" stroke="none" stroke-width="0" fill="#b2f2bb"></path><path d="M17 0 C60.27 1.3, 109.06 0.65, 132 0 M17 0 C54.25 -0.88, 92.28 -0.48, 132 0 M132 0 C144.19 -1.07, 148.22 6.18, 149 17 M132 0 C143.12 -0.45, 149.58 4.68, 149 17 M149 17 C149.66 26.47, 149.65 38.09, 149 51 M149 17 C149.49 25.38, 148.1 33.2, 149 51 M149 51 C150.14 60.96, 141.4 66.61, 132 68 M149 51 C146.84 61.62, 141.51 66.77, 132 68 M132 68 C88.11 66.97, 45.97 67.86, 17 68 M132 68 C95.27 67.09, 58.18 68.29, 17 68 M17 68 C7.15 68.15, -1.08 62.05, 0 51 M17 68 C6.4 66.32, -1.02 61.83, 0 51 M0 51 C1.93 39.39, 1.31 26.16, 0 17 M0 51 C0.55 40.01, 0.29 27.65, 0 17 M0 17 C1.54 7.15, 4.68 0.07, 17 0 M0 17 C-0.51 5.87, 4.64 -0.47, 17 0" stroke="#1e1e1e" stroke-width="2" fill="none"></path></g><g transform="translate(997.1448687872316 241.35206010208748) rotate(0 37.5 19.19999999999999)"><text x="37.5" y="0" font-family="Cascadia, Segoe UI Emoji" font-size="16px" fill="#1e1e1e" text-anchor="middle" style="white-space: pre;" direction="ltr" dominant-baseline="text-before-edge">Customer</text><text x="37.5" y="19.2" font-family="Cascadia, Segoe UI Emoji" font-size="16px" fill="#1e1e1e" text-anchor="middle" style="white-space: pre;" direction="ltr" dominant-baseline="text-before-edge">Table</text></g><g stroke-linecap="round"><g transform="translate(387 262.51943080273935) rotate(0 53 -53.8313695291892)"><path d="M0.81 0.9 C7.06 -12.99, 18.68 -64.35, 36.36 -82.5 C54.03 -100.66, 95.14 -103.8, 106.86 -108.04 M-0.22 0.33 C6 -14, 17.8 -66.49, 35.6 -84.37 C53.39 -102.24, 94.6 -103.15, 106.54 -106.92" stroke="#1e1e1e" stroke-width="1" fill="none"></path></g><g transform="translate(387 262.51943080273935) rotate(0 53 -53.8313695291892)"><path d="M80.66 -91.75 C87.33 -94.42, 91.91 -96.68, 106.54 -106.92 M80.66 -91.75 C88.11 -96.09, 94.86 -99.08, 106.54 -106.92" stroke="#1e1e1e" stroke-width="1" fill="none"></path></g><g transform="translate(387 262.51943080273935) rotate(0 53 -53.8313695291892)"><path d="M76.96 -111.93 C84.53 -110.52, 89.87 -108.67, 106.54 -106.92 M76.96 -111.93 C85.51 -110.85, 93.26 -108.42, 106.54 -106.92" stroke="#1e1e1e" stroke-width="1" fill="none"></path></g></g><mask></mask><g stroke-linecap="round" transform="translate(710.476035670399 131.80740787678081) rotate(0 71.76773630469705 32.01150827979296)"><path d="M16.01 0 C44 0.17, 68.05 -0.1, 127.53 0 C138.26 -0.13, 143.41 2.66, 143.54 16.01 C144.69 27.69, 145.59 39.77, 143.54 48.02 C143.94 56.51, 137.39 61.24, 127.53 64.02 C89.21 62.14, 54.53 61.04, 16.01 64.02 C8.71 61.44, 2.16 61.63, 0 48.02 C2.03 38.33, -2.37 35.06, 0 16.01 C-0.33 4.11, 6.05 1.89, 16.01 0" stroke="none" stroke-width="0" fill="#ffec99"></path><path d="M16.01 0 C50.37 -0.08, 81.12 0.11, 127.53 0 M16.01 0 C39.08 -0.67, 61.79 -0.54, 127.53 0 M127.53 0 C137.69 -0.19, 143.6 6.46, 143.54 16.01 M127.53 0 C136.21 -2.09, 145.31 5.5, 143.54 16.01 M143.54 16.01 C143.31 27.28, 142.75 35.39, 143.54 48.02 M143.54 16.01 C143.57 27.4, 142.79 38.04, 143.54 48.02 M143.54 48.02 C145.24 60.41, 138.28 63.85, 127.53 64.02 M143.54 48.02 C141.25 58.52, 139.72 65.08, 127.53 64.02 M127.53 64.02 C100.28 64.28, 72.62 63.28, 16.01 64.02 M127.53 64.02 C98.94 65.58, 72.32 65.14, 16.01 64.02 M16.01 64.02 C5.1 62.17, 1.07 59.05, 0 48.02 M16.01 64.02 C3.59 65.75, 0.36 59.26, 0 48.02 M0 48.02 C0.33 41.36, -1.2 32.73, 0 16.01 M0 48.02 C-0.33 39.08, -0.71 28.89, 0 16.01 M0 16.01 C-1.13 7.27, 5.27 1.69, 16.01 0 M0 16.01 C1.93 6.28, 4.17 -0.07, 16.01 0" stroke="#1e1e1e" stroke-width="1" fill="none"></path></g><g transform="translate(749.4312719750961 154.21891615657375) rotate(0 32.8125 9.599999999999994)"><text x="32.8125" y="0" font-family="Cascadia, Segoe UI Emoji" font-size="16px" fill="#1e1e1e" text-anchor="middle" style="white-space: pre;" direction="ltr" dominant-baseline="text-before-edge">User DB</text></g><g stroke-linecap="round" transform="translate(1472.686332028481 36.23433758337413) rotate(0 95.51821018970475 32.52782292946705)"><path d="M16.26 0 C51.52 -1.65, 93.98 4.07, 174.77 0 C182.75 -2.59, 191.23 5.32, 191.04 16.26 C189.64 27.22, 193.02 36.92, 191.04 48.79 C193.01 58.5, 187.38 67.14, 174.77 65.06 C116.74 65.12, 55.9 65.61, 16.26 65.06 C6.1 63.12, -0.1 59.89, 0 48.79 C2.32 44.46, -1.18 31.9, 0 16.26 C-1.55 5.56, 2.82 -2.45, 16.26 0" stroke="none" stroke-width="0" fill="#ffec99"></path><path d="M16.26 0 C71.55 -1.74, 127.14 -2.22, 174.77 0 M16.26 0 C52.05 -1.36, 89.2 -1.1, 174.77 0 M174.77 0 C183.71 1.1, 192.36 5.46, 191.04 16.26 M174.77 0 C187.16 1.42, 193.05 6.53, 191.04 16.26 M191.04 16.26 C189.61 21.19, 189.07 30.5, 191.04 48.79 M191.04 16.26 C191.36 28.46, 191.35 39.49, 191.04 48.79 M191.04 48.79 C189.74 59.24, 186.61 65.38, 174.77 65.06 M191.04 48.79 C189.41 60.61, 184.33 65.4, 174.77 65.06 M174.77 65.06 C135.81 63.16, 98.18 61.66, 16.26 65.06 M174.77 65.06 C143.4 63.34, 111.32 63.6, 16.26 65.06 M16.26 65.06 C7.09 63.82, 0.96 61.23, 0 48.79 M16.26 65.06 C7.12 67.24, 0.4 61.68, 0 48.79 M0 48.79 C-1.92 35.84, -0.52 24.07, 0 16.26 M0 48.79 C-0.82 37.4, -0.91 26.95, 0 16.26 M0 16.26 C-1.12 6.94, 3.5 -1, 16.26 0 M0 16.26 C0.6 6.7, 4.14 1.24, 16.26 0" stroke="#1e1e1e" stroke-width="1" fill="none"></path></g><g transform="translate(1507.267042218186 59.16216051284118) rotate(0 60.9375 9.599999999999994)"><text x="60.9375" y="0" font-family="Cascadia, Segoe UI Emoji" font-size="16px" fill="#1e1e1e" text-anchor="middle" style="white-space: pre;" direction="ltr" dominant-baseline="text-before-edge">Restaurant DB</text></g><g transform="translate(289.2594870767496 245.35997283578212) rotate(0 46.87499999999997 9.599999999999994)"><text x="0" y="0" font-family="Cascadia, Segoe UI Emoji" font-size="16px" fill="#1e1e1e" text-anchor="start" style="white-space: pre;" direction="ltr" dominant-baseline="text-before-edge">Echo, REST</text></g><g transform="translate(557.4842267551383 100.52219259046922) rotate(0 18.75 9.599999999999994)"><text x="0" y="0" font-family="Cascadia, Segoe UI Emoji" font-size="16px" fill="#1e1e1e" text-anchor="start" style="white-space: pre;" direction="ltr" dominant-baseline="text-before-edge">gRPC</text></g><g stroke-linecap="round" transform="translate(989.5381415478489 575.3271120237157) rotate(0 75.01631464967409 30.335654462364857)"><path d="M15.17 0 C49.68 1.76, 80.38 -0.99, 134.86 0 C141.74 2.24, 152.31 3.85, 150.03 15.17 C149.73 24.93, 151.9 39.89, 150.03 45.5 C147.52 56.98, 148.56 59.76, 134.86 60.67 C100.24 61.67, 61.96 60.48, 15.17 60.67 C2.37 63.64, -3.1 58, 0 45.5 C-1.61 34.19, -1.64 30.35, 0 15.17 C2.93 5.39, 4.39 2.39, 15.17 0" stroke="none" stroke-width="0" fill="#a5d8ff"></path><path d="M15.17 0 C45.68 -1.44, 79.89 2.19, 134.86 0 M15.17 0 C57.06 0.94, 99.97 1.15, 134.86 0 M134.86 0 C145.14 0.76, 151.72 3.8, 150.03 15.17 M134.86 0 C146.63 0.54, 151.61 3.29, 150.03 15.17 M150.03 15.17 C149.42 26.46, 150.53 35.62, 150.03 45.5 M150.03 15.17 C149.83 25.86, 149.28 34.64, 150.03 45.5 M150.03 45.5 C150.83 55.2, 143.3 59.55, 134.86 60.67 M150.03 45.5 C149.7 57, 143.79 62.65, 134.86 60.67 M134.86 60.67 C97.76 61.31, 55.8 60.43, 15.17 60.67 M134.86 60.67 C108.8 60.63, 80.29 59.65, 15.17 60.67 M15.17 60.67 C3.97 61.92, -1.57 55.38, 0 45.5 M15.17 60.67 C6.91 62.95, 0.48 57.68, 0 45.5 M0 45.5 C-0.78 37.45, 1.74 31.85, 0 15.17 M0 45.5 C-0.36 34.5, -0.58 21.41, 0 15.17 M0 15.17 C-1.89 3.94, 5.87 0.49, 15.17 0 M0 15.17 C2.07 6.46, 6.05 2.11, 15.17 0" stroke="#1e1e1e" stroke-width="2" fill="none"></path></g><g transform="translate(1008.3044561975232 586.4627664860807) rotate(0 56.25 19.19999999999999)"><text x="56.25" y="0" font-family="Cascadia, Segoe UI Emoji" font-size="16px" fill="#1e1e1e" text-anchor="middle" style="white-space: pre;" direction="ltr" dominant-baseline="text-before-edge">Google Maps </text><text x="56.25" y="19.2" font-family="Cascadia, Segoe UI Emoji" font-size="16px" fill="#1e1e1e" text-anchor="middle" style="white-space: pre;" direction="ltr" dominant-baseline="text-before-edge">API</text></g><g stroke-linecap="round" transform="translate(1697.1859034562876 392.6768163766961) rotate(0 75.01631464967409 34)"><path d="M17 0 C63.97 0.08, 107.01 -2.78, 133.03 0 C141.12 -1.06, 152.67 7.93, 150.03 17 C147.45 26.13, 150.88 44.03, 150.03 51 C153.04 59.5, 144.19 65.46, 133.03 68 C102.97 66.32, 65.09 68.48, 17 68 C8.32 67.24, -2.88 62.32, 0 51 C2.64 42.73, -3.31 27.91, 0 17 C1.41 7.01, 5.56 -2.75, 17 0" stroke="none" stroke-width="0" fill="#ffc9c9"></path><path d="M17 0 C60.6 0.49, 104.49 -1.29, 133.03 0 M17 0 C47.03 -0.9, 77.13 -0.18, 133.03 0 M133.03 0 C146.24 -1.5, 151.24 7.47, 150.03 17 M133.03 0 C143.33 -1.96, 151.5 5.17, 150.03 17 M150.03 17 C151.64 31.32, 150.04 43.8, 150.03 51 M150.03 17 C149.82 29.06, 149.26 39.23, 150.03 51 M150.03 51 C150.24 62.71, 143.73 69.53, 133.03 68 M150.03 51 C152.08 63.5, 142.51 70.21, 133.03 68 M133.03 68 C88.76 69.25, 44.02 67.41, 17 68 M133.03 68 C105.09 67.84, 78.04 67.45, 17 68 M17 68 C7.09 69.07, -1.77 60.76, 0 51 M17 68 C7.47 66.02, 1.66 61.53, 0 51 M0 51 C-1.49 41.86, -0.04 35.09, 0 17 M0 51 C0.21 41.81, -0.3 31.54, 0 17 M0 17 C0.22 5.69, 5.53 -0.2, 17 0 M0 17 C0.59 4.03, 6.93 -1.4, 17 0" stroke="#1e1e1e" stroke-width="2" fill="none"></path></g><g transform="translate(1715.9522181059617 417.07681637669606) rotate(0 56.25 9.600000000000023)"><text x="56.25" y="0" font-family="Cascadia, Segoe UI Emoji" font-size="16px" fill="#1e1e1e" text-anchor="middle" style="white-space: pre;" direction="ltr" dominant-baseline="text-before-edge">Mail Service</text></g><g stroke-linecap="round" transform="translate(467.65745987664945 530.4790843036596) rotate(0 74.5 34)"><path d="M17 0 C46.21 -5.1, 78.83 1.73, 132 0 C140.75 1.42, 148.61 3.68, 149 17 C148.88 23.42, 151.11 36.77, 149 51 C150.22 61.87, 143.7 69.33, 132 68 C99.64 67.27, 68.3 69.97, 17 68 C4.24 65.26, -2.9 58.89, 0 51 C-1.64 43.36, -0.77 31.49, 0 17 C-1.85 7.63, 4.41 1.56, 17 0" stroke="none" stroke-width="0" fill="#ffc9c9"></path><path d="M17 0 C39.62 -1.33, 61.26 0.18, 132 0 M17 0 C55.85 0.89, 95.67 1.94, 132 0 M132 0 C142.68 1.13, 148.44 4.72, 149 17 M132 0 C141.42 -1.07, 146.88 4.83, 149 17 M149 17 C148.81 23.37, 150.63 30.95, 149 51 M149 17 C149.65 27.44, 149.4 39.24, 149 51 M149 51 C149.31 63.35, 142.81 68.46, 132 68 M149 51 C148.94 61.74, 143.83 67.89, 132 68 M132 68 C88.8 68.53, 46.51 67.45, 17 68 M132 68 C92.97 69.31, 52.31 68.27, 17 68 M17 68 C6.62 66.76, -1.82 62.14, 0 51 M17 68 C4.02 68.01, 1.8 60.9, 0 51 M0 51 C0.79 38.5, 0.32 29.77, 0 17 M0 51 C0.93 38.94, 0.64 27.67, 0 17 M0 17 C0.09 4.12, 3.98 -0.93, 17 0 M0 17 C-1.95 6.93, 6.1 -0.72, 17 0" stroke="#1e1e1e" stroke-width="2" fill="none"></path></g><g transform="translate(481.21995987664945 554.8790843036597) rotate(0 60.9375 9.600000000000023)"><text x="60.9375" y="0" font-family="Cascadia, Segoe UI Emoji" font-size="16px" fill="#1e1e1e" text-anchor="middle" style="white-space: pre;" direction="ltr" dominant-baseline="text-before-edge">Order Service</text></g><g transform="translate(521.342201277953 508.41076583299247) rotate(0 18.75 9.600000000000023)"><text x="0" y="0" font-family="Cascadia, Segoe UI Emoji" font-size="16px" fill="#1e1e1e" text-anchor="start" style="white-space: pre;" direction="ltr" dominant-baseline="text-before-edge">gRPC</text></g><g stroke-linecap="round"><g transform="translate(377.9694012802919 344.52904354250165) rotate(0 46.66758852517057 89.95247770600079)"><path d="M0.1 -0.17 C1.89 12.54, -4.19 46.37, 11.17 76.25 C26.54 106.14, 78.5 161.8, 92.27 179.13 M-1.31 -1.31 C0.27 11.51, -5.86 46.94, 10.13 77.16 C26.12 107.39, 80.57 162.65, 94.61 180.04" stroke="#1e1e1e" stroke-width="1" fill="none"></path></g><g transform="translate(377.9694012802919 344.52904354250165) rotate(0 46.66758852517057 89.95247770600079)"><path d="M68.23 165.74 C76.74 170.18, 83.85 173.49, 94.61 180.04 M68.23 165.74 C74.36 170.01, 80.48 171.4, 94.61 180.04" stroke="#1e1e1e" stroke-width="1" fill="none"></path></g><g transform="translate(377.9694012802919 344.52904354250165) rotate(0 46.66758852517057 89.95247770600079)"><path d="M83.6 152.13 C86.97 161.13, 88.95 168.99, 94.61 180.04 M83.6 152.13 C86.16 159.64, 88.67 164.24, 94.61 180.04" stroke="#1e1e1e" stroke-width="1" fill="none"></path></g></g><mask></mask><g stroke-linecap="round"><g transform="translate(655.746682804946 160.72102825852915) rotate(0 25.815732483703982 2.0652585986963174)"><path d="M0.4 0.11 C8.77 0.82, 41.86 3.84, 50.56 4.56 M-0.85 -0.88 C7.85 -0.57, 43.85 1.54, 52.72 2.66" stroke="#1e1e1e" stroke-width="1" fill="none"></path></g><g transform="translate(655.746682804946 160.72102825852915) rotate(0 25.815732483703982 2.0652585986963174)"><path d="M27.71 9.38 C36.09 5.31, 44.83 6.49, 52.72 2.66 M27.71 9.38 C36.28 7.86, 44.8 5.66, 52.72 2.66" stroke="#1e1e1e" stroke-width="1" fill="none"></path></g><g transform="translate(655.746682804946 160.72102825852915) rotate(0 25.815732483703982 2.0652585986963174)"><path d="M29.23 -8.27 C37.16 -6.54, 45.4 0.44, 52.72 2.66 M29.23 -8.27 C37.19 -4.12, 45.22 -0.65, 52.72 2.66" stroke="#1e1e1e" stroke-width="1" fill="none"></path></g></g><mask></mask><g stroke-linecap="round"><g transform="translate(860.2072840758817 159.68839895918092) rotate(0 49.04989171903776 -50.93622189610667)"><path d="M-1.09 0.4 C2.94 -15.03, 7.32 -75.05, 23.8 -92.17 C40.28 -109.29, 85.48 -100.71, 97.8 -102.33 M0.53 -0.43 C4.96 -16.24, 9.94 -77.08, 26 -93.89 C42.05 -110.69, 84.91 -100.1, 96.87 -101.25" stroke="#1e1e1e" stroke-width="1" fill="none"></path></g><g transform="translate(860.2072840758817 159.68839895918092) rotate(0 49.04989171903776 -50.93622189610667)"><path d="M68.1 -92.74 C76.45 -96.39, 84.76 -97.55, 96.87 -101.25 M68.1 -92.74 C75.21 -95.71, 83.34 -97.02, 96.87 -101.25" stroke="#1e1e1e" stroke-width="1" fill="none"></path></g><g transform="translate(860.2072840758817 159.68839895918092) rotate(0 49.04989171903776 -50.93622189610667)"><path d="M69.36 -113.22 C77.44 -111.4, 85.42 -107.07, 96.87 -101.25 M69.36 -113.22 C76.07 -110.83, 83.88 -106.78, 96.87 -101.25" stroke="#1e1e1e" stroke-width="1" fill="none"></path></g></g><mask></mask><g stroke-linecap="round"><g transform="translate(858.1420254771856 161.75365755787732) rotate(0 47.50094777001527 0.516314649674058)"><path d="M-0.69 0.09 C15.06 0.04, 77.95 0.32, 93.9 0.31 M1.14 -0.9 C17.3 -0.87, 80.51 1.18, 96.03 1.47" stroke="#1e1e1e" stroke-width="1" fill="none"></path></g><g transform="translate(858.1420254771856 161.75365755787732) rotate(0 47.50094777001527 0.516314649674058)"><path d="M67.59 10.99 C74.8 6.94, 80.54 6.46, 96.03 1.47 M67.59 10.99 C73.83 9.96, 79.54 6.87, 96.03 1.47" stroke="#1e1e1e" stroke-width="1" fill="none"></path></g><g transform="translate(858.1420254771856 161.75365755787732) rotate(0 47.50094777001527 0.516314649674058)"><path d="M68.12 -9.52 C75.31 -8.45, 80.92 -3.81, 96.03 1.47 M68.12 -9.52 C74.19 -6.12, 79.79 -4.77, 96.03 1.47" stroke="#1e1e1e" stroke-width="1" fill="none"></path></g></g><mask></mask><g stroke-linecap="round"><g transform="translate(861.2399133752298 159.68839895918092) rotate(0 46.98463312034136 53.69672356610437)"><path d="M0.25 -0.48 C3.54 14.97, 3.82 73.69, 19.53 91.81 C35.23 109.93, 82.02 105.83, 94.49 108.23 M-1.09 -1.78 C2.16 13.43, 3.22 72.17, 19.07 90.18 C34.92 108.2, 81.38 103.57, 94 106.33" stroke="#1e1e1e" stroke-width="1" fill="none"></path></g><g transform="translate(861.2399133752298 159.68839895918092) rotate(0 46.98463312034136 53.69672356610437)"><path d="M65.17 114.62 C72.46 113.82, 82.85 110.82, 94 106.33 M65.17 114.62 C76.07 111.67, 85.68 108.83, 94 106.33" stroke="#1e1e1e" stroke-width="1" fill="none"></path></g><g transform="translate(861.2399133752298 159.68839895918092) rotate(0 46.98463312034136 53.69672356610437)"><path d="M66.59 94.15 C73.33 99.05, 83.33 101.75, 94 106.33 M66.59 94.15 C77.03 98.76, 86.11 103.5, 94 106.33" stroke="#1e1e1e" stroke-width="1" fill="none"></path></g></g><mask></mask><g transform="translate(747.4880178351991 108.7832269852546) rotate(0 37.5 9.599999999999994)"><text x="0" y="0" font-family="Cascadia, Segoe UI Emoji" font-size="16px" fill="#1e1e1e" text-anchor="start" style="white-space: pre;" direction="ltr" dominant-baseline="text-before-edge">Postgres</text></g><g transform="translate(1535.3912859979548 10) rotate(0 37.5 9.599999999999994)"><text x="0" y="0" font-family="Cascadia, Segoe UI Emoji" font-size="16px" fill="#1e1e1e" text-anchor="start" style="white-space: pre;" direction="ltr" dominant-baseline="text-before-edge">Postgres</text></g><g stroke-linecap="round" transform="translate(1232.0706868400716 620.9116980822955) rotate(0 95.51821018970475 32.52782292946705)"><path d="M16.26 0 C50.89 2.1, 91.18 3.25, 174.77 0 C183.73 2.6, 188.46 3.64, 191.04 16.26 C189.04 26.99, 190.96 37.06, 191.04 48.79 C194.1 60.8, 188.5 62.1, 174.77 65.06 C123.47 66.3, 64.77 63.81, 16.26 65.06 C5.44 64.99, -1.99 57.86, 0 48.79 C3.64 38.07, -3.12 31.38, 0 16.26 C-2.41 6.62, 2.03 -1.63, 16.26 0" stroke="none" stroke-width="0" fill="#ffec99"></path><path d="M16.26 0 C74.89 0.02, 133.04 -0.11, 174.77 0 M16.26 0 C53.44 0.18, 90.36 -0.31, 174.77 0 M174.77 0 C183.97 1.12, 191.97 6.09, 191.04 16.26 M174.77 0 C184.31 -1.48, 192.02 6, 191.04 16.26 M191.04 16.26 C190.53 26.89, 192.71 36.68, 191.04 48.79 M191.04 16.26 C190.25 26.6, 191.98 35.28, 191.04 48.79 M191.04 48.79 C189.88 57.79, 187.08 65.91, 174.77 65.06 M191.04 48.79 C188.91 59.73, 184.5 65.42, 174.77 65.06 M174.77 65.06 C120.08 63.21, 66.23 64.98, 16.26 65.06 M174.77 65.06 C126.26 64.32, 78.58 64.23, 16.26 65.06 M16.26 65.06 C5.02 64.67, -0.22 59.42, 0 48.79 M16.26 65.06 C3.15 63.64, -0.22 60.09, 0 48.79 M0 48.79 C2.14 41, 0 35.11, 0 16.26 M0 48.79 C0.78 42.43, -0.08 34.29, 0 16.26 M0 16.26 C-1.1 6.69, 5.15 -1.17, 16.26 0 M0 16.26 C0.67 4.38, 5.57 1.61, 16.26 0" stroke="#1e1e1e" stroke-width="1" fill="none"></path></g><g transform="translate(1276.9912407797765 643.8395210117626) rotate(0 50.59765625 9.600000000000023)"><text x="50.59765625" y="0" font-family="Cascadia, Segoe UI Emoji" font-size="16px" fill="#1e1e1e" text-anchor="middle" style="white-space: pre;" direction="ltr" dominant-baseline="text-before-edge">Transaction DB</text></g><g stroke-linecap="round" transform="translate(1370.9634569092223 282.7482515757286) rotate(0 62.866144545276256 63.35728629953633)"><path d="M6.42 33.41 C6.42 33.41, 6.42 33.41, 6.42 33.41 M6.42 33.41 C6.42 33.41, 6.42 33.41, 6.42 33.41 M4.85 41.32 C13.75 29.98, 24.63 19.43, 31.09 11.13 M4.85 41.32 C12.99 32.42, 20.42 22.55, 31.09 11.13 M2.62 49.98 C10.84 42.37, 16.37 33.14, 40.01 6.96 M2.62 49.98 C15.68 37.27, 27.17 22.8, 40.01 6.96 M1.05 57.88 C16.89 40.2, 32.77 21.36, 48.28 3.55 M1.05 57.88 C16.13 40.67, 33.2 22.24, 48.28 3.55 M0.78 64.28 C15.16 46.52, 31.86 30.5, 55.89 0.89 M0.78 64.28 C13.47 50.52, 25.17 35.98, 55.89 0.89 M1.84 69.17 C20.52 47.29, 37.44 25.39, 60.22 2 M1.84 69.17 C22.27 44.92, 44.43 21.27, 60.22 2 M2.89 74.06 C24.49 46.56, 46.74 24.6, 65.21 2.36 M2.89 74.06 C24.21 51.06, 43.22 27.51, 65.21 2.36 M3.94 78.95 C28.03 49.1, 52.18 22.96, 70.2 2.72 M3.94 78.95 C30.78 47.63, 55.11 17.83, 70.2 2.72 M4.99 83.84 C20.12 64.26, 39.7 46.17, 75.19 3.08 M4.99 83.84 C21.56 64.78, 39.14 43.67, 75.19 3.08 M6.04 88.72 C29.54 64.77, 49.11 37.67, 79.52 4.2 M6.04 88.72 C22.52 70.12, 39.41 49.97, 79.52 4.2 M7.74 92.86 C38.99 58.01, 65.94 23.37, 84.5 4.56 M7.74 92.86 C29.34 67.9, 50.61 41.87, 84.5 4.56 M9.45 96.99 C30.99 73.23, 49.51 52.09, 88.18 6.43 M9.45 96.99 C25.72 78.9, 42.75 61.1, 88.18 6.43 M12.47 99.62 C37.07 68.83, 64.63 39.68, 91.2 9.05 M12.47 99.62 C43.55 63.65, 74.31 28.68, 91.2 9.05 M14.83 102.99 C44.15 69.76, 76.27 33.01, 94.87 10.92 M14.83 102.99 C35.02 78.3, 55.96 55.8, 94.87 10.92 M17.85 105.62 C37.41 82.47, 59.67 58.01, 97.89 13.54 M17.85 105.62 C35.89 84.84, 53.86 64.93, 97.89 13.54 M20.21 109 C35.57 91.03, 52.15 70.96, 100.91 16.17 M20.21 109 C43.64 81.64, 66.17 56.24, 100.91 16.17 M23.23 111.62 C49.69 84.95, 70.33 58.15, 104.58 18.04 M23.23 111.62 C44.82 86.94, 64.98 60.51, 104.58 18.04 M25.6 115 C44.02 94, 63.69 73.5, 107.6 20.66 M25.6 115 C55.29 80.22, 85.4 48.34, 107.6 20.66 M28.61 117.63 C60.46 82.13, 92.67 45.33, 110.62 23.29 M28.61 117.63 C53.85 88.28, 81.47 57.82, 110.62 23.29 M32.95 118.74 C60.05 87.93, 88.06 53.33, 112.99 26.67 M32.95 118.74 C56.82 90.73, 81.52 61.57, 112.99 26.67 M37.28 119.86 C69 84.39, 97.53 53.04, 114.69 30.8 M37.28 119.86 C55.27 99.9, 73.15 78.09, 114.69 30.8 M41.61 120.97 C55.66 101.42, 73.38 83.48, 117.05 34.18 M41.61 120.97 C68.3 90.02, 96.23 58.33, 117.05 34.18 M45.94 122.08 C61.59 105.04, 76.55 86.14, 118.76 38.31 M45.94 122.08 C70.33 93.53, 94.01 66.01, 118.76 38.31 M49.61 123.95 C66.53 103.94, 87.65 80.27, 121.12 41.69 M49.61 123.95 C71.17 97.96, 94.77 72.75, 121.12 41.69 M53.94 125.07 C73.47 100.07, 93.14 80.4, 123.49 45.07 M53.94 125.07 C68.7 108.69, 82.69 92.35, 123.49 45.07 M58.93 125.43 C80.67 100.5, 98.73 79.69, 125.19 49.2 M58.93 125.43 C77.04 103.55, 96.44 82.2, 125.19 49.2 M64.57 125.03 C80.02 109.28, 97.19 89.46, 124.93 55.6 M64.57 125.03 C85.47 101.5, 104.98 79.65, 124.93 55.6 M70.87 123.89 C90.74 102.54, 109.68 79.63, 124.67 62 M70.87 123.89 C84.8 108.88, 97.11 94.43, 124.67 62 M76.52 123.49 C92.88 107.22, 105.13 89.97, 124.41 68.4 M76.52 123.49 C87.38 109.74, 99.12 96.3, 124.41 68.4 M82.82 122.34 C96.97 104.93, 112.65 87.46, 124.15 74.79 M82.82 122.34 C94.09 109.54, 106.06 96.05, 124.15 74.79 M91.08 118.93 C99.72 108.32, 107.45 99.41, 120.61 84.97 M91.08 118.93 C102.72 105.94, 112.17 94.69, 120.61 84.97 M102.63 111.74 C106.31 105.99, 110.42 102.8, 115.1 97.4 M102.63 111.74 C105.92 108.91, 109.02 105.07, 115.1 97.4 M27.19 116.57 C27.19 116.57, 27.19 116.57, 27.19 116.57 M27.19 116.57 C27.19 116.57, 27.19 116.57, 27.19 116.57 M36.61 119.46 C27.81 112.47, 19.29 102.52, 7.17 93.87 M36.61 119.46 C27.81 110.83, 19.89 103.78, 7.17 93.87 M46.02 122.35 C32.54 111.89, 20.87 97.71, 6.02 87.57 M46.02 122.35 C36.26 113.89, 25.95 103.51, 6.02 87.57 M55.44 125.23 C40.88 111.87, 28.68 100.88, 4.12 80.62 M55.44 125.23 C43.28 116.18, 33.35 106.44, 4.12 80.62 M61.08 124.84 C37.16 105.62, 14.97 85.46, 2.97 74.32 M61.08 124.84 C42.88 108.84, 25.53 94.28, 2.97 74.32 M65.97 123.79 C50.42 112.92, 39.8 100.67, 1.07 67.37 M65.97 123.79 C43.35 102.84, 19.64 83.97, 1.07 67.37 M71.61 123.39 C55.96 108.98, 41.51 95.43, 0.67 61.72 M71.61 123.39 C48.43 104.22, 27.63 83.66, 0.67 61.72 M76.5 122.34 C63.28 108.31, 44.07 96.07, 1.79 57.39 M76.5 122.34 C51.65 100.87, 26.31 79.29, 1.79 57.39 M82.15 121.95 C61.72 104.39, 41.5 84.77, 2.15 52.4 M82.15 121.95 C57.51 102.61, 33.88 81.47, 2.15 52.4 M87.03 120.9 C64.17 97.28, 35.65 77.38, 3.26 48.07 M87.03 120.9 C68.66 104.91, 49.78 88.14, 3.26 48.07 M90.41 118.53 C58.62 94.47, 31.58 66.09, 4.38 43.74 M90.41 118.53 C62.82 93.65, 32.8 68.47, 4.38 43.74 M93.79 116.17 C74.29 96.81, 48.62 80.21, 5.49 39.41 M93.79 116.17 C75.51 99.34, 57.41 84.49, 5.49 39.41 M97.17 113.81 C68.11 91.77, 43.85 67.04, 6.61 35.08 M97.17 113.81 C76.76 94.82, 56.46 77.58, 6.61 35.08 M101.3 112.1 C74.69 90.2, 49.96 68.94, 8.47 31.41 M101.3 112.1 C72.76 88.17, 45.06 63.16, 8.47 31.41 M104.68 109.74 C77.21 83.51, 46.37 60.43, 11.1 28.39 M104.68 109.74 C84.99 91.82, 64.21 75.34, 11.1 28.39 M108.06 107.38 C82.65 85.66, 58.55 64.6, 13.72 25.37 M108.06 107.38 C83.31 85.13, 56.03 64.62, 13.72 25.37 M111.44 105.01 C81.25 77.18, 48.82 50.18, 16.35 22.35 M111.44 105.01 C89.04 84.07, 65.94 65.05, 16.35 22.35 M113.31 101.34 C75.83 70.8, 41.89 39.26, 19.73 19.99 M113.31 101.34 C88.95 80.4, 66 59.94, 19.73 19.99 M114.43 97.01 C89.51 76.18, 64.83 53.56, 22.35 16.97 M114.43 97.01 C86.22 72.99, 56.77 48.17, 22.35 16.97 M116.29 93.33 C89.75 69.82, 64.78 50.51, 24.98 13.95 M116.29 93.33 C82.1 62.34, 46.14 33.01, 24.98 13.95 M118.16 89.66 C94.19 68.27, 73.84 49.62, 27.6 10.93 M118.16 89.66 C89.37 63.46, 59.31 38.45, 27.6 10.93 M120.03 85.98 C97.21 68.05, 76.14 48.23, 31.73 9.22 M120.03 85.98 C87.44 58.77, 55.88 32.04, 31.73 9.22 M121.9 82.31 C94.53 58.56, 66.93 34.46, 35.87 7.52 M121.9 82.31 C101.81 65.17, 82.54 46.95, 35.87 7.52 M123.77 78.63 C100.35 58.29, 76.07 35.41, 40 5.81 M123.77 78.63 C100.42 58.76, 78.99 38.72, 40 5.81 M124.13 73.65 C98.86 49.34, 68.79 27.49, 44.13 4.1 M124.13 73.65 C100.12 52.28, 76.19 32.08, 44.13 4.1 M124.49 68.66 C106.05 54.19, 85.71 38.84, 48.27 2.4 M124.49 68.66 C97.32 43.71, 68.26 20.92, 48.27 2.4 M124.1 63.02 C100.77 45.07, 79.71 22.65, 52.4 0.69 M124.1 63.02 C106.46 48.53, 89.62 33.96, 52.4 0.69 M124.46 58.03 C108.58 43.88, 92.02 33.32, 58.04 0.29 M124.46 58.03 C104.29 40.52, 85.07 24.24, 58.04 0.29 M124.82 53.04 C113.1 39.67, 98.88 30.8, 65.2 1.21 M124.82 53.04 C109.94 40.59, 95.43 27.01, 65.2 1.21 M124.42 47.4 C109.38 36.29, 95.59 23.27, 71.59 1.47 M124.42 47.4 C110.84 35.55, 95.56 23.07, 71.59 1.47 M117.99 36.51 C110.33 29.01, 100.3 19.04, 78.75 2.39 M117.99 36.51 C109.43 29.21, 99.77 20.24, 78.75 2.39 M112.31 26.27 C106 21.42, 94.59 11.2, 91.94 8.56 M112.31 26.27 C107.34 20.95, 100.56 16.51, 91.94 8.56" stroke="#a5d8ff" stroke-width="0.5" fill="none"></path><path d="M84.27 3.97 C93.08 6.53, 102.67 14.13, 109.34 21.38 C116.02 28.63, 121.99 37.99, 124.34 47.45 C126.69 56.91, 125.7 68.4, 123.45 78.14 C121.2 87.88, 117.24 98.62, 110.83 105.9 C104.42 113.18, 94.04 118.53, 84.99 121.8 C75.95 125.06, 66.16 126.34, 56.56 125.5 C46.96 124.66, 35.58 121.98, 27.41 116.76 C19.24 111.55, 12.1 103.11, 7.52 94.19 C2.95 85.26, 0.18 73.32, -0.03 63.22 C-0.24 53.12, 1.86 42.08, 6.27 33.58 C10.68 25.09, 18.51 17.76, 26.43 12.23 C34.35 6.7, 43.41 1.65, 53.78 0.41 C64.16 -0.84, 82.31 3.42, 88.67 4.76 C95.04 6.1, 92.43 7.31, 91.96 8.45 M89.15 7.78 C97.94 11.16, 107.28 17.98, 113.14 25.48 C119 32.98, 123.01 43.24, 124.31 52.78 C125.61 62.32, 124.01 73.4, 120.92 82.74 C117.83 92.09, 112.44 101.94, 105.78 108.86 C99.11 115.77, 90.12 121.27, 80.94 124.25 C71.77 127.22, 60.19 128.89, 50.72 126.7 C41.25 124.5, 31.71 117.52, 24.11 111.07 C16.51 104.62, 8.95 97.04, 5.12 88.02 C1.28 79.01, 0.17 66.73, 1.12 56.97 C2.06 47.21, 5.86 37.75, 10.8 29.47 C15.74 21.19, 22.58 12.27, 30.76 7.29 C38.94 2.3, 50.12 -0.45, 59.86 -0.45 C69.6 -0.44, 84.22 5.83, 89.21 7.34 C94.2 8.86, 90.18 7.9, 89.82 8.66" stroke="#1e1e1e" stroke-width="1" fill="none"></path></g><g transform="translate(1401.06402433948 327.10517109528524) rotate(0 32.8125 19.19999999999999)"><text x="32.8125" y="0" font-family="Cascadia, Segoe UI Emoji" font-size="16px" fill="#1e1e1e" text-anchor="middle" style="white-space: pre;" direction="ltr" dominant-baseline="text-before-edge">Message</text><text x="32.8125" y="19.2" font-family="Cascadia, Segoe UI Emoji" font-size="16px" fill="#1e1e1e" text-anchor="middle" style="white-space: pre;" direction="ltr" dominant-baseline="text-before-edge">Broker</text></g><g stroke-linecap="round" transform="translate(749.4123456163398 668.9858049328061) rotate(0 95.5182101897048 32.52782292946705)"><path d="M16.26 0 C62.97 0.34, 108.03 0.68, 174.77 0 C182.06 2.7, 189.17 5.94, 191.04 16.26 C194.26 28.57, 190.69 35.02, 191.04 48.79 C190.1 57, 186.07 65.9, 174.77 65.06 C117.93 66.33, 70.46 66.21, 16.26 65.06 C8.89 65.32, -0.4 61.31, 0 48.79 C1.66 34.75, -3.77 27.68, 0 16.26 C2.33 4.3, 8.64 0.57, 16.26 0" stroke="none" stroke-width="0" fill="#ffec99"></path><path d="M16.26 0 C55.34 1.05, 94.29 2.88, 174.77 0 M16.26 0 C67.81 1.52, 119.53 1.55, 174.77 0 M174.77 0 C185.81 1.73, 190.58 6.89, 191.04 16.26 M174.77 0 C186.25 0.6, 190.82 5.09, 191.04 16.26 M191.04 16.26 C190.69 26.97, 189.31 34.81, 191.04 48.79 M191.04 16.26 C191.23 24.09, 190.35 31.22, 191.04 48.79 M191.04 48.79 C192.42 61.51, 184.35 65.54, 174.77 65.06 M191.04 48.79 C193.22 61.13, 184.4 65.04, 174.77 65.06 M174.77 65.06 C124.34 64.9, 75.02 65.91, 16.26 65.06 M174.77 65.06 C131.36 65.38, 86.47 64.51, 16.26 65.06 M16.26 65.06 C5.52 64.57, -1.18 60.02, 0 48.79 M16.26 65.06 C3.69 63.7, -1.36 58.67, 0 48.79 M0 48.79 C0.62 41.98, -0.64 34.13, 0 16.26 M0 48.79 C0.28 37.38, -0.77 26.66, 0 16.26 M0 16.26 C-1.2 7.13, 3.51 0.22, 16.26 0 M0 16.26 C2.13 6.24, 7.16 -2.18, 16.26 0" stroke="#1e1e1e" stroke-width="1" fill="none"></path></g><g transform="translate(783.9930558060446 691.9136278622732) rotate(0 60.9375 9.600000000000023)"><text x="60.9375" y="0" font-family="Cascadia, Segoe UI Emoji" font-size="16px" fill="#1e1e1e" text-anchor="middle" style="white-space: pre;" direction="ltr" dominant-baseline="text-before-edge">Restaurant DB</text></g><g transform="translate(799.1700101687021 647.3370139897211) rotate(0 37.5 9.600000000000023)"><text x="0" y="0" font-family="Cascadia, Segoe UI Emoji" font-size="16px" fill="#1e1e1e" text-anchor="start" style="white-space: pre;" direction="ltr" dominant-baseline="text-before-edge">Postgres</text></g><g stroke-linecap="round"><g transform="translate(624.1408590877377 568.0733914827704) rotate(0 57.30266465721263 64.03834350134179)"><path d="M-1.2 0.6 C1.96 16.54, 0.29 74.97, 19.51 96.22 C38.74 117.46, 98.39 122.72, 114.14 128.08 M0.38 -0.12 C3.41 15.94, 0.28 76.06, 19.07 97.65 C37.86 119.23, 97.31 124.07, 113.13 129.39" stroke="#1e1e1e" stroke-width="1" fill="none"></path></g><g transform="translate(624.1408590877377 568.0733914827704) rotate(0 57.30266465721263 64.03834350134179)"><path d="M83.41 133.47 C94.75 133.96, 103.75 130.15, 113.13 129.39 M83.41 133.47 C91.74 132.08, 100.64 130.22, 113.13 129.39" stroke="#1e1e1e" stroke-width="1" fill="none"></path></g><g transform="translate(624.1408590877377 568.0733914827704) rotate(0 57.30266465721263 64.03834350134179)"><path d="M87.74 113.42 C97.67 120.84, 105.16 124.02, 113.13 129.39 M87.74 113.42 C94.67 118.04, 102.28 122.2, 113.13 129.39" stroke="#1e1e1e" stroke-width="1" fill="none"></path></g></g><mask></mask><g stroke-linecap="round" transform="translate(763.9556897811367 576.846742082243) rotate(0 71.76773630469711 26.152425730567245)"><path d="M13.08 0 C47.75 1.45, 84.51 0.93, 130.46 0 C139.36 3.19, 145.91 5.86, 143.54 13.08 C145.56 18.7, 146.35 26.71, 143.54 39.23 C144.61 45.46, 139.59 50.46, 130.46 52.3 C103.13 53.98, 78.19 49.12, 13.08 52.3 C6.41 49.82, -2.57 45.84, 0 39.23 C-2.42 29.24, 3.01 16.98, 0 13.08 C3.47 7.16, 4.74 2.32, 13.08 0" stroke="none" stroke-width="0" fill="#ffec99"></path><path d="M13.08 0 C43.63 1.66, 77.97 0.84, 130.46 0 M13.08 0 C57.49 1.86, 100.08 0.25, 130.46 0 M130.46 0 C137.22 -0.25, 144.05 2.54, 143.54 13.08 M130.46 0 C138.04 0.52, 144.21 4.85, 143.54 13.08 M143.54 13.08 C145.14 21.48, 145.42 24.95, 143.54 39.23 M143.54 13.08 C144.08 19.83, 143.81 27.2, 143.54 39.23 M143.54 39.23 C144.29 46.78, 139.15 53.99, 130.46 52.3 M143.54 39.23 C145.28 47.51, 137.95 50.39, 130.46 52.3 M130.46 52.3 C90.38 51.81, 48.09 51.82, 13.08 52.3 M130.46 52.3 C92.06 51.78, 51.8 51.53, 13.08 52.3 M13.08 52.3 C5.14 52.69, 0.84 49.78, 0 39.23 M13.08 52.3 C6.1 53.53, -1.17 49.61, 0 39.23 M0 39.23 C-0.02 30.07, 0.7 22.13, 0 13.08 M0 39.23 C-0.38 30.45, 0.2 20.94, 0 13.08 M0 13.08 C-0.51 3.42, 3.66 -1.73, 13.08 0 M0 13.08 C-0.69 2.07, 2.87 1.43, 13.08 0" stroke="#1e1e1e" stroke-width="1" fill="none"></path></g><g transform="translate(802.9109260858338 593.3991678128102) rotate(0 32.8125 9.600000000000023)"><text x="32.8125" y="0" font-family="Cascadia, Segoe UI Emoji" font-size="16px" fill="#1e1e1e" text-anchor="middle" style="white-space: pre;" direction="ltr" dominant-baseline="text-before-edge">User DB</text></g><g transform="translate(800.9676719459367 554.6595729834632) rotate(0 37.5 9.600000000000023)"><text x="0" y="0" font-family="Cascadia, Segoe UI Emoji" font-size="16px" fill="#1e1e1e" text-anchor="start" style="white-space: pre;" direction="ltr" dominant-baseline="text-before-edge">Postgres</text></g><g stroke-linecap="round"><g transform="translate(627.2272287159145 565.0016965426339) rotate(0 64.86004672183105 16.276266546571037)"><path d="M0.46 0.88 C8.95 3.46, 29.09 9.63, 50.56 14.94 C72.03 20.25, 116.2 29.63, 129.29 32.75 M-0.75 0.3 C7.61 3.14, 28.11 10.84, 49.62 16.48 C71.13 22.13, 115.07 31.64, 128.3 34.18" stroke="#1e1e1e" stroke-width="1" fill="none"></path></g><g transform="translate(627.2272287159145 565.0016965426339) rotate(0 64.86004672183105 16.276266546571037)"><path d="M98.62 38.53 C108.15 37.25, 114.74 35.35, 128.3 34.18 M98.62 38.53 C107.34 36.34, 118.21 34.54, 128.3 34.18" stroke="#1e1e1e" stroke-width="1" fill="none"></path></g><g transform="translate(627.2272287159145 565.0016965426339) rotate(0 64.86004672183105 16.276266546571037)"><path d="M102.77 18.43 C111.08 22.61, 116.55 26.15, 128.3 34.18 M102.77 18.43 C110.07 22.65, 119.62 27.21, 128.3 34.18" stroke="#1e1e1e" stroke-width="1" fill="none"></path></g></g><mask></mask><g stroke-linecap="round" transform="translate(1535.358638013839 616.0013689497237) rotate(0 71.76773630469711 26.152425730567245)"><path d="M1.61 5.37 C1.61 5.37, 1.61 5.37, 1.61 5.37 M1.61 5.37 C1.61 5.37, 1.61 5.37, 1.61 5.37 M0.03 13.28 C3.91 10.93, 6.48 6.87, 10.53 1.2 M0.03 13.28 C2.5 9.67, 4.71 6.89, 10.53 1.2 M0.43 18.92 C4.62 13.03, 12.01 7.69, 16.17 0.81 M0.43 18.92 C7.35 12.27, 13.01 5.03, 16.17 0.81 M0.17 25.32 C5.51 16.29, 14.45 9.75, 21.82 0.42 M0.17 25.32 C7.86 18.33, 13.3 10.5, 21.82 0.42 M-0.09 31.72 C5.76 26.11, 13.71 17.51, 26.8 0.78 M-0.09 31.72 C10.16 20.23, 19.57 7.65, 26.8 0.78 M0.3 37.36 C9.88 29.19, 18.67 17.7, 32.45 0.38 M0.3 37.36 C8.33 28.69, 15.99 20.25, 32.45 0.38 M0.7 43.01 C13.9 31.14, 24.51 16.73, 37.43 0.74 M0.7 43.01 C13.34 27.74, 25.72 14.9, 37.43 0.74 M2.4 47.14 C16.15 29.11, 34.28 12.28, 42.42 1.1 M2.4 47.14 C18.4 29.26, 33.64 10.88, 42.42 1.1 M5.42 49.76 C18.96 35.02, 31.35 15.72, 48.07 0.71 M5.42 49.76 C20.08 31.57, 35.35 14.74, 48.07 0.71 M9.1 51.63 C24.12 34.29, 38.16 20.15, 53.05 1.07 M9.1 51.63 C18.69 39.69, 28.72 27.65, 53.05 1.07 M14.08 51.99 C27.13 33.27, 42.98 18.76, 58.7 0.67 M14.08 51.99 C25.92 37.09, 38.1 23.52, 58.7 0.67 M19.73 51.6 C30.45 37.2, 43.53 23.52, 63.68 1.03 M19.73 51.6 C29.96 38.05, 41.22 24.45, 63.68 1.03 M24.71 51.96 C34.88 40.86, 44.54 28.08, 69.33 0.64 M24.71 51.96 C41.31 33.54, 56.16 15.27, 69.33 0.64 M30.36 51.56 C41.04 38.41, 51.66 26.95, 74.31 1 M30.36 51.56 C44.12 35.96, 56.92 22.36, 74.31 1 M35.34 51.92 C45.89 39.52, 58.41 24.82, 79.3 1.36 M35.34 51.92 C44.18 42.38, 54.41 31.29, 79.3 1.36 M40.33 52.28 C51.15 41.74, 56.56 31.26, 84.94 0.96 M40.33 52.28 C50.2 40.94, 57.75 31.01, 84.94 0.96 M45.97 51.89 C58.23 36.17, 68.61 22.26, 89.93 1.32 M45.97 51.89 C56.33 40.71, 67.04 27.82, 89.93 1.32 M50.96 52.25 C62.84 36.88, 72.22 24.91, 95.57 0.93 M50.96 52.25 C66.83 34.18, 82.96 14.87, 95.57 0.93 M56.6 51.85 C64.88 40.99, 74.83 31.81, 100.56 1.29 M56.6 51.85 C72.56 32.97, 90.93 13.7, 100.56 1.29 M61.59 52.21 C75.22 35.44, 89.98 19.38, 106.2 0.89 M61.59 52.21 C70.98 40.63, 78.59 31.82, 106.2 0.89 M67.23 51.82 C78.1 37.19, 90.16 25.95, 111.19 1.25 M67.23 51.82 C77.75 40.36, 87.72 28.58, 111.19 1.25 M72.22 52.18 C82.08 39.85, 92.31 24.82, 116.18 1.61 M72.22 52.18 C82.87 40.43, 92.71 29, 116.18 1.61 M77.21 52.54 C91.5 36.34, 108.77 15.88, 121.82 1.22 M77.21 52.54 C90.65 37.48, 103.11 22.82, 121.82 1.22 M82.85 52.15 C96.97 37.39, 108.46 22.64, 126.81 1.58 M82.85 52.15 C93.81 39.13, 103.69 26.45, 126.81 1.58 M87.84 52.51 C105.28 30.46, 124.03 12.35, 132.45 1.19 M87.84 52.51 C100.63 38.99, 111.75 24.08, 132.45 1.19 M93.48 52.11 C107.65 37.32, 120.38 20.59, 137.44 1.55 M93.48 52.11 C107.97 35.67, 121.72 18.92, 137.44 1.55 M98.47 52.47 C109.26 40.98, 119.22 28.01, 141.11 3.42 M98.47 52.47 C110.14 38.48, 121.01 26.75, 141.11 3.42 M104.11 52.08 C112.9 39.25, 125.57 31.39, 142.82 7.55 M104.11 52.08 C111.25 43.85, 120.62 34.34, 142.82 7.55 M109.1 52.44 C117.79 45.32, 124.98 37.57, 143.87 12.44 M109.1 52.44 C120.39 39.25, 131.71 26.59, 143.87 12.44 M114.08 52.8 C120.85 44.16, 129.82 32.75, 144.26 18.08 M114.08 52.8 C123.39 42.34, 132.77 30.35, 144.26 18.08 M119.73 52.4 C125.41 44.46, 131.89 37.67, 144 24.48 M119.73 52.4 C128.37 43.43, 135.14 34.49, 144 24.48 M124.71 52.76 C130.98 45.72, 137.51 37.48, 143.74 30.88 M124.71 52.76 C132.07 44.39, 139.58 36.56, 143.74 30.88 M130.36 52.37 C135.94 47.02, 141.94 42.47, 143.48 37.27 M130.36 52.37 C133.27 49.22, 136.52 44.33, 143.48 37.27 M136 51.97 C138.89 48.98, 141.35 47.83, 143.22 43.67 M136 51.97 C138.67 49.5, 141.43 45.82, 143.22 43.67 M1.57 46.97 C1.57 46.97, 1.57 46.97, 1.57 46.97 M1.57 46.97 C1.57 46.97, 1.57 46.97, 1.57 46.97 M9.48 48.54 C6.92 45.07, 3.8 43.28, 1.18 41.32 M9.48 48.54 C6.64 46.75, 4.14 44.51, 1.18 41.32 M15.88 48.8 C14.17 45.45, 7 41.14, 0.78 35.68 M15.88 48.8 C10.56 43.89, 5.73 39.45, 0.78 35.68 M22.28 49.06 C14.44 40.68, 7.28 37.71, 1.14 30.69 M22.28 49.06 C14.85 42.38, 7.16 34.96, 1.14 30.69 M27.92 48.67 C22.08 44.23, 16.4 37.21, 0.75 25.05 M27.92 48.67 C21.89 42.48, 15.48 36.24, 0.75 25.05 M34.32 48.93 C23.75 39.23, 11.55 28.21, 1.11 20.06 M34.32 48.93 C25.09 41.53, 14.17 32.56, 1.11 20.06 M40.71 49.19 C33.58 39.7, 23.5 32.81, 1.47 15.08 M40.71 49.19 C31.53 41.13, 22.7 33.82, 1.47 15.08 M46.36 48.8 C36.3 41.71, 26.63 31.06, 1.08 9.43 M46.36 48.8 C28.55 34.76, 12.94 18.75, 1.08 9.43 M52.76 49.06 C37.54 35.81, 18.26 22.1, 2.19 5.1 M52.76 49.06 C41.52 39.35, 29.31 27.7, 2.19 5.1 M59.15 49.32 C40.57 35.32, 22.71 19.37, 4.81 2.08 M59.15 49.32 C43.73 35.5, 28.16 20.63, 4.81 2.08 M64.8 48.92 C46.47 34.8, 29.22 18.2, 7.44 -0.94 M64.8 48.92 C51.03 37.27, 37.84 27.44, 7.44 -0.94 M71.19 49.19 C53.84 34.52, 33.41 16.35, 13.84 -0.67 M71.19 49.19 C55.51 33.7, 40.02 20.04, 13.84 -0.67 M77.59 49.45 C67.22 37.42, 53.2 28.3, 20.23 -0.41 M77.59 49.45 C61.75 37.47, 48.2 22.44, 20.23 -0.41 M83.24 49.05 C64.1 33.46, 50.54 18.84, 25.88 -0.81 M83.24 49.05 C62.87 30.86, 43.03 13.62, 25.88 -0.81 M89.63 49.31 C70.32 33, 51.95 16.07, 32.27 -0.55 M89.63 49.31 C73.73 35.94, 56.9 21.1, 32.27 -0.55 M96.03 49.58 C81.42 38.21, 66.01 21.62, 38.67 -0.28 M96.03 49.58 C78.88 34.4, 60.88 19.24, 38.67 -0.28 M101.67 49.18 C82.75 30.99, 65.28 17.27, 44.32 -0.68 M101.67 49.18 C86.13 37.01, 72.01 22.89, 44.32 -0.68 M108.07 49.44 C95.91 35.98, 80.03 24.54, 50.71 -0.42 M108.07 49.44 C92.77 34.47, 75.98 20.66, 50.71 -0.42 M114.47 49.7 C99.64 35.61, 87.71 24.56, 57.11 -0.16 M114.47 49.7 C98.37 35.94, 82.73 21.67, 57.11 -0.16 M120.11 49.31 C106.3 39.93, 96.66 28.49, 62.75 -0.55 M120.11 49.31 C107.99 39.51, 95.06 28.39, 62.75 -0.55 M126.51 49.57 C112.96 35.78, 100.16 25.43, 69.15 -0.29 M126.51 49.57 C112.34 37.28, 97.12 23.99, 69.15 -0.29 M132.91 49.83 C112.17 32.03, 88.62 12.3, 75.55 -0.03 M132.91 49.83 C121.05 38.11, 107.04 27.43, 75.55 -0.03 M139.31 50.09 C120.97 33.22, 98.56 15.98, 81.19 -0.42 M139.31 50.09 C125.05 38.44, 111 26.47, 81.19 -0.42 M141.18 46.42 C124.88 34.15, 111.12 20.66, 87.59 -0.16 M141.18 46.42 C122.24 28.9, 102.56 12.46, 87.59 -0.16 M143.8 43.4 C126.61 27.53, 111.11 15.06, 93.23 -0.56 M143.8 43.4 C128.9 30.47, 113.24 17.19, 93.23 -0.56 M144.16 38.41 C135.54 29.29, 123.36 17.54, 99.63 -0.29 M144.16 38.41 C132.09 28.78, 120.21 17.11, 99.63 -0.29 M143.77 32.77 C134.55 22.82, 122.16 12.45, 106.03 -0.03 M143.77 32.77 C129.25 20.15, 114.32 7.9, 106.03 -0.03 M144.13 27.78 C130.43 17.49, 121.59 7.8, 111.67 -0.43 M144.13 27.78 C131.93 16.13, 119.76 6.19, 111.67 -0.43 M144.49 22.8 C136.02 15.63, 125.89 4.53, 118.07 -0.17 M144.49 22.8 C135.7 16.11, 128.23 7.44, 118.07 -0.17 M144.09 17.15 C135.54 13.09, 130.76 5.6, 124.47 0.1 M144.09 17.15 C138.32 12.4, 132.67 7.43, 124.47 0.1 M144.45 12.17 C140.58 8.23, 135.84 4.87, 130.11 -0.3 M144.45 12.17 C141.76 9.03, 138.51 7.46, 130.11 -0.3" stroke="#ffc9c9" stroke-width="0.5" fill="none"></path><path d="M13.08 0 C51.99 -1.51, 93.27 0.69, 130.46 0 M13.08 0 C42.13 -1.29, 72.36 -1.33, 130.46 0 M130.46 0 C139.94 1.62, 141.75 4.48, 143.54 13.08 M130.46 0 C139.55 0.08, 142.66 3.02, 143.54 13.08 M143.54 13.08 C141.47 23.64, 143.84 33.01, 143.54 39.23 M143.54 13.08 C142.78 21.02, 142.51 27.81, 143.54 39.23 M143.54 39.23 C142.82 46.86, 140.98 52.68, 130.46 52.3 M143.54 39.23 C144.3 49.7, 136.98 52.69, 130.46 52.3 M130.46 52.3 C92.07 50.68, 51.54 52.56, 13.08 52.3 M130.46 52.3 C98.59 52.11, 67.91 51.83, 13.08 52.3 M13.08 52.3 C2.75 53.16, 0.65 49.44, 0 39.23 M13.08 52.3 C3.34 51.67, -0.05 49.57, 0 39.23 M0 39.23 C-0.23 33.51, 0.54 27.13, 0 13.08 M0 39.23 C-0.35 30.04, 0.67 23.34, 0 13.08 M0 13.08 C-0.76 4.35, 5.48 0.02, 13.08 0 M0 13.08 C-0.12 4.02, 3.85 -1.58, 13.08 0" stroke="#1e1e1e" stroke-width="1" fill="none"></path></g><g transform="translate(1574.3138743185364 632.553794680291) rotate(0 32.8125 9.600000000000023)"><text x="32.8125" y="0" font-family="Cascadia, Segoe UI Emoji" font-size="16px" fill="#1e1e1e" text-anchor="middle" style="white-space: pre;" direction="ltr" dominant-baseline="text-before-edge">Caching</text></g><g transform="translate(1598.8113034708779 593.8914819569961) rotate(0 23.4375 9.600000000000023)"><text x="0" y="0" font-family="Cascadia, Segoe UI Emoji" font-size="16px" fill="#1e1e1e" text-anchor="start" style="white-space: pre;" direction="ltr" dominant-baseline="text-before-edge">Redis</text></g><g stroke-linecap="round"><g transform="translate(911.0544874330212 600.5198262970166) rotate(0 33.690228972477826 0.15797011844233566)"><path d="M-0.75 0.38 C10.42 0.42, 56.63 0.03, 68.02 -0.01 M1.05 -0.46 C12.04 -0.23, 56.43 1.05, 67.4 1.36" stroke="#1e1e1e" stroke-width="1" fill="none"></path></g><g transform="translate(911.0544874330212 600.5198262970166) rotate(0 33.690228972477826 0.15797011844233566)"><path d="M38.93 10.82 C50.46 8.45, 60.15 4.11, 67.4 1.36 M38.93 10.82 C46.64 7.53, 55.33 5.35, 67.4 1.36" stroke="#1e1e1e" stroke-width="1" fill="none"></path></g><g transform="translate(911.0544874330212 600.5198262970166) rotate(0 33.690228972477826 0.15797011844233566)"><path d="M39.52 -9.7 C50.78 -4.24, 60.25 -0.75, 67.4 1.36 M39.52 -9.7 C47.2 -7.11, 55.72 -3.42, 67.4 1.36" stroke="#1e1e1e" stroke-width="1" fill="none"></path></g></g><mask></mask><g stroke-linecap="round"><g transform="translate(937.8157628755662 710.3393329468265) rotate(0 141.09248017496145 -25.101511665357975)"><path d="M-0.04 1.01 C24.94 0.43, 102.44 5.79, 149.54 -2.7 C196.65 -11.18, 260.3 -42.14, 282.57 -49.88 M-1.52 0.49 C23.4 -0.5, 101.74 3.73, 148.99 -4.42 C196.25 -12.57, 259.52 -40.61, 282.01 -48.4" stroke="#1e1e1e" stroke-width="1" fill="none"></path></g><g transform="translate(937.8157628755662 710.3393329468265) rotate(0 141.09248017496145 -25.101511665357975)"><path d="M259.36 -28.73 C267.01 -32.77, 272.71 -38.68, 282.01 -48.4 M259.36 -28.73 C265.97 -36.23, 273.31 -42.1, 282.01 -48.4" stroke="#1e1e1e" stroke-width="1" fill="none"></path></g><g transform="translate(937.8157628755662 710.3393329468265) rotate(0 141.09248017496145 -25.101511665357975)"><path d="M252.01 -47.89 C261.77 -46.76, 269.44 -47.51, 282.01 -48.4 M252.01 -47.89 C261.17 -49.19, 270.91 -48.82, 282.01 -48.4" stroke="#1e1e1e" stroke-width="1" fill="none"></path></g></g><mask></mask><g stroke-linecap="round"><g transform="translate(1121.210831810637 260.80072751139545) rotate(0 119.77365887772089 24.641339821814654)"><path d="M0.55 -0.85 C11.42 1.03, 25.49 3.63, 65.43 11.85 C105.37 20.07, 211.02 42.39, 240.18 48.47 M-0.62 1.31 C10.62 2.77, 27.76 1.83, 67.82 9.83 C107.88 17.84, 210.87 42.85, 239.74 49.36" stroke="#1e1e1e" stroke-width="1" fill="none"></path></g><g transform="translate(1121.210831810637 260.80072751139545) rotate(0 119.77365887772089 24.641339821814654)"><path d="M209.95 52.93 C218.03 50.63, 229.29 51.56, 239.74 49.36 M209.95 52.93 C216.18 53.25, 224.41 52.47, 239.74 49.36" stroke="#1e1e1e" stroke-width="1" fill="none"></path></g><g transform="translate(1121.210831810637 260.80072751139545) rotate(0 119.77365887772089 24.641339821814654)"><path d="M214.63 32.95 C221.3 37.05, 231.07 44.36, 239.74 49.36 M214.63 32.95 C219.9 37.87, 227.04 41.72, 239.74 49.36" stroke="#1e1e1e" stroke-width="1" fill="none"></path></g></g><mask></mask><g stroke-linecap="round"><g transform="translate(1695.443116680332 404.1476735752437) rotate(0 -96.13359130355752 -22.51256955304075)"><path d="M0.96 0.29 C-30.9 -7.28, -159.54 -37.74, -191.65 -45.36 M0.01 -0.6 C-31.92 -8, -160.25 -36.72, -192.27 -44" stroke="#1e1e1e" stroke-width="1" fill="none"></path></g><g transform="translate(1695.443116680332 404.1476735752437) rotate(0 -96.13359130355752 -22.51256955304075)"><path d="M-162.52 -47.81 C-169.79 -45.55, -178.6 -44.6, -192.27 -44 M-162.52 -47.81 C-169.93 -46.36, -178.66 -45.49, -192.27 -44" stroke="#1e1e1e" stroke-width="1" fill="none"></path></g><g transform="translate(1695.443116680332 404.1476735752437) rotate(0 -96.13359130355752 -22.51256955304075)"><path d="M-167.03 -27.79 C-173.14 -30.79, -180.77 -35.06, -192.27 -44 M-167.03 -27.79 C-173.32 -31.68, -180.84 -36.17, -192.27 -44" stroke="#1e1e1e" stroke-width="1" fill="none"></path></g></g><mask></mask><g stroke-linecap="round" transform="translate(1684.092191227004 238.08572993968278) rotate(0 89.13718968658122 34)"><path d="M17 0 C63.06 -0.71, 111.94 0.11, 161.27 0 C170.52 1.93, 176.92 7.22, 178.27 17 C181.29 28.2, 179.29 35.29, 178.27 51 C176.82 62.82, 170 69.35, 161.27 68 C127.9 68.15, 90.8 64.79, 17 68 C2.79 69.92, -3.11 58.84, 0 51 C0.21 38.57, 0.09 24.79, 0 17 C-3.55 8.54, 6.24 -3.25, 17 0" stroke="none" stroke-width="0" fill="#ffc9c9"></path><path d="M17 0 C51.28 2.22, 83.56 1.22, 161.27 0 M17 0 C59.14 1.2, 103.66 2.36, 161.27 0 M161.27 0 C174.08 -0.12, 177.29 4.46, 178.27 17 M161.27 0 C172.49 -0.22, 179.93 6.72, 178.27 17 M178.27 17 C176.09 27.36, 178.48 40.22, 178.27 51 M178.27 17 C177.4 30.39, 178.63 43.27, 178.27 51 M178.27 51 C178.5 62.53, 173.96 69.76, 161.27 68 M178.27 51 C176.41 63.15, 174.74 66.28, 161.27 68 M161.27 68 C118.9 67.42, 75.32 69.74, 17 68 M161.27 68 C113.57 67.11, 65.26 67.41, 17 68 M17 68 C5.95 69.09, 1.44 61.38, 0 51 M17 68 C7.55 68.77, -1.71 61.2, 0 51 M0 51 C0.52 39.89, 0.19 27.8, 0 17 M0 51 C0.17 41.39, -0.61 31.44, 0 17 M0 17 C1.21 4.81, 3.88 -0.92, 17 0 M0 17 C0.69 7.17, 4.45 -1.56, 17 0" stroke="#1e1e1e" stroke-width="2" fill="none"></path></g><g transform="translate(1698.2293809135851 252.8857299396828) rotate(0 75 19.19999999999999)"><text x="75" y="0" font-family="Cascadia, Segoe UI Emoji" font-size="16px" fill="#1e1e1e" text-anchor="middle" style="white-space: pre;" direction="ltr" dominant-baseline="text-before-edge">Logging/History </text><text x="75" y="19.2" font-family="Cascadia, Segoe UI Emoji" font-size="16px" fill="#1e1e1e" text-anchor="middle" style="white-space: pre;" direction="ltr" dominant-baseline="text-before-edge">Service</text></g><g stroke-linecap="round"><g transform="translate(1679.307203057069 271.4334095231512) rotate(0 -90.44296683997925 25.838896890153393)"><path d="M0.7 1.09 C-29.79 9.69, -151.54 42.78, -181.91 51.28 M-0.39 0.62 C-30.61 9.41, -149.37 44.38, -179.73 52.6" stroke="#1e1e1e" stroke-width="1" fill="none"></path></g><g transform="translate(1679.307203057069 271.4334095231512) rotate(0 -90.44296683997925 25.838896890153393)"><path d="M-155.42 35.03 C-163.09 40.3, -175.02 47.84, -179.73 52.6 M-155.42 35.03 C-163.66 39.96, -171.38 46.68, -179.73 52.6" stroke="#1e1e1e" stroke-width="1" fill="none"></path></g><g transform="translate(1679.307203057069 271.4334095231512) rotate(0 -90.44296683997925 25.838896890153393)"><path d="M-149.81 54.77 C-159.61 52.4, -173.72 52.28, -179.73 52.6 M-149.81 54.77 C-159.73 53.09, -169.31 53.23, -179.73 52.6" stroke="#1e1e1e" stroke-width="1" fill="none"></path></g></g><mask></mask><g transform="translate(1392.700402915089 260.8940208836391) rotate(0 37.5 9.599999999999994)"><text x="0" y="0" font-family="Cascadia, Segoe UI Emoji" font-size="16px" fill="#1e1e1e" text-anchor="start" style="white-space: pre;" direction="ltr" dominant-baseline="text-before-edge">RabbitMQ</text></g><g stroke-linecap="round"><g transform="translate(597.4014329675522 521.1087216171113) rotate(0 380.69446468423587 -76.61852203890106)"><path d="M0.9 -0.76 C24.27 -13.72, 13.24 -53.12, 140.12 -78.45 C267.01 -103.79, 658.52 -140.19, 762.19 -152.75 M-0.08 1.46 C23.14 -11.33, 12.2 -51.37, 139.19 -77.42 C266.18 -103.47, 657.91 -142.23, 761.84 -154.83" stroke="#1e1e1e" stroke-width="1" fill="none"></path></g><g transform="translate(597.4014329675522 521.1087216171113) rotate(0 380.69446468423587 -76.61852203890106)"><path d="M734.95 -141.52 C741.58 -145.56, 749.05 -148.13, 761.84 -154.83 M734.95 -141.52 C743.33 -145.27, 753.07 -150.32, 761.84 -154.83" stroke="#1e1e1e" stroke-width="1" fill="none"></path></g><g transform="translate(597.4014329675522 521.1087216171113) rotate(0 380.69446468423587 -76.61852203890106)"><path d="M732.69 -161.92 C739.86 -160.04, 747.99 -156.69, 761.84 -154.83 M732.69 -161.92 C741.96 -158.7, 752.48 -156.8, 761.84 -154.83" stroke="#1e1e1e" stroke-width="1" fill="none"></path></g></g><mask></mask><g stroke-linecap="round" transform="translate(1783.9277918592093 611.1337330299107) rotate(0 75.01631464967409 30.335654462364857)"><path d="M15.17 0 C60.49 -1.64, 107.84 2.7, 134.86 0 C143.65 0.72, 150.7 3.48, 150.03 15.17 C152.96 23.88, 152.96 25.21, 150.03 45.5 C151.17 59.19, 142.55 61.98, 134.86 60.67 C94.18 59.64, 54 57.59, 15.17 60.67 C3.34 57.74, -0.69 56.51, 0 45.5 C-0.94 40.11, 0.95 31.47, 0 15.17 C-1.69 4.12, 3.42 -0.13, 15.17 0" stroke="none" stroke-width="0" fill="#a5d8ff"></path><path d="M15.17 0 C52.6 -1.15, 94.17 -0.99, 134.86 0 M15.17 0 C41.22 -1.06, 68.24 -0.76, 134.86 0 M134.86 0 C145.07 1.99, 150.53 4.36, 150.03 15.17 M134.86 0 C144.63 -0.03, 149.42 6.83, 150.03 15.17 M150.03 15.17 C149.96 28.73, 150.89 37.38, 150.03 45.5 M150.03 15.17 C150.63 25.21, 149.11 35.94, 150.03 45.5 M150.03 45.5 C150.51 54.35, 144.48 59.19, 134.86 60.67 M150.03 45.5 C147.97 56.17, 143.34 60.91, 134.86 60.67 M134.86 60.67 C105.53 62.34, 72.69 62.14, 15.17 60.67 M134.86 60.67 C104.51 60.22, 73.75 60.25, 15.17 60.67 M15.17 60.67 C5.96 60.05, -0.84 54.29, 0 45.5 M15.17 60.67 C6.45 59.68, 1.63 55.97, 0 45.5 M0 45.5 C1.72 37.65, -1.64 30.59, 0 15.17 M0 45.5 C-0.05 38.61, 0.18 32.7, 0 15.17 M0 15.17 C-0.77 4.23, 4.97 0.25, 15.17 0 M0 15.17 C1.3 3.1, 7.05 -1.5, 15.17 0" stroke="#1e1e1e" stroke-width="2" fill="none"></path></g><g transform="translate(1807.3816065088831 622.2693874922757) rotate(0 51.5625 19.19999999999999)"><text x="51.5625" y="0" font-family="Cascadia, Segoe UI Emoji" font-size="16px" fill="#1e1e1e" text-anchor="middle" style="white-space: pre;" direction="ltr" dominant-baseline="text-before-edge">Payment </text><text x="51.5625" y="19.2" font-family="Cascadia, Segoe UI Emoji" font-size="16px" fill="#1e1e1e" text-anchor="middle" style="white-space: pre;" direction="ltr" dominant-baseline="text-before-edge">Gateway API</text></g><g transform="translate(1832.656790922827 582.115829997497) rotate(0 28.125 9.600000000000023)"><text x="0" y="0" font-family="Cascadia, Segoe UI Emoji" font-size="16px" fill="#1e1e1e" text-anchor="start" style="white-space: pre;" direction="ltr" dominant-baseline="text-before-edge">Xendit</text></g><g transform="translate(1290.0626827012288 592.5716108550057) rotate(0 32.8125 9.600000000000023)"><text x="0" y="0" font-family="Cascadia, Segoe UI Emoji" font-size="16px" fill="#1e1e1e" text-anchor="start" style="white-space: pre;" direction="ltr" dominant-baseline="text-before-edge">MongoDB</text></g><g stroke-linecap="round" transform="translate(1234.2159042064466 24.99754678283972) rotate(0 75.01631464967409 30.335654462364857)"><path d="M15.17 0 C56.55 -0.32, 87.7 -1.75, 134.86 0 C148.54 -3.04, 148.21 1.56, 150.03 15.17 C150.36 22.79, 148.94 34.39, 150.03 45.5 C149.37 56.85, 145.37 58.1, 134.86 60.67 C99.97 62.48, 73.46 62.29, 15.17 60.67 C6.54 61.99, -0.62 53.8, 0 45.5 C-1.34 36.85, 3.49 23.25, 0 15.17 C-2.8 4.75, 2.07 -1.53, 15.17 0" stroke="none" stroke-width="0" fill="#a5d8ff"></path><path d="M15.17 0 C44.23 0.02, 74.01 0.16, 134.86 0 M15.17 0 C42.11 -1.88, 68.1 -0.49, 134.86 0 M134.86 0 C145.71 0.46, 148.82 5.59, 150.03 15.17 M134.86 0 C144.87 0.91, 151.38 5.57, 150.03 15.17 M150.03 15.17 C149.21 27.71, 149.88 37.46, 150.03 45.5 M150.03 15.17 C150.8 24.72, 150.95 35.09, 150.03 45.5 M150.03 45.5 C150.73 54.84, 145.52 62.3, 134.86 60.67 M150.03 45.5 C148.62 55.14, 143.47 61.11, 134.86 60.67 M134.86 60.67 C109.85 59.47, 85.44 60.03, 15.17 60.67 M134.86 60.67 C110.48 59.26, 86.24 59.21, 15.17 60.67 M15.17 60.67 C4.73 61.92, -1.26 54.82, 0 45.5 M15.17 60.67 C5.9 58.7, -0.74 55.27, 0 45.5 M0 45.5 C-0.89 36.52, -0.98 30.65, 0 15.17 M0 45.5 C0.9 38.75, -0.69 31.61, 0 15.17 M0 15.17 C-1.53 6.92, 3.81 -0.16, 15.17 0 M0 15.17 C1.32 4.24, 7.17 1.48, 15.17 0" stroke="#1e1e1e" stroke-width="2" fill="none"></path></g><g transform="translate(1252.9822188561207 36.13320124520459) rotate(0 56.25 19.200000000000003)"><text x="56.25" y="0" font-family="Cascadia, Segoe UI Emoji" font-size="16px" fill="#1e1e1e" text-anchor="middle" style="white-space: pre;" direction="ltr" dominant-baseline="text-before-edge">Google Maps </text><text x="56.25" y="19.2" font-family="Cascadia, Segoe UI Emoji" font-size="16px" fill="#1e1e1e" text-anchor="middle" style="white-space: pre;" direction="ltr" dominant-baseline="text-before-edge">API</text></g><g stroke-linecap="round"><g transform="translate(1122.3786779515644 66.24322462150838) rotate(0 51.07380967379561 -1.5091441421659795)"><path d="M-0.92 0.04 C15.96 -0.28, 85.22 -2.04, 102.39 -2.43 M0.8 -0.99 C17.44 -1.61, 84.82 -3.7, 101.57 -4.24" stroke="#1e1e1e" stroke-width="1" fill="none"></path></g><g transform="translate(1122.3786779515644 66.24322462150838) rotate(0 51.07380967379561 -1.5091441421659795)"><path d="M73.72 6.91 C84.84 3.12, 96.78 -1.78, 101.57 -4.24 M73.72 6.91 C83.61 3.17, 93.03 -0.72, 101.57 -4.24" stroke="#1e1e1e" stroke-width="1" fill="none"></path></g><g transform="translate(1122.3786779515644 66.24322462150838) rotate(0 51.07380967379561 -1.5091441421659795)"><path d="M73.07 -13.61 C84.35 -9.28, 96.55 -6.07, 101.57 -4.24 M73.07 -13.61 C83.37 -9.9, 93.02 -6.34, 101.57 -4.24" stroke="#1e1e1e" stroke-width="1" fill="none"></path></g></g><mask></mask><g stroke-linecap="round"><g transform="translate(1396.1896550892998 60.52619317063869) rotate(0 30.803430294251257 3.487180788028425)"><path d="M-0.11 1.12 C10.14 2.48, 50.51 6.42, 60.63 7.26 M-1.62 0.66 C9.06 1.72, 52.06 4.22, 62.82 5.29" stroke="#1e1e1e" stroke-width="1" fill="none"></path></g><g transform="translate(1396.1896550892998 60.52619317063869) rotate(0 30.803430294251257 3.487180788028425)"><path d="M33.94 13.38 C42.49 9.91, 47.75 8.02, 62.82 5.29 M33.94 13.38 C40.19 11.22, 46.75 10.62, 62.82 5.29" stroke="#1e1e1e" stroke-width="1" fill="none"></path></g><g transform="translate(1396.1896550892998 60.52619317063869) rotate(0 30.803430294251257 3.487180788028425)"><path d="M35.5 -7.08 C43.54 -5.85, 48.43 -3.04, 62.82 5.29 M35.5 -7.08 C41.35 -4.5, 47.55 -0.35, 62.82 5.29" stroke="#1e1e1e" stroke-width="1" fill="none"></path></g></g><mask></mask><g stroke-linecap="round"><g transform="translate(1429.3283211261626 634.8569010930294) rotate(0 49.379765560763076 1.495078657654517)"><path d="M0.93 -0.1 C17.1 0.38, 81.62 2.87, 97.87 3.42 M-0.04 -1.19 C16.43 -1.13, 83.85 0.55, 100.12 1.52" stroke="#1e1e1e" stroke-width="1" fill="none"></path></g><g transform="translate(1429.3283211261626 634.8569010930294) rotate(0 49.379765560763076 1.495078657654517)"><path d="M71.55 10.68 C81.95 5.59, 93.42 3.2, 100.12 1.52 M71.55 10.68 C81.26 8.45, 88.85 5.35, 100.12 1.52" stroke="#1e1e1e" stroke-width="1" fill="none"></path></g><g transform="translate(1429.3283211261626 634.8569010930294) rotate(0 49.379765560763076 1.495078657654517)"><path d="M72.35 -9.83 C82.54 -7.31, 93.71 -2.09, 100.12 1.52 M72.35 -9.83 C81.65 -5.54, 88.99 -2.12, 100.12 1.52" stroke="#1e1e1e" stroke-width="1" fill="none"></path></g></g><mask></mask><g stroke-linecap="round"><g transform="translate(1773.8667497982449 657.9687986111128) rotate(0 -41.937322215726226 -0.7660667550850917)"><path d="M-1.07 0.24 C-14.7 -0.03, -68.92 -0.67, -82.89 -0.98 M0.57 -0.68 C-13.03 -1.36, -69.47 -2.87, -83.32 -2.81" stroke="#1e1e1e" stroke-width="1" fill="none"></path></g><g transform="translate(1773.8667497982449 657.9687986111128) rotate(0 -41.937322215726226 -0.7660667550850917)"><path d="M-54.99 -12.67 C-60.44 -9.23, -65.83 -10.54, -83.32 -2.81 M-54.99 -12.67 C-63.5 -9.69, -71.37 -7.02, -83.32 -2.81" stroke="#1e1e1e" stroke-width="1" fill="none"></path></g><g transform="translate(1773.8667497982449 657.9687986111128) rotate(0 -41.937322215726226 -0.7660667550850917)"><path d="M-55.28 7.85 C-60.78 7.02, -66.11 1.42, -83.32 -2.81 M-55.28 7.85 C-63.66 4.8, -71.45 1.47, -83.32 -2.81" stroke="#1e1e1e" stroke-width="1" fill="none"></path></g></g><mask></mask><g stroke-linecap="round"><g transform="translate(1148.3210772524337 609.9988326585096) rotate(0 37.754975577186315 14.687253182525069)"><path d="M-0.88 -0.34 C11.56 4.51, 61.59 23.7, 74.45 28.71 M0.86 -1.57 C13.67 3.47, 64.1 25.04, 76.61 29.91" stroke="#1e1e1e" stroke-width="1" fill="none"></path></g><g transform="translate(1148.3210772524337 609.9988326585096) rotate(0 37.754975577186315 14.687253182525069)"><path d="M46.63 28.68 C54.65 27.49, 62.72 30.87, 76.61 29.91 M46.63 28.68 C57.03 28.94, 65.91 28.7, 76.61 29.91" stroke="#1e1e1e" stroke-width="1" fill="none"></path></g><g transform="translate(1148.3210772524337 609.9988326585096) rotate(0 37.754975577186315 14.687253182525069)"><path d="M54.43 9.7 C60.15 13.89, 65.98 22.71, 76.61 29.91 M54.43 9.7 C62.14 16.23, 68.43 22.3, 76.61 29.91" stroke="#1e1e1e" stroke-width="1" fill="none"></path></g></g><mask></mask><g stroke-linecap="round"><g transform="translate(1524.0504900318153 654.6685409356662) rotate(0 -48.43238925034143 0.8575553577812798)"><path d="M1.05 -0.65 C-15.22 -0.27, -81.45 1.69, -97.82 1.92 M0.14 1.63 C-15.75 1.65, -79.24 -0.08, -95.61 -0.09" stroke="#1e1e1e" stroke-width="1" fill="none"></path></g><g transform="translate(1524.0504900318153 654.6685409356662) rotate(0 -48.43238925034143 0.8575553577812798)"><path d="M-67.26 -9.92 C-76.46 -8.46, -83.12 -4.56, -95.61 -0.09 M-67.26 -9.92 C-74.04 -7.62, -79.71 -6.08, -95.61 -0.09" stroke="#1e1e1e" stroke-width="1" fill="none"></path></g><g transform="translate(1524.0504900318153 654.6685409356662) rotate(0 -48.43238925034143 0.8575553577812798)"><path d="M-67.58 10.6 C-76.62 6.2, -83.2 4.25, -95.61 -0.09 M-67.58 10.6 C-74.24 8.44, -79.85 5.51, -95.61 -0.09" stroke="#1e1e1e" stroke-width="1" fill="none"></path></g></g><mask></mask><g stroke-linecap="round"><g transform="translate(1567.5374125881376 605.0762143394779) rotate(0 -472.5103740815045 -42.1068679895244)"><path d="M0.88 0.62 C-23.08 -13.32, 13.58 -72.14, -144.09 -84.15 C-301.76 -96.15, -811.72 -73.45, -945.12 -71.4 M-0.12 -0.09 C-24.19 -13.78, 12.7 -70.91, -144.94 -82.58 C-302.58 -94.24, -812.76 -72.03, -945.94 -70.1" stroke="#1e1e1e" stroke-width="1" fill="none"></path></g><g transform="translate(1567.5374125881376 605.0762143394779) rotate(0 -472.5103740815045 -42.1068679895244)"><path d="M-918.06 -81.15 C-924.68 -77.61, -933.23 -75.08, -945.94 -70.1 M-918.06 -81.15 C-925.37 -77.62, -934.39 -74.34, -945.94 -70.1" stroke="#1e1e1e" stroke-width="1" fill="none"></path></g><g transform="translate(1567.5374125881376 605.0762143394779) rotate(0 -472.5103740815045 -42.1068679895244)"><path d="M-917.47 -60.64 C-924.17 -62.7, -932.88 -65.77, -945.94 -70.1 M-917.47 -60.64 C-925.04 -63.21, -934.24 -66.03, -945.94 -70.1" stroke="#1e1e1e" stroke-width="1" fill="none"></path></g></g><mask></mask><g stroke-linecap="round"><g transform="translate(1690.1510487206049 631.2552186581688) rotate(0 43.843354355233714 0)"><path d="M1.14 0.03 C15.8 0.08, 73.27 0.72, 87.53 0.7 M0.28 -0.99 C14.8 -1.34, 71.71 -1.42, 86.49 -1.06" stroke="#1e1e1e" stroke-width="1" fill="none"></path></g><g transform="translate(1690.1510487206049 631.2552186581688) rotate(0 43.843354355233714 0)"><path d="M58.21 8.94 C65.71 5.76, 74.29 1.66, 86.49 -1.06 M58.21 8.94 C66.75 6.96, 74.1 3.93, 86.49 -1.06" stroke="#1e1e1e" stroke-width="1" fill="none"></path></g><g transform="translate(1690.1510487206049 631.2552186581688) rotate(0 43.843354355233714 0)"><path d="M58.4 -11.58 C65.92 -9.34, 74.45 -8.01, 86.49 -1.06 M58.4 -11.58 C66.7 -7.61, 74 -4.69, 86.49 -1.06" stroke="#1e1e1e" stroke-width="1" fill="none"></path></g></g><mask></mask><g stroke-linecap="round" transform="translate(1980.2901264554785 229.61827854219308) rotate(0 95.51821018970486 32.52782292946705)"><path d="M16.26 0 C64.33 0.29, 107.27 -4.67, 174.77 0 C187.47 2.06, 190.15 2.8, 191.04 16.26 C189 25.97, 189.82 35.55, 191.04 48.79 C189.73 59.83, 182.66 64.13, 174.77 65.06 C137.12 65.15, 95.28 65.81, 16.26 65.06 C5.78 64.04, 2.82 57.65, 0 48.79 C-2.2 40.73, 1.44 30.04, 0 16.26 C2.71 5.3, 8.29 2.23, 16.26 0" stroke="none" stroke-width="0" fill="#ffec99"></path><path d="M16.26 0 C58.3 1.31, 97.72 -0.51, 174.77 0 M16.26 0 C47.47 -0.24, 81.36 1.12, 174.77 0 M174.77 0 C184.6 -0.02, 192.23 6.51, 191.04 16.26 M174.77 0 C187.17 0.96, 191.71 5.41, 191.04 16.26 M191.04 16.26 C189.71 28.78, 191.97 39.03, 191.04 48.79 M191.04 16.26 C190.39 23.69, 191.83 28.81, 191.04 48.79 M191.04 48.79 C192.55 57.97, 186.81 63.1, 174.77 65.06 M191.04 48.79 C193.14 61.86, 186.78 65.79, 174.77 65.06 M174.77 65.06 C113.47 66.91, 51.55 68.06, 16.26 65.06 M174.77 65.06 C126.1 66.27, 78.44 66.26, 16.26 65.06 M16.26 65.06 C6.62 65.36, 0 59.86, 0 48.79 M16.26 65.06 C6.28 64.29, 1.9 59.58, 0 48.79 M0 48.79 C1.68 41.21, 1.29 32.56, 0 16.26 M0 48.79 C0.05 38.13, -0.97 27.36, 0 16.26 M0 16.26 C-1.43 5.76, 4.4 1.08, 16.26 0 M0 16.26 C1.95 3.21, 7.33 -0.9, 16.26 0" stroke="#1e1e1e" stroke-width="1" fill="none"></path></g><g transform="translate(2019.5583366451833 252.5461014716601) rotate(0 56.25 9.599999999999994)"><text x="56.25" y="0" font-family="Cascadia, Segoe UI Emoji" font-size="16px" fill="#1e1e1e" text-anchor="middle" style="white-space: pre;" direction="ltr" dominant-baseline="text-before-edge">Histories DB</text></g><g stroke-linecap="round"><g transform="translate(1874.7642027132124 264.9509865361296) rotate(0 45.91077448968781 1.0253074519680183)"><path d="M0.53 -0.4 C15.8 -0.34, 77.5 0.31, 92.6 0.86 M-0.65 -1.66 C14.45 -1.53, 76.35 1.33, 92.06 1.77" stroke="#1e1e1e" stroke-width="1" fill="none"></path></g><g transform="translate(1874.7642027132124 264.9509865361296) rotate(0 45.91077448968781 1.0253074519680183)"><path d="M63.51 10.96 C73.65 8.64, 83.18 2.67, 92.06 1.77 M63.51 10.96 C73.46 7.39, 83.72 4.69, 92.06 1.77" stroke="#1e1e1e" stroke-width="1" fill="none"></path></g><g transform="translate(1874.7642027132124 264.9509865361296) rotate(0 45.91077448968781 1.0253074519680183)"><path d="M64.28 -9.55 C74.21 -4.07, 83.45 -2.25, 92.06 1.77 M64.28 -9.55 C73.86 -5.55, 83.83 -0.68, 92.06 1.77" stroke="#1e1e1e" stroke-width="1" fill="none"></path></g></g><mask></mask><g transform="translate(2026.5316166997954 202.49844479451912) rotate(0 37.5 9.599999999999994)"><text x="0" y="0" font-family="Cascadia, Segoe UI Emoji" font-size="16px" fill="#1e1e1e" text-anchor="start" style="white-space: pre;" direction="ltr" dominant-baseline="text-before-edge">Postgres</text></g></svg>