<svg version="1.1" xmlns="http://www.w3.org/2000/svg" viewBox="0 0 1798.128525078027 829.0033103271315" width="5394.3855752340805" height="2487.0099309813945">
  <!-- svg-source:excalidraw -->
  
  <defs>
    <style class="style-fonts">
      @font-face {
        font-family: "Virgil";
        src: url("https://excalidraw.com/Virgil.woff2");
      }
      @font-face {
        font-family: "Cascadia";
        src: url("https://excalidraw.com/Cascadia.woff2");
      }
      @font-face {
        font-family: "Assistant";
        src: url("https://excalidraw.com/Assistant-Regular.woff2");
      }
    </style>
    
  </defs>
  <rect x="0" y="0" width="1798.128525078027" height="829.0033103271315" fill="#f5faff"></rect><g stroke-linecap="round" transform="translate(162.15625 210.8718611537729) rotate(0 74.5 33.99999999999994)"><path d="M17 0 C54.68 1.16, 90.04 -0.67, 132 0 M17 0 C58.24 -1.2, 98.3 -0.2, 132 0 M132 0 C144.68 -1.19, 148.11 5.12, 149 17 M132 0 C144.67 -2.06, 150.43 6.55, 149 17 M149 17 C150.21 30.25, 149.07 42.67, 149 51 M149 17 C150.24 27.48, 149.07 39.51, 149 51 M149 51 C150.64 62.18, 142.5 66.11, 132 68 M149 51 C147.91 62.59, 143.82 68.57, 132 68 M132 68 C104.09 66.96, 81.43 67.98, 17 68 M132 68 C101.85 67.85, 73.34 66.72, 17 68 M17 68 C6.3 69.05, 0.44 60.69, 0 51 M17 68 C5.46 68.13, -0.85 63.77, 0 51 M0 51 C-0.92 42.66, -1.22 32.66, 0 17 M0 51 C0.5 40.65, 0.65 30.55, 0 17 M0 17 C2 5.75, 6.66 1.46, 17 0 M0 17 C-0.13 4.25, 6.3 -0.5, 17 0" stroke="#1e1e1e" stroke-width="2" fill="none"></path></g><g transform="translate(182.505859375 232.87186115377278) rotate(0 54.150390625 12)"><text x="54.150390625" y="0" font-family="Cascadia, Segoe UI Emoji" font-size="20px" fill="#1e1e1e" text-anchor="middle" style="white-space: pre;" direction="ltr" dominant-baseline="text-before-edge">API Gateway</text></g><g transform="translate(11.237738461458775 107.53687184345108) rotate(0 24.443359375 12)"><text x="0" y="0" font-family="Cascadia, Segoe UI Emoji" font-size="20px" fill="#1e1e1e" text-anchor="start" style="white-space: pre;" direction="ltr" dominant-baseline="text-before-edge">Client</text></g><g transform="translate(10 228.9717389926126) rotate(0 24.4482421875 12)"><text x="0" y="0" font-family="Cascadia, Segoe UI Emoji" font-size="20px" fill="#1e1e1e" text-anchor="start" style="white-space: pre;" direction="ltr" dominant-baseline="text-before-edge">REST</text></g><g stroke-linecap="round"><g transform="translate(34.6285619140117 141.53687184345108) rotate(0 -0.3467054162581462 37.21743357458075)"><path d="M0.17 -0.92 C0.07 11.46, -1.74 62.27, -1.75 74.71 M-1.2 1.21 C-0.84 13.17, 0.24 60.49, 0.4 72.74" stroke="#1e1e1e" stroke-width="1" fill="none"></path></g><g transform="translate(34.6285619140117 141.53687184345108) rotate(0 -0.3467054162581462 37.21743357458075)"><path d="M-10.39 44.74 C-9.58 48.75, -5.35 57.65, 0.4 72.74 M-10.39 44.74 C-7.33 50.61, -4.7 58.63, 0.4 72.74" stroke="#1e1e1e" stroke-width="1" fill="none"></path></g><g transform="translate(34.6285619140117 141.53687184345108) rotate(0 -0.3467054162581462 37.21743357458075)"><path d="M10.13 44.36 C6.69 48.47, 6.68 57.45, 0.4 72.74 M10.13 44.36 C8.25 50.27, 5.94 58.37, 0.4 72.74" stroke="#1e1e1e" stroke-width="1" fill="none"></path></g></g><mask></mask><g stroke-linecap="round"><g transform="translate(68.27233527012231 244.1065153286753) rotate(0 41.40045254083179 0.9554563486942698)"><path d="M0 0 C13.8 0.32, 69 1.59, 82.8 1.91 M0 0 C13.8 0.32, 69 1.59, 82.8 1.91" stroke="#1e1e1e" stroke-width="1" fill="none"></path></g><g transform="translate(68.27233527012231 244.1065153286753) rotate(0 41.40045254083179 0.9554563486942698)"><path d="M54.38 11.52 C63.32 8.5, 72.25 5.48, 82.8 1.91 M54.38 11.52 C62.13 8.9, 69.89 6.28, 82.8 1.91" stroke="#1e1e1e" stroke-width="1" fill="none"></path></g><g transform="translate(68.27233527012231 244.1065153286753) rotate(0 41.40045254083179 0.9554563486942698)"><path d="M54.85 -9 C63.64 -5.57, 72.43 -2.14, 82.8 1.91 M54.85 -9 C62.48 -6.02, 70.1 -3.05, 82.8 1.91" stroke="#1e1e1e" stroke-width="1" fill="none"></path></g></g><mask></mask><g stroke-linecap="round" transform="translate(441.77801120616095 208.24028542082726) rotate(0 74.5 34)"><path d="M17 0 C39.02 2.26, 67.62 3.73, 132 0 C145.03 2.2, 148.66 3.18, 149 17 C152.06 28.19, 146.31 37.37, 149 51 C148.58 64.49, 146.91 67.88, 132 68 C94.28 66.92, 52.23 66.04, 17 68 C4.38 68.57, -3.14 65.39, 0 51 C3.82 42.95, -1.51 28.65, 0 17 C-0.7 9.02, 7.65 1.72, 17 0" stroke="none" stroke-width="0" fill="#ffc9c9"></path><path d="M17 0 C40.15 -1.66, 65.14 0.39, 132 0 M17 0 C41.83 -1.09, 64.98 0.27, 132 0 M132 0 C144.31 0.3, 150.13 6.15, 149 17 M132 0 C145.53 1.2, 151.1 4.45, 149 17 M149 17 C149.01 25.49, 147.28 34.7, 149 51 M149 17 C148.34 27.13, 149.44 37.23, 149 51 M149 51 C147.54 63.87, 142.89 67.1, 132 68 M149 51 C148.48 60.65, 141.46 69.6, 132 68 M132 68 C98.41 68.81, 61.06 68.18, 17 68 M132 68 C96.56 68.02, 62.2 68.14, 17 68 M17 68 C6.5 66.55, 0 62.49, 0 51 M17 68 C5.2 67.98, 0.99 62.59, 0 51 M0 51 C-0.08 39.82, 1.3 26.54, 0 17 M0 51 C0.4 43.55, -0.43 34.44, 0 17 M0 17 C1.79 4.38, 4.43 -1.35, 17 0 M0 17 C0.85 5.71, 3.76 1.95, 17 0" stroke="#1e1e1e" stroke-width="2" fill="none"></path></g><g transform="translate(475.18426120616095 232.64028542082713) rotate(0 41.09375 9.600000000000023)"><text x="41.09375" y="0" font-family="Cascadia, Segoe UI Emoji" font-size="16px" fill="#1e1e1e" text-anchor="middle" style="white-space: pre;" direction="ltr" dominant-baseline="text-before-edge">User Service</text></g><g stroke-linecap="round"><g transform="translate(318.933087791213 237.25812779344153) rotate(0 54.83818644879375 0.9198570689703729)"><path d="M0.7 -1.07 C8.12 -0.68, 25.74 1.65, 44.03 2.01 C62.31 2.36, 99.56 0.94, 110.41 1.06 M-0.39 0.98 C6.99 1.03, 25.07 -0.04, 43.47 0.13 C61.87 0.29, 99.09 1.89, 110.03 1.96" stroke="#1e1e1e" stroke-width="1" fill="none"></path></g><g transform="translate(318.933087791213 237.25812779344153) rotate(0 54.83818644879375 0.9198570689703729)"><path d="M81.58 11.5 C87.09 10.14, 96.92 7.68, 110.03 1.96 M81.58 11.5 C88.79 9.21, 95.55 7.06, 110.03 1.96" stroke="#1e1e1e" stroke-width="1" fill="none"></path></g><g transform="translate(318.933087791213 237.25812779344153) rotate(0 54.83818644879375 0.9198570689703729)"><path d="M82.11 -9.01 C87.42 -5.13, 97.12 -2.34, 110.03 1.96 M82.11 -9.01 C89.1 -6.49, 95.73 -3.82, 110.03 1.96" stroke="#1e1e1e" stroke-width="1" fill="none"></path></g></g><mask></mask><g transform="translate(439.327436956165 184.2430472085572) rotate(0 18.75 9.600000000000023)"><text x="0" y="0" font-family="Cascadia, Segoe UI Emoji" font-size="16px" fill="#1e1e1e" text-anchor="start" style="white-space: pre;" direction="ltr" dominant-baseline="text-before-edge">gRPC</text></g><g stroke-linecap="round" transform="translate(433.82700664734875 377.4303888733715) rotate(0 74.5 34)"><path d="M17 0 C41.93 1.07, 72.42 -4.68, 132 0 C145.97 -0.42, 151.16 9.25, 149 17 C151.41 29.83, 147.03 38.34, 149 51 C145.84 61.05, 143.9 64.86, 132 68 C91.01 70.83, 46.03 65.5, 17 68 C4.54 67.3, 3.35 64.32, 0 51 C1.39 36.63, -2.73 24.9, 0 17 C0.02 2.62, 3.9 -1.74, 17 0" stroke="none" stroke-width="0" fill="#ffc9c9"></path><path d="M17 0 C59.94 1.5, 100.32 1.65, 132 0 M17 0 C55.16 -1.13, 91.24 -0.11, 132 0 M132 0 C144.97 -0.16, 148.17 3.78, 149 17 M132 0 C142.25 0.26, 149.49 6.23, 149 17 M149 17 C146.99 23.24, 150.39 31.97, 149 51 M149 17 C148.11 26.37, 148.94 33.91, 149 51 M149 51 C149.63 63.39, 143.77 66.36, 132 68 M149 51 C148.79 62.46, 142.49 69.44, 132 68 M132 68 C99.81 69.39, 68.49 68.56, 17 68 M132 68 C97.04 68.1, 61.81 68.46, 17 68 M17 68 C7.66 68.09, 0.99 63.79, 0 51 M17 68 C5.53 66.58, 0.64 61.83, 0 51 M0 51 C-0.94 40.9, -1.51 25.99, 0 17 M0 51 C-0.96 43.95, -0.97 35.35, 0 17 M0 17 C-0.47 4.11, 6.65 0.55, 17 0 M0 17 C2.07 6.75, 7.07 -0.22, 17 0" stroke="#1e1e1e" stroke-width="2" fill="none"></path></g><g transform="translate(463.68247539734875 401.8303888733716) rotate(0 44.64453125 9.600000000000023)"><text x="44.64453125" y="0" font-family="Cascadia, Segoe UI Emoji" font-size="16px" fill="#1e1e1e" text-anchor="middle" style="white-space: pre;" direction="ltr" dominant-baseline="text-before-edge">Order Service</text></g><g transform="translate(433.32675075298175 355.36207040270426) rotate(0 18.75 9.600000000000023)"><text x="0" y="0" font-family="Cascadia, Segoe UI Emoji" font-size="16px" fill="#1e1e1e" text-anchor="start" style="white-space: pre;" direction="ltr" dominant-baseline="text-before-edge">gRPC</text></g><g stroke-linecap="round"><g transform="translate(240.68849478872926 285.88147389353514) rotate(0 89.60223690763542 66.19739411435103)"><path d="M1.15 0.63 C5.09 19.88, -5.26 93.77, 24.36 115.83 C53.98 137.89, 152.92 130.23, 178.89 132.98 M0.29 -0.09 C4.11 19.29, -5.63 95.19, 23.99 117.03 C53.6 138.87, 151.8 128.22, 177.97 130.94" stroke="#1e1e1e" stroke-width="1" fill="none"></path></g><g transform="translate(240.68849478872926 285.88147389353514) rotate(0 89.60223690763542 66.19739411435103)"><path d="M149.76 141.15 C160.83 139.06, 168.78 133.09, 177.97 130.94 M149.76 141.15 C159.09 136.67, 168.87 134.17, 177.97 130.94" stroke="#1e1e1e" stroke-width="1" fill="none"></path></g><g transform="translate(240.68849478872926 285.88147389353514) rotate(0 89.60223690763542 66.19739411435103)"><path d="M149.8 120.63 C160.91 125.86, 168.84 127.19, 177.97 130.94 M149.8 120.63 C159.29 123.3, 169.05 127.95, 177.97 130.94" stroke="#1e1e1e" stroke-width="1" fill="none"></path></g></g><mask></mask><g stroke-linecap="round" transform="translate(448.22563524729685 33.23965059020645) rotate(0 74.5 34)"><path d="M17 0 C61.09 1.02, 111.62 -3.36, 132 0 C144.5 -3.16, 147.72 6.24, 149 17 C148.19 27.51, 153.12 34.03, 149 51 C147.26 61.21, 142.63 71.35, 132 68 C88.61 70.74, 47.76 66.62, 17 68 C3.21 68.02, -3.05 60.56, 0 51 C-3.12 40.31, -1.02 30.51, 0 17 C-0.4 3.88, 8.05 0.51, 17 0" stroke="none" stroke-width="0" fill="#ffc9c9"></path><path d="M17 0 C62.95 1.94, 106.79 -0.54, 132 0 M17 0 C40.86 0.12, 63.55 -0.57, 132 0 M132 0 C144.07 -1.86, 147.54 7.2, 149 17 M132 0 C142.83 -1.03, 148.48 3.98, 149 17 M149 17 C148.37 25.06, 150.29 32.3, 149 51 M149 17 C148.6 25.04, 148.67 31.12, 149 51 M149 51 C149.96 61.17, 144.17 66.55, 132 68 M149 51 C149.01 62.51, 142.87 67.98, 132 68 M132 68 C93.5 70.66, 53.19 69.66, 17 68 M132 68 C89.37 67.07, 46.69 67.94, 17 68 M17 68 C4.99 67.28, 1.79 61.04, 0 51 M17 68 C4.24 66.44, 0.85 62.37, 0 51 M0 51 C0.02 43.15, -1.84 37.23, 0 17 M0 51 C0.3 39.76, -1 28.32, 0 17 M0 17 C1.49 4.77, 7.12 1.29, 17 0 M0 17 C-2.01 7.35, 5.4 1.38, 17 0" stroke="#1e1e1e" stroke-width="2" fill="none"></path></g><g transform="translate(466.08501024729685 57.63965059020643) rotate(0 56.640625 9.600000000000023)"><text x="56.640625" y="0" font-family="Cascadia, Segoe UI Emoji" font-size="16px" fill="#1e1e1e" text-anchor="middle" style="white-space: pre;" direction="ltr" dominant-baseline="text-before-edge">Merchant Service</text></g><g stroke-linecap="round"><g transform="translate(245.3031863635233 200.96602473145015) rotate(0 95.1628459765841 -65.88411121677007)"><path d="M-0.5 -1.13 C3.3 -21.63, -8.05 -101.35, 23.8 -123.07 C55.65 -144.8, 162.97 -129.94, 190.58 -131.47 M1.44 0.89 C4.95 -19.39, -8.86 -99.65, 22.56 -121.47 C53.97 -143.28, 162.17 -128.33, 189.95 -130" stroke="#1e1e1e" stroke-width="1" fill="none"></path></g><g transform="translate(245.3031863635233 200.96602473145015) rotate(0 95.1628459765841 -65.88411121677007)"><path d="M161.41 -120.77 C170.43 -125.12, 183.45 -127.28, 189.95 -130 M161.41 -120.77 C171.11 -124.57, 179.27 -125.87, 189.95 -130" stroke="#1e1e1e" stroke-width="1" fill="none"></path></g><g transform="translate(245.3031863635233 200.96602473145015) rotate(0 95.1628459765841 -65.88411121677007)"><path d="M162.15 -141.28 C170.88 -137.8, 183.61 -132.12, 189.95 -130 M162.15 -141.28 C171.46 -138.42, 179.39 -133.07, 189.95 -130" stroke="#1e1e1e" stroke-width="1" fill="none"></path></g></g><mask></mask><g transform="translate(459.8399611218365 10) rotate(0 18.75 9.600000000000023)"><text x="0" y="0" font-family="Cascadia, Segoe UI Emoji" font-size="16px" fill="#1e1e1e" text-anchor="start" style="white-space: pre;" direction="ltr" dominant-baseline="text-before-edge">gRPC</text></g><g stroke-linecap="round" transform="translate(730.0996966019243 158.6934603440517) rotate(0 74.5 34)"><path d="M17 0 C41.2 1.39, 64.54 3.52, 132 0 C143.8 0.92, 146.41 7.15, 149 17 C147.77 27.39, 147.62 33.83, 149 51 C148.33 64.66, 143.35 70.83, 132 68 C99.59 67.54, 67.02 72.51, 17 68 C6.36 64.6, -1.3 63.76, 0 51 C0.68 43.81, -3.32 28.85, 0 17 C-1.09 2.86, 5.99 1.93, 17 0" stroke="none" stroke-width="0" fill="#fab005"></path><path d="M17 0 C52.98 -1.88, 84.74 -2.49, 132 0 M17 0 C58.48 0.14, 98.41 -0.15, 132 0 M132 0 C141.55 -1.14, 148.45 4.09, 149 17 M132 0 C141.28 -1.34, 149.29 7.75, 149 17 M149 17 C148.37 27.62, 147.89 35.97, 149 51 M149 17 C148.67 25.06, 148.86 33.86, 149 51 M149 51 C150.34 61.53, 143.41 66.63, 132 68 M149 51 C147.19 63.09, 142.77 67.53, 132 68 M132 68 C104.53 67.67, 80.56 69.4, 17 68 M132 68 C96.44 67.23, 58.96 69.05, 17 68 M17 68 C4.07 68.46, 1.17 63.52, 0 51 M17 68 C6.54 69.26, 1.91 61.36, 0 51 M0 51 C-1.21 39.05, -0.34 29.62, 0 17 M0 51 C-0.87 39.42, 0.38 25.6, 0 17 M0 17 C1.08 5.97, 6.45 -0.66, 17 0 M0 17 C1.89 6.88, 7.42 1.17, 17 0" stroke="#1e1e1e" stroke-width="2" fill="none"></path></g><g transform="translate(758.1778216019243 183.09346034405166) rotate(0 46.421875 9.600000000000023)"><text x="46.421875" y="0" font-family="Cascadia, Segoe UI Emoji" font-size="16px" fill="#1e1e1e" text-anchor="middle" style="white-space: pre;" direction="ltr" dominant-baseline="text-before-edge">User Database</text></g><g stroke-linecap="round" transform="translate(931.4166224471078 42.09208536702022) rotate(0 74.5 34)"><path d="M17 0 C42.28 0.09, 60.8 0.11, 132 0 C141.29 -0.27, 150.12 5.78, 149 17 C151.13 23.85, 151.61 33.8, 149 51 C149.4 65.75, 140.15 69.35, 132 68 C84.87 65.45, 43.63 65.98, 17 68 C7.99 70.44, -2.7 62.67, 0 51 C1.87 41.57, 0.2 32.62, 0 17 C-3.41 5.95, 4.78 2.39, 17 0" stroke="none" stroke-width="0" fill="#fab005"></path><path d="M17 0 C52.13 0.43, 84.75 0.68, 132 0 M17 0 C57.31 -1.74, 99.07 -0.64, 132 0 M132 0 C142.2 1.4, 150.01 3.97, 149 17 M132 0 C141.76 0.84, 150.93 3.73, 149 17 M149 17 C147.2 29.42, 149.23 44.6, 149 51 M149 17 C148.61 29.26, 149.03 40.98, 149 51 M149 51 C149.88 62.75, 144.78 67.98, 132 68 M149 51 C151.26 64.4, 144.5 68.97, 132 68 M132 68 C102.36 66.13, 75.45 66.44, 17 68 M132 68 C87.77 68.49, 42.43 67.55, 17 68 M17 68 C4.68 66.59, 1.65 62.57, 0 51 M17 68 C5.21 67.95, 0.07 60.17, 0 51 M0 51 C0.02 41.15, 1 30.69, 0 17 M0 51 C-0.61 41.95, -0.18 33.5, 0 17 M0 17 C-0.35 6.91, 5.31 -1.26, 17 0 M0 17 C1.36 7.12, 5.77 -1.64, 17 0" stroke="#1e1e1e" stroke-width="2" fill="none"></path></g><g transform="translate(943.9478724471078 66.4920853670202) rotate(0 61.96875 9.600000000000023)"><text x="61.96875" y="0" font-family="Cascadia, Segoe UI Emoji" font-size="16px" fill="#1e1e1e" text-anchor="middle" style="white-space: pre;" direction="ltr" dominant-baseline="text-before-edge">Merchant Database</text></g><g stroke-linecap="round" transform="translate(840.8654369277169 579.9693808065914) rotate(0 74.5 34)"><path d="M2.68 6.31 C2.68 6.31, 2.68 6.31, 2.68 6.31 M2.68 6.31 C2.68 6.31, 2.68 6.31, 2.68 6.31 M0.45 14.97 C4.11 12.56, 7.73 9.15, 12.26 1.38 M0.45 14.97 C4 10.32, 7.94 6.15, 12.26 1.38 M0.85 20.61 C4.1 13.28, 10.79 11.14, 18.56 0.23 M0.85 20.61 C4.88 16.11, 8.74 11.14, 18.56 0.23 M0.59 27.01 C7.61 16.67, 18.12 9.18, 23.55 0.59 M0.59 27.01 C6.25 19.68, 14.39 12.32, 23.55 0.59 M0.32 33.41 C8.82 25.2, 18.81 13.54, 29.19 0.2 M0.32 33.41 C8.08 23.32, 16.16 14.38, 29.19 0.2 M0.72 39.05 C9.24 29.95, 14.06 21.48, 34.18 0.56 M0.72 39.05 C11.24 25.9, 23.02 14.71, 34.18 0.56 M0.46 45.45 C11.81 32.33, 21.62 20.43, 39.82 0.16 M0.46 45.45 C14.48 30.08, 28.26 12.56, 39.82 0.16 M0.85 51.09 C12.27 37.66, 20.3 28.37, 44.81 0.52 M0.85 51.09 C14.39 35.5, 28.25 19.37, 44.81 0.52 M1.25 56.73 C11.15 42.72, 24.86 28.78, 50.45 0.13 M1.25 56.73 C16.59 38.32, 32.86 19.07, 50.45 0.13 M2.3 61.62 C19.68 43.44, 37.59 19.88, 55.44 0.49 M2.3 61.62 C21.49 38.17, 41.8 15.31, 55.44 0.49 M5.32 64.25 C23.4 43.94, 43.05 22.57, 61.08 0.1 M5.32 64.25 C15.72 49.88, 27.83 37.8, 61.08 0.1 M8.99 66.12 C24.59 46.99, 41.2 31.52, 66.07 0.46 M8.99 66.12 C29.76 41.2, 50.15 17.88, 66.07 0.46 M13.32 67.23 C33.42 47.64, 50.53 26.04, 71.71 0.06 M13.32 67.23 C28.8 50.25, 44.63 33.28, 71.71 0.06 M17.65 68.35 C36.07 46.71, 55.41 24.02, 76.7 0.42 M17.65 68.35 C30.57 52.5, 45.76 38.49, 76.7 0.42 M22.64 68.71 C38.9 52.79, 53.92 32.87, 82.34 0.03 M22.64 68.71 C39.94 48.64, 55.37 30.31, 82.34 0.03 M28.28 68.31 C46.04 47.88, 66.88 25.79, 87.33 0.39 M28.28 68.31 C51.01 41.37, 74.13 16.05, 87.33 0.39 M33.27 68.67 C50.11 50.81, 62.65 34.14, 92.97 -0.01 M33.27 68.67 C53.88 44.01, 76.41 19.45, 92.97 -0.01 M38.91 68.28 C56.95 48.79, 74.65 25.65, 97.96 0.35 M38.91 68.28 C61.35 41.58, 85.59 14.31, 97.96 0.35 M43.9 68.64 C66.5 42.47, 89.73 16.65, 103.6 -0.04 M43.9 68.64 C61.69 48.01, 79.06 27.98, 103.6 -0.04 M49.54 68.24 C64.19 50.72, 84.29 30.83, 108.59 0.32 M49.54 68.24 C67.1 49.09, 82.42 30.08, 108.59 0.32 M54.53 68.6 C73.18 47.89, 95.51 23.69, 114.23 -0.08 M54.53 68.6 C76.92 44.47, 98.61 19.36, 114.23 -0.08 M60.17 68.21 C81 46.73, 97.13 25.58, 119.22 0.28 M60.17 68.21 C82.32 41.57, 105.22 15.5, 119.22 0.28 M65.16 68.57 C89.08 45.09, 107.99 18.03, 124.86 -0.11 M65.16 68.57 C86.21 43.11, 107.62 19.31, 124.86 -0.11 M70.8 68.17 C85.6 50.05, 97.73 34.66, 129.85 0.25 M70.8 68.17 C90.87 44.18, 113.03 21.74, 129.85 0.25 M75.79 68.53 C89.79 53.15, 101.87 38.09, 134.83 0.61 M75.79 68.53 C96.94 41.77, 119.04 17.32, 134.83 0.61 M81.43 68.14 C96.04 49.82, 115.65 29.2, 139.17 1.72 M81.43 68.14 C99.97 47.78, 117.38 28.18, 139.17 1.72 M86.42 68.5 C103.12 48.81, 121.56 28.12, 143.5 2.84 M86.42 68.5 C108.16 41.96, 131.48 17.5, 143.5 2.84 M92.06 68.1 C106.17 50.39, 122.8 33.47, 145.86 6.22 M92.06 68.1 C108.02 49.63, 125.11 31.37, 145.86 6.22 M97.05 68.46 C109.05 56.55, 118.51 45.3, 147.57 10.35 M97.05 68.46 C112.95 51.2, 127.44 33.01, 147.57 10.35 M102.04 68.82 C115.27 53.78, 126.43 36.77, 149.27 14.49 M102.04 68.82 C115.26 54.24, 127.61 39.13, 149.27 14.49 M107.68 68.43 C121.24 51.84, 132.86 39.06, 149.01 20.88 M107.68 68.43 C118.92 53.81, 132.34 40.62, 149.01 20.88 M112.67 68.79 C123.57 58.54, 132.47 44.11, 149.41 26.53 M112.67 68.79 C121.2 56.44, 132.75 45.71, 149.41 26.53 M118.31 68.4 C128.94 53.56, 142.55 41.79, 149.14 32.92 M118.31 68.4 C127.29 59.58, 134.75 49.62, 149.14 32.92 M123.3 68.76 C134.42 57.15, 142.25 45.59, 148.88 39.32 M123.3 68.76 C129.72 61.95, 133.85 55.49, 148.88 39.32 M128.94 68.36 C136.35 60.6, 140.97 55.4, 149.28 44.96 M128.94 68.36 C136.83 59.12, 145.02 50.2, 149.28 44.96 M134.58 67.97 C140.55 61.85, 145.56 57.23, 149.02 51.36 M134.58 67.97 C139.74 63.06, 145.5 56.34, 149.02 51.36 M140.88 66.82 C141.79 63.78, 144.93 63.65, 147.44 59.27 M140.88 66.82 C143.49 64.17, 146.11 60.86, 147.44 59.27" stroke="#ffc9c9" stroke-width="0.5" fill="none"></path><path d="M17 0 C60.31 2.06, 107.51 -0.94, 132 0 M17 0 C49.05 -0.01, 81.75 1.71, 132 0 M132 0 C143.09 1.61, 149.64 5.94, 149 17 M132 0 C143.78 -1.99, 146.84 7.89, 149 17 M149 17 C149.77 29.35, 147.05 40.77, 149 51 M149 17 C149.11 29.42, 147.87 40.31, 149 51 M149 51 C148.2 61.95, 143.2 67.82, 132 68 M149 51 C149.7 62.29, 145.53 66.84, 132 68 M132 68 C94.05 68.53, 57.35 67.56, 17 68 M132 68 C95.47 67.22, 57.18 68.77, 17 68 M17 68 C7.18 66.95, -1.13 64.05, 0 51 M17 68 C6.38 67.9, 0.75 63.6, 0 51 M0 51 C0.31 38.15, -1.37 28.67, 0 17 M0 51 C0.35 39.07, -0.23 27.36, 0 17 M0 17 C0.5 6.77, 7.49 -0.89, 17 0 M0 17 C-1.16 4.39, 4.83 0.74, 17 0" stroke="#1e1e1e" stroke-width="1" fill="none"></path></g><g transform="translate(888.7052806777169 604.3693808065915) rotate(0 26.66015625 9.600000000000023)"><text x="26.66015625" y="0" font-family="Cascadia, Segoe UI Emoji" font-size="16px" fill="#1e1e1e" text-anchor="middle" style="white-space: pre;" direction="ltr" dominant-baseline="text-before-edge">Caching</text></g><g stroke-linecap="round"><g transform="translate(602.9942714290432 67.5626009840795) rotate(0 45.346905049448196 0.7152391232897344)"><path d="M-0.26 -1.18 C14.78 -1.05, 74.93 1, 90.24 1.4 M1.81 0.81 C16.64 1.1, 74.13 2.65, 89.05 2.93" stroke="#1e1e1e" stroke-width="1" fill="none"></path></g><g transform="translate(602.9942714290432 67.5626009840795) rotate(0 45.346905049448196 0.7152391232897344)"><path d="M60.63 12.53 C67.18 8.94, 77.67 8.35, 89.05 2.93 M60.63 12.53 C69.01 10.69, 76.33 6.76, 89.05 2.93" stroke="#1e1e1e" stroke-width="1" fill="none"></path></g><g transform="translate(602.9942714290432 67.5626009840795) rotate(0 45.346905049448196 0.7152391232897344)"><path d="M61.11 -7.99 C67.62 -5.39, 77.97 0.2, 89.05 2.93 M61.11 -7.99 C69.46 -3.97, 76.65 -2.04, 89.05 2.93" stroke="#1e1e1e" stroke-width="1" fill="none"></path></g></g><mask></mask><g stroke-linecap="round"><g transform="translate(598.4945031016896 218.5810495537529) rotate(0 65.50711095073643 -10.859806291523228)"><path d="M0.26 -0.74 C21.89 -4.01, 108.95 -17.13, 130.76 -20.64 M-1.06 1.48 C20.3 -2.01, 107.77 -18.53, 129.68 -22.2" stroke="#1e1e1e" stroke-width="1" fill="none"></path></g><g transform="translate(598.4945031016896 218.5810495537529) rotate(0 65.50711095073643 -10.859806291523228)"><path d="M103.75 -7.12 C112.58 -13.37, 125.56 -18.56, 129.68 -22.2 M103.75 -7.12 C110.99 -11.83, 119.68 -16.52, 129.68 -22.2" stroke="#1e1e1e" stroke-width="1" fill="none"></path></g><g transform="translate(598.4945031016896 218.5810495537529) rotate(0 65.50711095073643 -10.859806291523228)"><path d="M100.13 -27.32 C110.18 -25.84, 124.54 -23.28, 129.68 -22.2 M100.13 -27.32 C108.55 -26.1, 118.31 -24.83, 129.68 -22.2" stroke="#1e1e1e" stroke-width="1" fill="none"></path></g></g><mask></mask><g stroke-linecap="round"><g transform="translate(599.3077402480794 414.0597939304474) rotate(0 116.80540641643552 98.42728330287366)"><path d="M-1.08 -0.24 C18.04 28.81, 75.27 141.49, 114.57 174.22 C153.87 206.95, 215.05 192.38, 234.72 196.17 M0.55 -1.4 C20.04 27.33, 77.66 139.53, 116.66 172.62 C155.65 205.71, 215.26 192.87, 234.53 197.13" stroke="#1e1e1e" stroke-width="1" fill="none"></path></g><g transform="translate(599.3077402480794 414.0597939304474) rotate(0 116.80540641643552 98.42728330287366)"><path d="M206 206.41 C213.77 202.03, 223.97 203.2, 234.53 197.13 M206 206.41 C213.88 203.59, 220.21 201.95, 234.53 197.13" stroke="#1e1e1e" stroke-width="1" fill="none"></path></g><g transform="translate(599.3077402480794 414.0597939304474) rotate(0 116.80540641643552 98.42728330287366)"><path d="M206.71 185.9 C214.27 187.37, 224.26 194.42, 234.53 197.13 M206.71 185.9 C214.24 188.07, 220.4 191.42, 234.53 197.13" stroke="#1e1e1e" stroke-width="1" fill="none"></path></g></g><mask></mask><g stroke-linecap="round" transform="translate(1003.5209673874592 233.75692397961973) rotate(0 62.866144545276256 63.35728629953633)"><path d="M22.17 16.63 C22.17 16.63, 22.17 16.63, 22.17 16.63 M22.17 16.63 C22.17 16.63, 22.17 16.63, 22.17 16.63 M4.86 42.65 C15.91 33, 22.7 20.58, 33.07 10.19 M4.86 42.65 C14.82 31, 25.07 18.17, 33.07 10.19 M4.59 49.04 C18.85 32.47, 32.02 16.42, 43.96 3.76 M4.59 49.04 C12.36 38.87, 21.58 29.93, 43.96 3.76 M3.68 56.2 C21.75 35.43, 38.91 12.54, 50.26 2.61 M3.68 56.2 C15.62 43.71, 27.51 29.46, 50.26 2.61 M3.41 62.59 C16.05 45.35, 32.29 30.29, 55.24 2.97 M3.41 62.59 C15.25 50.31, 25.79 37.64, 55.24 2.97 M1.19 71.26 C15.63 52.72, 31.99 33.99, 60.23 3.33 M1.19 71.26 C14.31 54.82, 28.68 39.3, 60.23 3.33 M2.89 75.39 C25.89 48.82, 49.55 22.86, 65.22 3.69 M2.89 75.39 C20.41 55.62, 35.51 36.66, 65.22 3.69 M4.6 79.52 C19.04 61.01, 36.9 41.44, 70.2 4.05 M4.6 79.52 C22.63 58.79, 38.67 39.83, 70.2 4.05 M5.65 84.41 C22.49 63.91, 43.83 40.41, 75.19 4.41 M5.65 84.41 C32.65 55.88, 58.14 25.46, 75.19 4.41 M7.36 88.55 C31.2 61.13, 51.73 36.25, 80.83 4.02 M7.36 88.55 C33.77 57.75, 58.65 28.39, 80.83 4.02 M9.06 92.68 C31.35 62.48, 57.64 34.48, 83.85 6.64 M9.06 92.68 C38.88 58.48, 69.41 23.76, 83.85 6.64 M10.77 96.81 C37.3 63.2, 67.58 31.99, 87.53 8.51 M10.77 96.81 C30.35 72.78, 50.72 49.73, 87.53 8.51 M12.48 100.95 C41.32 66.29, 72.29 35.97, 91.2 10.38 M12.48 100.95 C40.39 69.2, 67.24 39.01, 91.2 10.38 M15.5 103.57 C47.78 68.96, 77.45 35.94, 94.88 12.25 M15.5 103.57 C33.94 82.96, 53.29 61.31, 94.88 12.25 M18.51 106.19 C44.92 74.54, 73.29 43.97, 98.55 14.12 M18.51 106.19 C42.81 76.5, 67.84 48.15, 98.55 14.12 M21.53 108.82 C43.14 85.21, 63.09 63.09, 102.23 15.99 M21.53 108.82 C52.81 72.71, 82.68 37.81, 102.23 15.99 M24.55 111.44 C44.94 85.86, 65.93 62.12, 105.9 17.86 M24.55 111.44 C47.88 85.71, 69.66 61.8, 105.9 17.86 M27.57 114.07 C57.83 82.3, 85.03 49.05, 108.27 21.24 M27.57 114.07 C58.83 78.75, 88.28 44.75, 108.27 21.24 M30.59 116.69 C51.47 93.18, 73.65 68.42, 110.63 24.62 M30.59 116.69 C56.88 87.69, 81.01 58.8, 110.63 24.62 M33.61 119.32 C64.62 82.43, 97.66 46.2, 112.99 28 M33.61 119.32 C57.96 90.81, 85.64 60.62, 112.99 28 M36.63 121.94 C54.15 103.2, 72.65 80.86, 115.35 31.38 M36.63 121.94 C56.09 99.61, 74.49 78.39, 115.35 31.38 M40.96 123.05 C66.44 93.79, 94.01 64.77, 117.72 34.75 M40.96 123.05 C64.79 96.29, 87.14 70.52, 117.72 34.75 M45.29 124.17 C61.43 105.4, 80.47 86.35, 119.42 38.89 M45.29 124.17 C70.29 95.8, 95.21 67.37, 119.42 38.89 M49.62 125.28 C70.73 102.91, 87.54 80.23, 121.79 42.27 M49.62 125.28 C65.72 107.28, 79.18 91.23, 121.79 42.27 M54.61 125.64 C79.15 97.56, 99.96 73.34, 122.84 47.15 M54.61 125.64 C79.99 94.41, 105.72 66.23, 122.84 47.15 M58.94 126.76 C83.61 97.74, 111.7 67.33, 123.89 52.04 M58.94 126.76 C79.5 104.07, 97.71 81.33, 123.89 52.04 M63.92 127.12 C80.2 107.94, 100.48 84.42, 124.28 57.69 M63.92 127.12 C80.28 108.22, 95.31 90.58, 124.28 57.69 M70.22 125.97 C92.03 101.25, 114.25 75.57, 125.33 62.57 M70.22 125.97 C88.02 104.26, 107.9 84.03, 125.33 62.57 M77.18 124.07 C91.74 104.37, 107.6 86.67, 125.73 68.22 M77.18 124.07 C96.68 101.57, 115.19 79.51, 125.73 68.22 M84.13 122.16 C94.62 112.59, 104.2 101.2, 126.78 73.11 M84.13 122.16 C98.35 105.96, 112.96 90.74, 126.78 73.11 M91.75 119.5 C104.22 107.35, 113.32 95.88, 123.24 83.28 M91.75 119.5 C98.71 111.3, 106.63 102.2, 123.24 83.28 M108.54 106.28 C109.87 103.81, 113.64 100.79, 119.04 94.2 M108.54 106.28 C111.21 103.7, 113.91 100.38, 119.04 94.2 M33.73 119.72 C33.73 119.72, 33.73 119.72, 33.73 119.72 M33.73 119.72 C33.73 119.72, 33.73 119.72, 33.73 119.72 M42.39 121.95 C30.77 112.16, 16.17 98.29, 9.18 93.09 M42.39 121.95 C28.76 110.83, 15.36 99.25, 9.18 93.09 M50.3 123.53 C35.19 111.99, 23.31 100.9, 6.52 85.48 M50.3 123.53 C36.73 111.54, 22.27 98.47, 6.52 85.48 M58.2 125.1 C35.46 104.66, 16.22 89.28, 3.86 77.87 M58.2 125.1 C42.53 112.27, 27.11 99.45, 3.86 77.87 M63.85 124.71 C40.69 106.19, 21.93 87.18, 1.2 70.25 M63.85 124.71 C43.06 108.81, 24.24 91.8, 1.2 70.25 M68.73 123.66 C48.84 108.21, 29.45 89.57, 1.57 65.27 M68.73 123.66 C48.79 105.22, 26.56 87.5, 1.57 65.27 M73.62 122.61 C50.8 104.83, 31.41 85.29, 1.93 60.28 M73.62 122.61 C50.72 103.34, 29.18 84.8, 1.93 60.28 M78.51 121.55 C52.53 99.48, 25.7 76.8, 2.29 55.29 M78.51 121.55 C47.39 94.29, 18.56 67.85, 2.29 55.29 M83.4 120.5 C56.49 99.52, 31.65 75.35, 2.65 50.31 M83.4 120.5 C55.36 96.63, 26.04 70.1, 2.65 50.31 M88.29 119.45 C56.85 92.04, 28.03 65.75, 3.01 45.32 M88.29 119.45 C63.05 96.88, 37.52 76.45, 3.01 45.32 M92.42 117.75 C74.88 100.49, 53.86 81.97, 3.37 40.33 M92.42 117.75 C58.58 88.37, 24.83 58.14, 3.37 40.33 M95.8 115.38 C74.85 95.09, 55.04 79.49, 5.99 37.31 M95.8 115.38 C68.68 92.56, 43.04 69.3, 5.99 37.31 M99.18 113.02 C66.33 82.86, 35.2 54.76, 8.61 34.29 M99.18 113.02 C79.46 96.62, 61.83 78.88, 8.61 34.29 M101.8 110 C69.75 82.39, 36.03 52.47, 11.24 31.28 M101.8 110 C66.1 78.96, 29.99 48.14, 11.24 31.28 M105.18 107.64 C71.2 77.22, 35.1 45.44, 13.11 27.6 M105.18 107.64 C68.65 76.94, 32.28 44.11, 13.11 27.6 M108.56 105.28 C88.47 90.28, 71.36 70.63, 15.73 24.58 M108.56 105.28 C82.6 82.72, 58.13 59.51, 15.73 24.58 M111.94 102.91 C92.92 85.74, 72.23 68.61, 18.36 21.56 M111.94 102.91 C78.21 73.44, 42.95 42.96, 18.36 21.56 M114.56 99.9 C77.66 68.7, 43.43 36.64, 20.98 18.54 M114.56 99.9 C85.05 73.72, 53.54 46.04, 20.98 18.54 M116.43 96.22 C89.09 71.67, 60.98 47.57, 23.6 15.52 M116.43 96.22 C93.31 73.8, 69.13 53.74, 23.6 15.52 M118.3 92.55 C84.1 62.23, 52.05 31.82, 26.98 13.16 M118.3 92.55 C97.35 73.45, 76.94 57.18, 26.98 13.16 M119.42 88.21 C86.06 59.13, 49.88 31.31, 31.12 11.46 M119.42 88.21 C92.49 63.95, 65.25 40.06, 31.12 11.46 M121.29 84.54 C88.77 57.49, 61.24 30.18, 34.5 9.09 M121.29 84.54 C90.67 57.61, 59.61 30.35, 34.5 9.09 M122.4 80.21 C97.65 58.87, 74.05 36.3, 37.88 6.73 M122.4 80.21 C101.53 61.29, 79.27 41.56, 37.88 6.73 M124.27 76.53 C104.85 60.53, 89.41 43.92, 42.01 5.02 M124.27 76.53 C106.21 61.01, 89.04 45.83, 42.01 5.02 M125.39 72.2 C95.57 47.37, 65.43 20.98, 45.39 2.66 M125.39 72.2 C98 50.32, 72.44 26.01, 45.39 2.66 M124.99 66.56 C96.57 43.76, 70.83 17.55, 49.52 0.95 M124.99 66.56 C95.39 41.19, 65.74 15.56, 49.52 0.95 M124.6 60.92 C107.98 45.37, 88.15 32.05, 55.92 1.22 M124.6 60.92 C105.02 44.89, 86.69 29.99, 55.92 1.22 M123.45 54.62 C106.14 39.97, 91 27.62, 63.07 2.13 M123.45 54.62 C102.55 36.69, 81.32 16.62, 63.07 2.13 M122.3 48.32 C106.05 34.58, 91.82 23.1, 69.47 2.39 M122.3 48.32 C105.66 33.33, 90.14 20.34, 69.47 2.39 M121.9 42.68 C105.99 30.32, 89.04 15.91, 75.87 2.66 M121.9 42.68 C108.42 30.81, 94.32 17.72, 75.87 2.66 M115.47 31.78 C105.26 25.66, 98.81 15.87, 86.79 6.85 M115.47 31.78 C103.34 22.36, 92.67 12.04, 86.79 6.85 M107.53 19.58 C106.63 17.71, 104.84 16.65, 102.25 14.99 M107.53 19.58 C106.02 18.37, 104.41 16.85, 102.25 14.99" stroke="#a5d8ff" stroke-width="0.5" fill="none"></path><path d="M48.08 1.23 C56.79 -1.7, 69.13 0.17, 78.65 2.77 C88.17 5.38, 98.19 10.5, 105.21 16.85 C112.23 23.21, 117.39 31.72, 120.76 40.91 C124.13 50.09, 126.33 62.12, 125.44 71.95 C124.55 81.79, 121.15 92.04, 115.42 99.9 C109.69 107.77, 99.9 114.79, 91.06 119.14 C82.23 123.49, 71.92 125.89, 62.4 126.01 C52.87 126.14, 42.48 124.3, 33.91 119.88 C25.34 115.46, 16.57 107.71, 11 99.49 C5.43 91.28, 1.75 80.37, 0.47 70.6 C-0.8 60.83, -0.29 49.9, 3.35 40.88 C6.98 31.86, 14.01 23.07, 22.3 16.49 C30.58 9.9, 47.15 4, 53.07 1.39 C58.98 -1.23, 57.71 -0.2, 57.81 0.8 M55.47 1.47 C64.84 -0.34, 77.54 2.32, 86.71 5.6 C95.87 8.89, 104.28 13.76, 110.45 21.16 C116.62 28.55, 121.61 39.98, 123.74 50 C125.87 60.02, 125.7 71.65, 123.22 81.29 C120.75 90.92, 115.42 101.09, 108.88 107.83 C102.33 114.57, 93.06 118.91, 83.94 121.73 C74.83 124.55, 63.75 126.01, 54.18 124.75 C44.62 123.5, 34.31 119.65, 26.54 114.21 C18.78 108.77, 12.18 100.89, 7.6 92.11 C3.02 83.33, -1.13 71.65, -0.92 61.55 C-0.72 51.45, 3.76 40.22, 8.85 31.52 C13.93 22.82, 21.53 14.74, 29.57 9.34 C37.62 3.94, 52.72 0.59, 57.12 -0.88 C61.53 -2.35, 55.76 -0.92, 56 0.52" stroke="#1e1e1e" stroke-width="1" fill="none"></path></g><g transform="translate(1038.441847317717 278.11384349917637) rotate(0 27.9921875 19.200000000000045)"><text x="27.9921875" y="0" font-family="Cascadia, Segoe UI Emoji" font-size="16px" fill="#1e1e1e" text-anchor="middle" style="white-space: pre;" direction="ltr" dominant-baseline="text-before-edge">Message</text><text x="27.9921875" y="19.2" font-family="Cascadia, Segoe UI Emoji" font-size="16px" fill="#1e1e1e" text-anchor="middle" style="white-space: pre;" direction="ltr" dominant-baseline="text-before-edge">Broker</text></g><g stroke-linecap="round"><g transform="translate(596.5074951290758 251.94631344003926) rotate(0 194.13115255763523 15.018936149892852)"><path d="M0.35 -0.79 C64.81 4.11, 322.63 25.08, 387.08 30.41 M-0.92 1.41 C63.86 6.45, 324.13 23.81, 389.18 28.49" stroke="#1e1e1e" stroke-width="1" fill="none"></path></g><g transform="translate(596.5074951290758 251.94631344003926) rotate(0 194.13115255763523 15.018936149892852)"><path d="M360.35 36.78 C368.35 32.03, 379.68 29.35, 389.18 28.49 M360.35 36.78 C371.78 33.75, 384.05 29.92, 389.18 28.49" stroke="#1e1e1e" stroke-width="1" fill="none"></path></g><g transform="translate(596.5074951290758 251.94631344003926) rotate(0 194.13115255763523 15.018936149892852)"><path d="M361.76 16.31 C369.48 18.23, 380.35 22.22, 389.18 28.49 M361.76 16.31 C372.61 21.42, 384.31 25.73, 389.18 28.49" stroke="#1e1e1e" stroke-width="1" fill="none"></path></g></g><mask></mask><g stroke-linecap="round"><g transform="translate(598.3164625001768 413.3500667156276) rotate(0 193.53645327192862 -50.27378882588005)"><path d="M-0.88 0.63 C31.06 -12.1, 127.55 -59.98, 192.3 -76.99 C257.05 -94, 355.02 -97.45, 387.61 -101.41 M0.85 -0.08 C32.6 -12.55, 127.04 -58.71, 191.42 -75.45 C255.8 -92.2, 354.28 -96.49, 387.13 -100.55" stroke="#1e1e1e" stroke-width="1" fill="none"></path></g><g transform="translate(598.3164625001768 413.3500667156276) rotate(0 193.53645327192862 -50.27378882588005)"><path d="M359.98 -87.79 C370.68 -91.88, 379.19 -95.69, 387.13 -100.55 M359.98 -87.79 C366.08 -91.57, 372.96 -92.9, 387.13 -100.55" stroke="#1e1e1e" stroke-width="1" fill="none"></path></g><g transform="translate(598.3164625001768 413.3500667156276) rotate(0 193.53645327192862 -50.27378882588005)"><path d="M358.13 -108.22 C369.37 -105.1, 378.54 -101.7, 387.13 -100.55 M358.13 -108.22 C364.78 -107.35, 372.08 -104.02, 387.13 -100.55" stroke="#1e1e1e" stroke-width="1" fill="none"></path></g></g><mask></mask><g stroke-linecap="round" transform="translate(1362.2952007463632 330.3610789629987) rotate(0 75.01631464967386 34)"><path d="M17 0 C43.37 -1.15, 70.03 -1.23, 133.03 0 C147.44 -2.54, 150.33 4.42, 150.03 17 C151.4 27.3, 147.64 29.55, 150.03 51 C149.49 60.77, 146.55 67.82, 133.03 68 C96.06 68.75, 61.96 67.28, 17 68 C2.89 69.65, 3.58 62.61, 0 51 C2.27 36.96, -1.92 26.26, 0 17 C2.58 3.9, 5.22 -1.6, 17 0" stroke="none" stroke-width="0" fill="#ffc9c9"></path><path d="M17 0 C41.39 0.26, 67.54 1.33, 133.03 0 M17 0 C63.51 1.42, 109.71 0.06, 133.03 0 M133.03 0 C143.6 0.31, 150.39 5.51, 150.03 17 M133.03 0 C145.19 -1.54, 149.8 6.49, 150.03 17 M150.03 17 C149.66 27.49, 151.81 43.21, 150.03 51 M150.03 17 C149.39 31.03, 150.65 42.38, 150.03 51 M150.03 51 C149.28 63.55, 145.14 67.09, 133.03 68 M150.03 51 C148.74 60.89, 142.52 68.85, 133.03 68 M133.03 68 C95.6 69.2, 57.95 69.65, 17 68 M133.03 68 C91.31 69.35, 50.76 69.21, 17 68 M17 68 C5.5 67.53, 0.05 63.76, 0 51 M17 68 C7.14 66.21, 2.04 62.09, 0 51 M0 51 C1.47 40.13, 1.66 32.6, 0 17 M0 51 C-0.71 38.52, -0.35 24.51, 0 17 M0 17 C1.93 5.33, 7.14 -1.14, 17 0 M0 17 C1.87 7.28, 7.95 1.3, 17 0" stroke="#1e1e1e" stroke-width="2" fill="none"></path></g><g transform="translate(1396.2138591460375 354.76107896299857) rotate(0 41.09765625 9.600000000000023)"><text x="41.09765625" y="0" font-family="Cascadia, Segoe UI Emoji" font-size="16px" fill="#1e1e1e" text-anchor="middle" style="white-space: pre;" direction="ltr" dominant-baseline="text-before-edge">Mail Service</text></g><g stroke-linecap="round"><g transform="translate(1347.3285169378764 359.9465247969264) rotate(0 -102.86458984136107 -19.286818199914592)"><path d="M0.86 1.14 C-33.66 -5.6, -172.56 -33.12, -206.86 -39.66 M-0.15 0.7 C-34.33 -6.01, -170.55 -31.87, -204.74 -38.7" stroke="#1e1e1e" stroke-width="1" fill="none"></path></g><g transform="translate(1347.3285169378764 359.9465247969264) rotate(0 -102.86458984136107 -19.286818199914592)"><path d="M-175.11 -43.4 C-182.61 -43.58, -195.75 -38.9, -204.74 -38.7 M-175.11 -43.4 C-185.44 -41.95, -194.86 -40.6, -204.74 -38.7" stroke="#1e1e1e" stroke-width="1" fill="none"></path></g><g transform="translate(1347.3285169378764 359.9465247969264) rotate(0 -102.86458984136107 -19.286818199914592)"><path d="M-179.02 -23.25 C-185.41 -29.87, -197.31 -31.61, -204.74 -38.7 M-179.02 -23.25 C-188.23 -28.56, -196.33 -34, -204.74 -38.7" stroke="#1e1e1e" stroke-width="1" fill="none"></path></g></g><mask></mask><g stroke-linecap="round" transform="translate(1357.0208099117604 236.05358895765005) rotate(0 89.13718968658122 34)"><path d="M17 0 C49.3 0.59, 77.53 3.81, 161.27 0 C169.68 1.03, 181.65 2.94, 178.27 17 C180.36 25.78, 178.45 38.32, 178.27 51 C181.43 61.04, 171.53 68.29, 161.27 68 C131.81 69.47, 96 65.89, 17 68 C8.19 69.71, -3.08 59.85, 0 51 C-0.89 41.86, -0.31 35.31, 0 17 C1.83 4.71, 8.07 -1.37, 17 0" stroke="none" stroke-width="0" fill="#ffc9c9"></path><path d="M17 0 C68.77 2.65, 124.9 3.32, 161.27 0 M17 0 C46.11 -0.31, 75.22 -0.9, 161.27 0 M161.27 0 C172.41 0.72, 179.5 5.48, 178.27 17 M161.27 0 C173.46 -0.39, 176.22 7.74, 178.27 17 M178.27 17 C179.22 28.99, 180.44 44.52, 178.27 51 M178.27 17 C178.54 24.05, 177.58 31.37, 178.27 51 M178.27 51 C176.67 63.07, 172.95 67.5, 161.27 68 M178.27 51 C180.39 61.61, 172.76 66.3, 161.27 68 M161.27 68 C114.62 66.59, 68.05 67.01, 17 68 M161.27 68 C107.55 68.38, 54.41 66.89, 17 68 M17 68 C7.44 67.79, -0.1 62.84, 0 51 M17 68 C3.54 69.79, -0.97 64.35, 0 51 M0 51 C-0.1 36.74, 1.17 24.43, 0 17 M0 51 C0.41 40.41, 0.48 31.67, 0 17 M0 17 C1.99 6.8, 3.99 1.72, 17 0 M0 17 C-1.74 6.51, 3.92 1.87, 17 0" stroke="#1e1e1e" stroke-width="2" fill="none"></path></g><g transform="translate(1366.8376870983416 260.4535889576499) rotate(0 79.3203125 9.600000000000023)"><text x="79.3203125" y="0" font-family="Cascadia, Segoe UI Emoji" font-size="16px" fill="#1e1e1e" text-anchor="middle" style="white-space: pre;" direction="ltr" dominant-baseline="text-before-edge">Logging/History Service</text></g><g stroke-linecap="round"><g transform="translate(1339.0119247092957 272.74432056597095) rotate(0 -96.83100414137834 4.918110554617556)"><path d="M1.17 -1.19 C-31.31 0.4, -161.69 8.2, -194.12 10.03 M0.33 0.79 C-32.42 2.57, -162.91 9.96, -195.31 11.66" stroke="#1e1e1e" stroke-width="1" fill="none"></path></g><g transform="translate(1339.0119247092957 272.74432056597095) rotate(0 -96.83100414137834 4.918110554617556)"><path d="M-167.73 -0.13 C-179.73 3.67, -187.48 9.1, -195.31 11.66 M-167.73 -0.13 C-175.84 3.49, -183.19 6.49, -195.31 11.66" stroke="#1e1e1e" stroke-width="1" fill="none"></path></g><g transform="translate(1339.0119247092957 272.74432056597095) rotate(0 -96.83100414137834 4.918110554617556)"><path d="M-166.6 20.36 C-179.09 16.7, -187.25 14.66, -195.31 11.66 M-166.6 20.36 C-175.12 17.99, -182.8 14.99, -195.31 11.66" stroke="#1e1e1e" stroke-width="1" fill="none"></path></g></g><mask></mask><g stroke-linecap="round" transform="translate(1657.5142599399364 239.4368037917519) rotate(0 65.30713256904528 32.52782292946699)"><path d="M16.26 0 C54.45 -3.24, 84.57 -1.05, 114.35 0 C123.63 2.18, 130.43 5.69, 130.61 16.26 C130.05 29.38, 128.57 39.13, 130.61 48.79 C132.26 63.21, 125.47 65.86, 114.35 65.06 C90.84 63.41, 70.65 68.47, 16.26 65.06 C3.65 64.6, -1.6 59.76, 0 48.79 C2.11 38.22, -0.49 33.16, 0 16.26 C-0.55 3.26, 5.16 2.42, 16.26 0" stroke="none" stroke-width="0" fill="#fab005"></path><path d="M16.26 0 C55.6 0.74, 94.15 1.1, 114.35 0 M16.26 0 C39.75 -0.44, 62.37 -0.52, 114.35 0 M114.35 0 C123.41 1.8, 132.26 7.12, 130.61 16.26 M114.35 0 C124.22 0.76, 129.45 7.58, 130.61 16.26 M130.61 16.26 C131.57 29.28, 129.45 39.6, 130.61 48.79 M130.61 16.26 C130.53 23.73, 131.27 31.38, 130.61 48.79 M130.61 48.79 C130.74 58.16, 125.77 66.08, 114.35 65.06 M130.61 48.79 C131.41 60.58, 123 67.05, 114.35 65.06 M114.35 65.06 C91.75 65.02, 71.51 66.25, 16.26 65.06 M114.35 65.06 C92.49 65.21, 69.8 65.73, 16.26 65.06 M16.26 65.06 C4.58 66.81, 1.66 61.41, 0 48.79 M16.26 65.06 C6.03 65.29, -1.42 61.32, 0 48.79 M0 48.79 C-0.31 41.36, -1.12 32.59, 0 16.26 M0 48.79 C-1.16 37.6, -1.08 25.07, 0 16.26 M0 16.26 C-1.52 7.05, 3.86 1.71, 16.26 0 M0 16.26 C-1.62 5.61, 4.63 -2.21, 16.26 0" stroke="#1e1e1e" stroke-width="1" fill="none"></path></g><g transform="translate(1687.1690487589817 262.364626721219) rotate(0 35.65234375 9.600000000000023)"><text x="35.65234375" y="0" font-family="Cascadia, Segoe UI Emoji" font-size="16px" fill="#1e1e1e" text-anchor="middle" style="white-space: pre;" direction="ltr" dominant-baseline="text-before-edge">Logs Table</text></g><g stroke-linecap="round"><g transform="translate(1547.6928213979695 272.49787949157565) rotate(0 48.058531889539154 0.5817346858166275)"><path d="M0.43 -0.8 C16.4 -0.52, 79.93 1.28, 96 1.59 M-0.8 1.39 C14.98 1.31, 78.77 -0.46, 94.99 -0.3" stroke="#1e1e1e" stroke-width="1" fill="none"></path></g><g transform="translate(1547.6928213979695 272.49787949157565) rotate(0 48.058531889539154 0.5817346858166275)"><path d="M66.91 10.28 C74.52 6.61, 85.5 4.67, 94.99 -0.3 M66.91 10.28 C74.14 8.15, 84.02 5.02, 94.99 -0.3" stroke="#1e1e1e" stroke-width="1" fill="none"></path></g><g transform="translate(1547.6928213979695 272.49787949157565) rotate(0 48.058531889539154 0.5817346858166275)"><path d="M66.68 -10.24 C74.34 -7.38, 85.4 -2.8, 94.99 -0.3 M66.68 -10.24 C74.05 -6.4, 84 -3.56, 94.99 -0.3" stroke="#1e1e1e" stroke-width="1" fill="none"></path></g></g><mask></mask><g transform="translate(1666.5074602154632 216.6077207903312) rotate(0 37.5 9.600000000000023)"><text x="0" y="0" font-family="Cascadia, Segoe UI Emoji" font-size="16px" fill="#1e1e1e" text-anchor="start" style="white-space: pre;" direction="ltr" dominant-baseline="text-before-edge">Postgres</text></g><g stroke-linecap="round"><g transform="translate(507.50087253113907 112.49713364179684) rotate(0 -1.4486855155903413 41.11189810331814)"><path d="M0 0 C-0.48 13.7, -2.41 68.52, -2.9 82.22 M0 0 C-0.48 13.7, -2.41 68.52, -2.9 82.22" stroke="#1e1e1e" stroke-width="1" fill="none"></path></g><g transform="translate(507.50087253113907 112.49713364179684) rotate(0 -1.4486855155903413 41.11189810331814)"><path d="M-12.16 53.69 C-9.76 61.08, -7.36 68.48, -2.9 82.22 M-12.16 53.69 C-8.8 64.03, -5.45 74.36, -2.9 82.22" stroke="#1e1e1e" stroke-width="1" fill="none"></path></g><g transform="translate(507.50087253113907 112.49713364179684) rotate(0 -1.4486855155903413 41.11189810331814)"><path d="M8.35 54.41 C5.43 61.62, 2.52 68.83, -2.9 82.22 M8.35 54.41 C4.27 64.49, 0.2 74.56, -2.9 82.22" stroke="#1e1e1e" stroke-width="1" fill="none"></path></g></g><mask></mask><g stroke-linecap="round"><g transform="translate(533.7288198884157 193.31319426998527) rotate(0 -0.060894275267173725 -41.23038215585524)"><path d="M0 0 C-0.02 -13.74, -0.1 -68.72, -0.12 -82.46 M0 0 C-0.02 -13.74, -0.1 -68.72, -0.12 -82.46" stroke="#1e1e1e" stroke-width="1" fill="none"></path></g><g transform="translate(533.7288198884157 193.31319426998527) rotate(0 -0.060894275267173725 -41.23038215585524)"><path d="M10.18 -54.29 C7.01 -62.95, 3.85 -71.61, -0.12 -82.46 M10.18 -54.29 C6.34 -64.78, 2.5 -75.28, -0.12 -82.46" stroke="#1e1e1e" stroke-width="1" fill="none"></path></g><g transform="translate(533.7288198884157 193.31319426998527) rotate(0 -0.060894275267173725 -41.23038215585524)"><path d="M-10.34 -54.25 C-7.2 -62.93, -4.06 -71.6, -0.12 -82.46 M-10.34 -54.25 C-6.53 -64.76, -2.73 -75.27, -0.12 -82.46" stroke="#1e1e1e" stroke-width="1" fill="none"></path></g></g><mask></mask><g stroke-linecap="round"><g transform="translate(508.32439616134207 290.00269540867237) rotate(0 -1.4486855155903413 41.11189810331814)"><path d="M0 0 C-0.48 13.7, -2.41 68.52, -2.9 82.22 M0 0 C-0.48 13.7, -2.41 68.52, -2.9 82.22" stroke="#1e1e1e" stroke-width="1" fill="none"></path></g><g transform="translate(508.32439616134207 290.00269540867237) rotate(0 -1.4486855155903413 41.11189810331814)"><path d="M-12.16 53.69 C-9.33 62.39, -6.51 71.09, -2.9 82.22 M-12.16 53.69 C-8.78 64.09, -5.41 74.49, -2.9 82.22" stroke="#1e1e1e" stroke-width="1" fill="none"></path></g><g transform="translate(508.32439616134207 290.00269540867237) rotate(0 -1.4486855155903413 41.11189810331814)"><path d="M8.35 54.41 C4.92 62.89, 1.49 71.37, -2.9 82.22 M8.35 54.41 C4.25 64.55, 0.15 74.69, -2.9 82.22" stroke="#1e1e1e" stroke-width="1" fill="none"></path></g></g><mask></mask><g stroke-linecap="round"><g transform="translate(534.5523435186183 370.8187560368609) rotate(0 -0.060894275267173725 -41.230382155855295)"><path d="M0 0 C-0.02 -13.74, -0.1 -68.72, -0.12 -82.46 M0 0 C-0.02 -13.74, -0.1 -68.72, -0.12 -82.46" stroke="#1e1e1e" stroke-width="1" fill="none"></path></g><g transform="translate(534.5523435186183 370.8187560368609) rotate(0 -0.060894275267173725 -41.230382155855295)"><path d="M10.18 -54.29 C7.86 -60.63, 5.54 -66.97, -0.12 -82.46 M10.18 -54.29 C6.17 -65.26, 2.15 -76.24, -0.12 -82.46" stroke="#1e1e1e" stroke-width="1" fill="none"></path></g><g transform="translate(534.5523435186183 370.8187560368609) rotate(0 -0.060894275267173725 -41.230382155855295)"><path d="M-10.34 -54.25 C-8.04 -60.61, -5.74 -66.96, -0.12 -82.46 M-10.34 -54.25 C-6.36 -65.25, -2.38 -76.24, -0.12 -82.46" stroke="#1e1e1e" stroke-width="1" fill="none"></path></g></g><mask></mask><g stroke-linecap="round" transform="translate(700.4137782796274 35.88603446329705) rotate(0 74.5 34)"><path d="M17 0 C40.73 -2.67, 64.73 2.42, 132 0 C140.08 0.8, 147.01 5.19, 149 17 C151.35 24.22, 147.37 40.1, 149 51 C149.62 63.85, 141.33 67.08, 132 68 C103.22 65.36, 76.2 67.76, 17 68 C7.33 66.02, 2.55 62.84, 0 51 C-1.58 42.31, 1.92 32.38, 0 17 C-2.11 2.11, 4.52 -0.77, 17 0" stroke="none" stroke-width="0" fill="#a5d8ff"></path><path d="M17 0 C40.06 0.73, 65.74 -0.37, 132 0 M17 0 C54.04 -1.82, 91.3 -1.24, 132 0 M132 0 C142.01 -1.29, 150.68 6.87, 149 17 M132 0 C141.28 0.84, 149.14 4.56, 149 17 M149 17 C148.93 29.32, 151.3 40.36, 149 51 M149 17 C147.86 26.43, 149.75 36.06, 149 51 M149 51 C150.07 62.58, 143.67 66.75, 132 68 M149 51 C146.99 62.76, 142.49 68.25, 132 68 M132 68 C87.56 70.36, 41.91 69.65, 17 68 M132 68 C92.75 67.79, 54.16 66.48, 17 68 M17 68 C4.03 67.24, 0.43 62.6, 0 51 M17 68 C6.97 69.87, 1.77 62.1, 0 51 M0 51 C1.3 39.53, -1.85 27.71, 0 17 M0 51 C0.85 43.35, -0.33 35.08, 0 17 M0 17 C0.56 5.01, 5.26 -0.19, 17 0 M0 17 C0.14 6.74, 5.46 0.66, 17 0" stroke="#1e1e1e" stroke-width="2" fill="none"></path></g><g transform="translate(716.6950282796274 60.28603446329703) rotate(0 58.21875 9.600000000000023)"><text x="58.21875" y="0" font-family="Cascadia, Segoe UI Emoji" font-size="16px" fill="#1e1e1e" text-anchor="middle" style="white-space: pre;" direction="ltr" dominant-baseline="text-before-edge">Google Maps API</text></g><g stroke-linecap="round"><g transform="translate(857.5309489689985 75.58377037290882) rotate(0 34.66122678347165 0.47481132580094254)"><path d="M0.68 0.87 C12.11 0.66, 57.16 -0.18, 68.77 -0.16 M-0.42 0.28 C10.78 0.69, 55.78 0.46, 67.53 0.8" stroke="#1e1e1e" stroke-width="1" fill="none"></path></g><g transform="translate(857.5309489689985 75.58377037290882) rotate(0 34.66122678347165 0.47481132580094254)"><path d="M39.23 10.77 C49.62 6.49, 55.37 5.87, 67.53 0.8 M39.23 10.77 C47.78 8.13, 56.28 4.85, 67.53 0.8" stroke="#1e1e1e" stroke-width="1" fill="none"></path></g><g transform="translate(857.5309489689985 75.58377037290882) rotate(0 34.66122678347165 0.47481132580094254)"><path d="M39.44 -9.75 C49.96 -7.47, 55.64 -1.54, 67.53 0.8 M39.44 -9.75 C47.74 -6.16, 56.17 -3.21, 67.53 0.8" stroke="#1e1e1e" stroke-width="1" fill="none"></path></g></g><mask></mask><g stroke-linecap="round" transform="translate(1107.9434563739128 574.7433435721167) rotate(0 74.5 34)"><path d="M17 0 C60.25 2.96, 97.69 1, 132 0 C144.61 -3.31, 148.16 5.58, 149 17 C150.57 27.18, 145.57 39.78, 149 51 C147.21 64.76, 145.39 69.79, 132 68 C95.94 70.24, 59.37 66.21, 17 68 C8.14 71.25, 2.62 62.84, 0 51 C-2.21 34.73, -3.38 25.19, 0 17 C-2.02 2.83, 4.27 -0.54, 17 0" stroke="none" stroke-width="0" fill="#a5d8ff"></path><path d="M17 0 C44.51 -0.75, 73.81 0.63, 132 0 M17 0 C58.12 -0.15, 97.3 0.41, 132 0 M132 0 C144.44 -1.83, 148.43 4.24, 149 17 M132 0 C142.4 1.05, 148.52 7.49, 149 17 M149 17 C149.17 30.62, 148.28 43.99, 149 51 M149 17 C148.4 25.35, 150.24 35.19, 149 51 M149 51 C148.14 62.57, 141.53 67.11, 132 68 M149 51 C150.06 61.06, 142.33 69.53, 132 68 M132 68 C107.77 68.2, 79.9 68.02, 17 68 M132 68 C92.19 68.09, 52.08 68.29, 17 68 M17 68 C4.72 67.07, 1.75 62.91, 0 51 M17 68 C7.08 69.23, 2.21 61.96, 0 51 M0 51 C0.38 43.79, 1.29 36.22, 0 17 M0 51 C0.58 36.5, 0.12 24.56, 0 17 M0 17 C-1.02 5.89, 5.53 -1.11, 17 0 M0 17 C1.73 7.67, 6.77 1.49, 17 0" stroke="#1e1e1e" stroke-width="2" fill="none"></path></g><g transform="translate(1145.7793938739128 599.1433435721168) rotate(0 36.6640625 9.600000000000023)"><text x="36.6640625" y="0" font-family="Cascadia, Segoe UI Emoji" font-size="16px" fill="#1e1e1e" text-anchor="middle" style="white-space: pre;" direction="ltr" dominant-baseline="text-before-edge">Xendit API</text></g><g stroke-linecap="round"><g transform="translate(1001.6342422145058 597.7295407326523) rotate(0 46.34503619272846 0.10436200745255064)"><path d="M0.61 -0.11 C16.05 0.03, 78.55 0.94, 93.72 0.99 M-0.52 -1.22 C14.75 -1.42, 77.57 -1.17, 93.31 -0.73" stroke="#1e1e1e" stroke-width="1" fill="none"></path></g><g transform="translate(1001.6342422145058 597.7295407326523) rotate(0 46.34503619272846 0.10436200745255064)"><path d="M64.97 9.14 C75.83 6.85, 88.37 -0.53, 93.31 -0.73 M64.97 9.14 C73.93 7.38, 82.51 3.79, 93.31 -0.73" stroke="#1e1e1e" stroke-width="1" fill="none"></path></g><g transform="translate(1001.6342422145058 597.7295407326523) rotate(0 46.34503619272846 0.10436200745255064)"><path d="M65.26 -11.38 C76.02 -5.66, 88.45 -5.03, 93.31 -0.73 M65.26 -11.38 C73.99 -7.1, 82.48 -4.65, 93.31 -0.73" stroke="#1e1e1e" stroke-width="1" fill="none"></path></g></g><mask></mask><g stroke-linecap="round"><g transform="translate(1100.6496155921745 621.4156287636539) rotate(0 -52.58072980012639 0)"><path d="M-0.31 0.94 C-17.81 0.73, -87.34 -1.08, -104.86 -1.11 M1.73 0.39 C-15.92 0.27, -87.64 0.11, -105.64 -0.16" stroke="#1e1e1e" stroke-width="1" fill="none"></path></g><g transform="translate(1100.6496155921745 621.4156287636539) rotate(0 -52.58072980012639 0)"><path d="M-77.38 -10.2 C-84.69 -6.6, -97.02 -4.35, -105.64 -0.16 M-77.38 -10.2 C-86.73 -6.06, -96.93 -2.18, -105.64 -0.16" stroke="#1e1e1e" stroke-width="1" fill="none"></path></g><g transform="translate(1100.6496155921745 621.4156287636539) rotate(0 -52.58072980012639 0)"><path d="M-77.53 10.32 C-84.83 7.46, -97.11 3.25, -105.64 -0.16 M-77.53 10.32 C-86.95 7.04, -97.09 3.5, -105.64 -0.16" stroke="#1e1e1e" stroke-width="1" fill="none"></path></g></g><mask></mask><g stroke-linecap="round" transform="translate(843.4099819913004 751.0033103271315) rotate(0 74.5 34)"><path d="M17 0 C40.41 3.67, 64.89 1.45, 132 0 C143.88 2.53, 145.71 3.45, 149 17 C150.8 28.72, 151.02 41.06, 149 51 C147.59 61.98, 145.09 69.51, 132 68 C104.26 65.87, 79.21 67.35, 17 68 C5.97 68.7, -0.28 63.48, 0 51 C2.65 34.53, -2.83 26.87, 0 17 C0.79 7.22, 2.27 -1.67, 17 0" stroke="none" stroke-width="0" fill="#a5d8ff"></path><path d="M17 0 C45.3 -0.7, 75.31 0.71, 132 0 M17 0 C57.31 0.61, 97.36 0.49, 132 0 M132 0 C143.3 1.38, 148.38 6.86, 149 17 M132 0 C143.72 -1.61, 147.32 7.35, 149 17 M149 17 C149 28.04, 148.72 35.04, 149 51 M149 17 C149.47 30.41, 149.34 42.88, 149 51 M149 51 C147.5 61.11, 142.68 69.61, 132 68 M149 51 C150.7 61.76, 144.72 69.93, 132 68 M132 68 C93.93 69.28, 55.11 68.05, 17 68 M132 68 C104.91 67.99, 78.94 68.8, 17 68 M17 68 C6.82 68.45, -1.15 64.3, 0 51 M17 68 C6.17 66.98, -1.33 60.62, 0 51 M0 51 C-0.65 39.84, -1.53 28.75, 0 17 M0 51 C-0.11 42.17, -0.08 32.53, 0 17 M0 17 C-0.43 4.13, 6.82 0.68, 17 0 M0 17 C0.11 3.64, 7.93 -1, 17 0" stroke="#1e1e1e" stroke-width="2" fill="none"></path></g><g transform="translate(859.6912319913004 775.4033103271316) rotate(0 58.21875 9.600000000000023)"><text x="58.21875" y="0" font-family="Cascadia, Segoe UI Emoji" font-size="16px" fill="#1e1e1e" text-anchor="middle" style="white-space: pre;" direction="ltr" dominant-baseline="text-before-edge">Google Maps API</text></g><g stroke-linecap="round"><g transform="translate(886.7062452383875 700.4610159805269) rotate(89.96718294506947 38.26940182536282 -0.5018912215346063)"><path d="M0.96 0.59 C13.52 0.34, 62.84 -1.52, 75.48 -1.82 M0.01 -0.15 C12.92 -0.23, 64.95 -0.74, 77.63 -0.71" stroke="#1e1e1e" stroke-width="1" fill="none"></path></g><g transform="translate(886.7062452383875 700.4610159805269) rotate(89.96718294506947 38.26940182536282 -0.5018912215346063)"><path d="M49.49 9.68 C59.21 4.47, 65.58 3.42, 77.63 -0.71 M49.49 9.68 C57.43 7.51, 65.1 4.48, 77.63 -0.71" stroke="#1e1e1e" stroke-width="1" fill="none"></path></g><g transform="translate(886.7062452383875 700.4610159805269) rotate(89.96718294506947 38.26940182536282 -0.5018912215346063)"><path d="M49.4 -10.84 C59.08 -9.7, 65.49 -4.4, 77.63 -0.71 M49.4 -10.84 C57.39 -7.2, 65.09 -4.42, 77.63 -0.71" stroke="#1e1e1e" stroke-width="1" fill="none"></path></g></g><mask></mask><g stroke-linecap="round"><g transform="translate(943.8894396955052 700.367455548076) rotate(89.96718294506947 -42.89146112670505 0.12742660180936127)"><path d="M-1.06 -0.82 C-15.48 -0.9, -71.45 -0.07, -85.54 0.05 M0.58 1.37 C-14.05 1.42, -71.89 1.54, -86.37 1.48" stroke="#1e1e1e" stroke-width="1" fill="none"></path></g><g transform="translate(943.8894396955052 700.367455548076) rotate(89.96718294506947 -42.89146112670505 0.12742660180936127)"><path d="M-58.17 -8.77 C-70.2 -4.72, -79.9 -0.94, -86.37 1.48 M-58.17 -8.77 C-66.11 -5.2, -73.26 -3.72, -86.37 1.48" stroke="#1e1e1e" stroke-width="1" fill="none"></path></g><g transform="translate(943.8894396955052 700.367455548076) rotate(89.96718294506947 -42.89146112670505 0.12742660180936127)"><path d="M-58.18 11.76 C-70.31 8, -80 3.98, -86.37 1.48 M-58.18 11.76 C-66.12 9.77, -73.26 5.69, -86.37 1.48" stroke="#1e1e1e" stroke-width="1" fill="none"></path></g></g><mask></mask><g transform="translate(942.1351633918425 20.40111488897378) rotate(0 37.5 9.600000000000023)"><text x="0" y="0" font-family="Cascadia, Segoe UI Emoji" font-size="16px" fill="#1e1e1e" text-anchor="start" style="white-space: pre;" direction="ltr" dominant-baseline="text-before-edge">Postgres</text></g><g transform="translate(734.7725483965946 133.17709890941478) rotate(0 37.5 9.600000000000023)"><text x="0" y="0" font-family="Cascadia, Segoe UI Emoji" font-size="16px" fill="#1e1e1e" text-anchor="start" style="white-space: pre;" direction="ltr" dominant-baseline="text-before-edge">Postgres</text></g><g transform="translate(846.5084240250412 393.1622999401769) rotate(0 34.2265625 9.600000000000023)"><text x="0" y="0" font-family="Cascadia, Segoe UI Emoji" font-size="16px" fill="#1e1e1e" text-anchor="start" style="white-space: pre;" direction="ltr" dominant-baseline="text-before-edge">MongoDB</text></g><g stroke-linecap="round" transform="translate(839.1942679728841 416.7397184281168) rotate(0 74.5 34)"><path d="M17 0 C64.59 -0.78, 105.07 -2.43, 132 0 C144.27 -2.62, 145.57 2.86, 149 17 C148.7 24.24, 151.82 37.3, 149 51 C150.13 62.55, 141.92 67.47, 132 68 C110.47 69.02, 87.28 65.58, 17 68 C2.32 64.73, 0.57 63.99, 0 51 C2.94 40.74, 1.17 24.42, 0 17 C2.29 7.86, 4.28 -0.41, 17 0" stroke="none" stroke-width="0" fill="#fab005"></path><path d="M17 0 C59.07 -1.84, 98.11 1.08, 132 0 M17 0 C44.96 0.47, 72.41 0.24, 132 0 M132 0 C142.89 1.65, 148.77 5.21, 149 17 M132 0 C142.06 1.63, 150.28 4.11, 149 17 M149 17 C150.05 28.46, 146.81 37.55, 149 51 M149 17 C148.36 29.16, 149.75 39.64, 149 51 M149 51 C149.18 61.25, 143.61 66.64, 132 68 M149 51 C149.6 60.37, 145.31 66.43, 132 68 M132 68 C106.73 67.11, 80.61 65.79, 17 68 M132 68 C107.74 69.11, 84.15 69.37, 17 68 M17 68 C4.06 68.74, -1.7 63.77, 0 51 M17 68 C3.88 69.32, 0.33 64.63, 0 51 M0 51 C0.54 40.73, -1.21 32.52, 0 17 M0 51 C-0.25 42.26, -0.5 32.08, 0 17 M0 17 C-0.64 7.33, 4.26 0.86, 17 0 M0 17 C1.22 7.14, 6.61 -1.81, 17 0" stroke="#1e1e1e" stroke-width="2" fill="none"></path></g><g transform="translate(860.6083304728841 441.1397184281169) rotate(0 53.0859375 9.600000000000023)"><text x="53.0859375" y="0" font-family="Cascadia, Segoe UI Emoji" font-size="16px" fill="#1e1e1e" text-anchor="middle" style="white-space: pre;" direction="ltr" dominant-baseline="text-before-edge">Orders Database</text></g><g stroke-linecap="round"><g transform="translate(888.225708517954 533.2280296706648) rotate(89.96718294506947 38.26940182536282 -0.5018912215346063)"><path d="M0.44 0.25 C13.43 -0.08, 64.91 -0.74, 77.42 -1.13 M-0.78 -0.67 C12.17 -0.88, 63.83 0.45, 76.94 0.34" stroke="#1e1e1e" stroke-width="1" fill="none"></path></g><g transform="translate(888.225708517954 533.2280296706648) rotate(89.96718294506947 38.26940182536282 -0.5018912215346063)"><path d="M48.64 10.31 C56.26 9.11, 62.91 3.35, 76.94 0.34 M48.64 10.31 C55.05 7.99, 59.65 6.09, 76.94 0.34" stroke="#1e1e1e" stroke-width="1" fill="none"></path></g><g transform="translate(888.225708517954 533.2280296706648) rotate(89.96718294506947 38.26940182536282 -0.5018912215346063)"><path d="M48.85 -10.21 C56.56 -6.13, 63.15 -6.61, 76.94 0.34 M48.85 -10.21 C55.42 -8.27, 59.97 -5.91, 76.94 0.34" stroke="#1e1e1e" stroke-width="1" fill="none"></path></g></g><mask></mask><g stroke-linecap="round"><g transform="translate(945.4089029750726 533.1344692382144) rotate(89.96718294506947 -42.89146112670505 0.12742660180936127)"><path d="M0.88 -0.13 C-13.66 -0.31, -72.57 -0.74, -86.82 -0.85 M-0.11 -1.24 C-14.34 -1.34, -70.54 -0.1, -84.65 0.11" stroke="#1e1e1e" stroke-width="1" fill="none"></path></g><g transform="translate(945.4089029750726 533.1344692382144) rotate(89.96718294506947 -42.89146112670505 0.12742660180936127)"><path d="M-56.65 -10.67 C-66.28 -8.56, -77.34 -1.23, -84.65 0.11 M-56.65 -10.67 C-63.22 -8.83, -69.19 -6.98, -84.65 0.11" stroke="#1e1e1e" stroke-width="1" fill="none"></path></g><g transform="translate(945.4089029750726 533.1344692382144) rotate(89.96718294506947 -42.89146112670505 0.12742660180936127)"><path d="M-56.27 9.85 C-66.07 5.05, -77.26 5.47, -84.65 0.11 M-56.27 9.85 C-63.05 7.3, -69.11 4.76, -84.65 0.11" stroke="#1e1e1e" stroke-width="1" fill="none"></path></g></g><mask></mask><g transform="translate(846.5912191904067 559.7070385192723) rotate(0 18.22265625 9.600000000000023)"><text x="0" y="0" font-family="Cascadia, Segoe UI Emoji" font-size="16px" fill="#1e1e1e" text-anchor="start" style="white-space: pre;" direction="ltr" dominant-baseline="text-before-edge">Redis</text></g></svg>