<svg version="1.1" xmlns="http://www.w3.org/2000/svg" viewBox="0 0 1528.128040992517 965.8898545887424" width="4584.384122977552" height="2897.6695637662274">
  <!-- svg-source:excalidraw -->
  
  <defs>
    <style class="style-fonts">
      @font-face {
        font-family: "Virgil";
        src: url("https://excalidraw.com/Virgil.woff2");
      }
      @font-face {
        font-family: "Cascadia";
        src: url("https://excalidraw.com/Cascadia.woff2");
      }
      @font-face {
        font-family: "Assistant";
        src: url("https://excalidraw.com/Assistant-Regular.woff2");
      }
    </style>
    
  </defs>
  <rect x="0" y="0" width="1528.128040992517" height="965.8898545887424" fill="#f5faff"></rect><g stroke-linecap="round" transform="translate(162.15625 291.588941503019) rotate(0 74.5 33.99999999999994)"><path d="M17 0 C54.68 1.16, 90.04 -0.67, 132 0 M17 0 C58.24 -1.2, 98.3 -0.2, 132 0 M132 0 C144.68 -1.19, 148.11 5.12, 149 17 M132 0 C144.67 -2.06, 150.43 6.55, 149 17 M149 17 C150.21 30.25, 149.07 42.67, 149 51 M149 17 C150.24 27.48, 149.07 39.51, 149 51 M149 51 C150.64 62.18, 142.5 66.11, 132 68 M149 51 C147.91 62.59, 143.82 68.57, 132 68 M132 68 C104.09 66.96, 81.43 67.98, 17 68 M132 68 C101.85 67.85, 73.34 66.72, 17 68 M17 68 C6.3 69.05, 0.44 60.69, 0 51 M17 68 C5.46 68.13, -0.85 63.77, 0 51 M0 51 C-0.92 42.66, -1.22 32.66, 0 17 M0 51 C0.5 40.65, 0.65 30.55, 0 17 M0 17 C2 5.75, 6.66 1.46, 17 0 M0 17 C-0.13 4.25, 6.3 -0.5, 17 0" stroke="#1e1e1e" stroke-width="2" fill="none"></path></g><g transform="translate(182.505859375 313.5889415030189) rotate(0 54.150390625 12)"><text x="54.150390625" y="0" font-family="Cascadia, Segoe UI Emoji" font-size="20px" fill="#1e1e1e" text-anchor="middle" style="white-space: pre;" direction="ltr" dominant-baseline="text-before-edge">API Gateway</text></g><g transform="translate(10 309.6888193418587) rotate(0 35.15625 12)"><text x="0" y="0" font-family="Cascadia, Segoe UI Emoji" font-size="20px" fill="#1e1e1e" text-anchor="start" style="white-space: pre;" direction="ltr" dominant-baseline="text-before-edge">Client</text></g><g stroke-linecap="round"><g transform="translate(89.68835089512231 325.19615952901825) rotate(0 30.692444728331793 0.7349223423840385)"><path d="M0 0 C10.23 0.24, 51.15 1.22, 61.38 1.47 M0 0 C10.23 0.24, 51.15 1.22, 61.38 1.47" stroke="#1e1e1e" stroke-width="1" fill="none"></path></g><g transform="translate(89.68835089512231 325.19615952901825) rotate(0 30.692444728331793 0.7349223423840385)"><path d="M32.96 11.05 C41.89 8.04, 50.83 5.03, 61.38 1.47 M32.96 11.05 C40.71 8.44, 48.47 5.82, 61.38 1.47" stroke="#1e1e1e" stroke-width="1" fill="none"></path></g><g transform="translate(89.68835089512231 325.19615952901825) rotate(0 30.692444728331793 0.7349223423840385)"><path d="M33.45 -9.46 C42.23 -6.03, 51.01 -2.59, 61.38 1.47 M33.45 -9.46 C41.07 -6.48, 48.69 -3.5, 61.38 1.47" stroke="#1e1e1e" stroke-width="1" fill="none"></path></g></g><mask></mask><g stroke-linecap="round" transform="translate(425.93070618859974 288.95736577007335) rotate(0 89.81252361174165 34)"><path d="M17 0 C45.62 2.39, 80.83 3.86, 162.63 0 C175.66 2.2, 179.28 3.18, 179.63 17 C182.69 28.19, 176.93 37.37, 179.63 51 C179.21 64.49, 177.54 67.88, 162.63 68 C114.13 67.24, 61.3 66.36, 17 68 C4.38 68.57, -3.14 65.39, 0 51 C3.82 42.95, -1.51 28.65, 0 17 C-0.7 9.02, 7.65 1.72, 17 0" stroke="none" stroke-width="0" fill="#ffc9c9"></path><path d="M17 0 C46.64 -1.87, 78.1 0.19, 162.63 0 M17 0 C48.27 -1.21, 77.87 0.16, 162.63 0 M162.63 0 C174.94 0.3, 180.75 6.15, 179.63 17 M162.63 0 C176.16 1.2, 181.72 4.45, 179.63 17 M179.63 17 C179.63 25.49, 177.9 34.7, 179.63 51 M179.63 17 C178.96 27.13, 180.07 37.23, 179.63 51 M179.63 51 C178.16 63.87, 173.52 67.1, 162.63 68 M179.63 51 C179.11 60.65, 172.08 69.6, 162.63 68 M162.63 68 C119.8 68.9, 73.23 68.28, 17 68 M162.63 68 C117.82 68.21, 74.11 68.33, 17 68 M17 68 C6.5 66.55, 0 62.49, 0 51 M17 68 C5.2 67.98, 0.99 62.59, 0 51 M0 51 C-0.08 39.82, 1.3 26.54, 0 17 M0 51 C0.4 43.55, -0.43 34.44, 0 17 M0 17 C1.79 4.38, 4.43 -1.35, 17 0 M0 17 C0.85 5.71, 3.76 1.95, 17 0" stroke="#1e1e1e" stroke-width="2" fill="none"></path></g><g transform="translate(459.4932298003414 313.35736577007344) rotate(0 56.25 9.600000000000023)"><text x="56.25" y="0" font-family="Cascadia, Segoe UI Emoji" font-size="16px" fill="#1e1e1e" text-anchor="middle" style="white-space: pre;" direction="ltr" dominant-baseline="text-before-edge">User Service</text></g><g stroke-linecap="round"><g transform="translate(318.933087791213 317.97520814268785) rotate(0 25.752936616643183 0.47752669918793345)"><path d="M0.7 -1.07 C0.91 -0.9, -7.87 0.51, 0.73 0.71 C9.32 0.92, 43.88 -0.01, 52.26 0.17 M-0.39 0.98 C-0.23 0.81, -8.54 -1.18, 0.17 -1.17 C8.88 -1.15, 43.41 0.93, 51.88 1.08" stroke="#1e1e1e" stroke-width="1" fill="none"></path></g><g transform="translate(318.933087791213 317.97520814268785) rotate(0 25.752936616643183 0.47752669918793345)"><path d="M27.31 8.89 C31.82 7.99, 40.66 5.97, 51.88 1.08 M27.31 8.89 C33.6 7.03, 39.45 5.29, 51.88 1.08" stroke="#1e1e1e" stroke-width="1" fill="none"></path></g><g transform="translate(318.933087791213 317.97520814268785) rotate(0 25.752936616643183 0.47752669918793345)"><path d="M28.04 -8.73 C32.32 -5.12, 40.97 -2.63, 51.88 1.08 M28.04 -8.73 C34.08 -6.45, 39.75 -4.05, 51.88 1.08" stroke="#1e1e1e" stroke-width="1" fill="none"></path></g></g><mask></mask><g transform="translate(439.327436956165 264.9601275578033) rotate(0 18.75 9.600000000000023)"><text x="0" y="0" font-family="Cascadia, Segoe UI Emoji" font-size="16px" fill="#1e1e1e" text-anchor="start" style="white-space: pre;" direction="ltr" dominant-baseline="text-before-edge">gRPC</text></g><g stroke-linecap="round" transform="translate(433.82700664734875 546.9632191527952) rotate(0 86.16668465656517 34)"><path d="M17 0 C47.32 0.76, 83.19 -5, 155.33 0 C169.31 -0.42, 174.49 9.25, 172.33 17 C174.74 29.83, 170.37 38.34, 172.33 51 C169.17 61.05, 167.24 64.86, 155.33 68 C105.36 70.68, 51.4 65.34, 17 68 C4.54 67.3, 3.35 64.32, 0 51 C1.39 36.63, -2.73 24.9, 0 17 C0.02 2.62, 3.9 -1.74, 17 0" stroke="none" stroke-width="0" fill="#ffc9c9"></path><path d="M17 0 C68.37 1.61, 117.17 1.76, 155.33 0 M17 0 C62.72 -1.25, 106.36 -0.24, 155.33 0 M155.33 0 C168.31 -0.16, 171.5 3.78, 172.33 17 M155.33 0 C165.58 0.26, 172.83 6.23, 172.33 17 M172.33 17 C170.33 23.24, 173.72 31.97, 172.33 51 M172.33 17 C171.44 26.37, 172.27 33.91, 172.33 51 M172.33 51 C172.97 63.39, 167.11 66.36, 155.33 68 M172.33 51 C172.13 62.46, 165.82 69.44, 155.33 68 M155.33 68 C116.85 69.5, 79.23 68.67, 17 68 M155.33 68 C113.2 68.1, 70.78 68.46, 17 68 M17 68 C7.66 68.09, 0.99 63.79, 0 51 M17 68 C5.53 66.58, 0.64 61.83, 0 51 M0 51 C-0.94 40.9, -1.51 25.99, 0 17 M0 51 C-0.96 43.95, -0.97 35.35, 0 17 M0 17 C-0.47 4.11, 6.65 0.55, 17 0 M0 17 C2.07 6.75, 7.07 -0.22, 17 0" stroke="#1e1e1e" stroke-width="2" fill="none"></path></g><g transform="translate(459.0561913039137 571.3632191527953) rotate(0 60.9375 9.600000000000023)"><text x="60.9375" y="0" font-family="Cascadia, Segoe UI Emoji" font-size="16px" fill="#1e1e1e" text-anchor="middle" style="white-space: pre;" direction="ltr" dominant-baseline="text-before-edge">Order Service</text></g><g transform="translate(439.3481575279088 518.8734939072007) rotate(0 18.75 9.600000000000023)"><text x="0" y="0" font-family="Cascadia, Segoe UI Emoji" font-size="16px" fill="#1e1e1e" text-anchor="start" style="white-space: pre;" direction="ltr" dominant-baseline="text-before-edge">gRPC</text></g><g stroke-linecap="round"><g transform="translate(240.68849478872926 366.59855424278123) rotate(0 70.89085415609975 104.29337214695875)"><path d="M1.15 0.63 C4.28 30.6, -3.91 145.34, 19.48 180.1 C42.87 214.86, 120.92 204.44, 141.47 209.17 M0.29 -0.09 C3.3 30, -4.27 146.76, 19.1 181.3 C42.48 215.84, 119.81 202.43, 140.54 207.13" stroke="#1e1e1e" stroke-width="1" fill="none"></path></g><g transform="translate(240.68849478872926 366.59855424278123) rotate(0 70.89085415609975 104.29337214695875)"><path d="M112 216.36 C123.19 214.62, 131.26 209, 140.54 207.13 M112 216.36 C121.46 212.22, 131.35 210.06, 140.54 207.13" stroke="#1e1e1e" stroke-width="1" fill="none"></path></g><g transform="translate(240.68849478872926 366.59855424278123) rotate(0 70.89085415609975 104.29337214695875)"><path d="M112.75 195.85 C123.72 201.43, 131.53 203.11, 140.54 207.13 M112.75 195.85 C122.11 198.86, 131.75 203.85, 140.54 207.13" stroke="#1e1e1e" stroke-width="1" fill="none"></path></g></g><mask></mask><g stroke-linecap="round" transform="translate(427.0051704155444 60.77251354080988) rotate(0 92.00002698484764 34)"><path d="M17 0 C75.07 0.69, 139.58 -3.68, 167 0 C179.5 -3.16, 182.72 6.24, 184 17 C183.19 27.51, 188.12 34.03, 184 51 C182.26 61.21, 177.63 71.35, 167 68 C111.18 71.05, 57.89 66.93, 17 68 C3.21 68.02, -3.05 60.56, 0 51 C-3.12 40.31, -1.02 30.51, 0 17 C-0.4 3.88, 8.05 0.51, 17 0" stroke="none" stroke-width="0" fill="#ffc9c9"></path><path d="M17 0 C76.64 2.03, 134.17 -0.45, 167 0 M17 0 C48.05 0.08, 77.94 -0.61, 167 0 M167 0 C179.07 -1.86, 182.54 7.2, 184 17 M167 0 C177.83 -1.03, 183.48 3.98, 184 17 M184 17 C183.37 25.06, 185.29 32.3, 184 51 M184 17 C183.6 25.04, 183.67 31.12, 184 51 M184 51 C184.96 61.17, 179.17 66.55, 167 68 M184 51 C184.01 62.51, 177.87 67.98, 167 68 M167 68 C116.5 70.87, 64.18 69.86, 17 68 M167 68 C111.32 66.86, 55.57 67.72, 17 68 M17 68 C4.99 67.28, 1.79 61.04, 0 51 M17 68 C4.24 66.44, 0.85 62.37, 0 51 M0 51 C0.02 43.15, -1.84 37.23, 0 17 M0 51 C0.3 39.76, -1 28.32, 0 17 M0 17 C1.49 4.77, 7.12 1.29, 17 0 M0 17 C-2.01 7.35, 5.4 1.38, 17 0" stroke="#1e1e1e" stroke-width="2" fill="none"></path></g><g transform="translate(444.0051974003918 85.17251354080986) rotate(0 75 9.600000000000023)"><text x="75" y="0" font-family="Cascadia, Segoe UI Emoji" font-size="16px" fill="#1e1e1e" text-anchor="middle" style="white-space: pre;" direction="ltr" dominant-baseline="text-before-edge">Merchant Service</text></g><g stroke-linecap="round"><g transform="translate(245.30318636352285 281.68310508069624) rotate(0 62.180308096915496 -94.6629985514844)"><path d="M-0.5 -1.13 C2.08 -29.49, -4.37 -138.94, 16.48 -170.26 C37.33 -201.58, 106.78 -185.76, 124.62 -189.03 M1.44 0.89 C3.73 -27.25, -5.19 -137.25, 15.23 -168.65 C35.66 -200.06, 105.98 -184.16, 123.99 -187.56" stroke="#1e1e1e" stroke-width="1" fill="none"></path></g><g transform="translate(245.30318636352285 281.68310508069624) rotate(0 62.180308096915496 -94.6629985514844)"><path d="M95.67 -177.66 C104.61 -182.27, 117.54 -184.68, 123.99 -187.56 M95.67 -177.66 C105.3 -181.68, 113.39 -183.19, 123.99 -187.56" stroke="#1e1e1e" stroke-width="1" fill="none"></path></g><g transform="translate(245.30318636352285 281.68310508069624) rotate(0 62.180308096915496 -94.6629985514844)"><path d="M95.93 -198.18 C104.75 -194.95, 117.58 -189.52, 123.99 -187.56 M95.93 -198.18 C105.33 -195.54, 113.33 -190.39, 123.99 -187.56" stroke="#1e1e1e" stroke-width="1" fill="none"></path></g></g><mask></mask><g transform="translate(446.41424128142717 31.994759248907485) rotate(0 18.75 9.600000000000023)"><text x="0" y="0" font-family="Cascadia, Segoe UI Emoji" font-size="16px" fill="#1e1e1e" text-anchor="start" style="white-space: pre;" direction="ltr" dominant-baseline="text-before-edge">gRPC</text></g><g stroke-linecap="round" transform="translate(772.2495440264142 295.1085533613756) rotate(0 93.45836256691837 34)"><path d="M17 0 C49.58 1.92, 81.31 4.05, 169.92 0 C181.72 0.92, 184.33 7.15, 186.92 17 C185.69 27.39, 185.54 33.83, 186.92 51 C186.25 64.66, 181.27 70.83, 169.92 68 C126.86 68.2, 83.63 73.18, 17 68 C6.36 64.6, -1.3 63.76, 0 51 C0.68 43.81, -3.32 28.85, 0 17 C-1.09 2.86, 5.99 1.93, 17 0" stroke="none" stroke-width="0" fill="#fab005"></path><path d="M17 0 C64.47 -2.06, 107.72 -2.67, 169.92 0 M17 0 C71.82 0.04, 125.1 -0.26, 169.92 0 M169.92 0 C179.47 -1.14, 186.37 4.09, 186.92 17 M169.92 0 C179.19 -1.34, 187.21 7.75, 186.92 17 M186.92 17 C186.28 27.62, 185.81 35.97, 186.92 51 M186.92 17 C186.59 25.06, 186.78 33.86, 186.92 51 M186.92 51 C188.25 61.53, 181.32 66.63, 169.92 68 M186.92 51 C185.1 63.09, 180.68 67.53, 169.92 68 M169.92 68 C133.78 67.48, 101.14 69.21, 17 68 M169.92 68 C122.31 67.27, 72.78 69.09, 17 68 M17 68 C4.07 68.46, 1.17 63.52, 0 51 M17 68 C6.54 69.26, 1.91 61.36, 0 51 M0 51 C-1.21 39.05, -0.34 29.62, 0 17 M0 51 C-0.87 39.42, 0.38 25.6, 0 17 M0 17 C1.08 5.97, 6.45 -0.66, 17 0 M0 17 C1.89 6.88, 7.42 1.17, 17 0" stroke="#1e1e1e" stroke-width="2" fill="none"></path></g><g transform="translate(804.7704065933326 319.5085533613757) rotate(0 60.9375 9.600000000000023)"><text x="60.9375" y="0" font-family="Cascadia, Segoe UI Emoji" font-size="16px" fill="#1e1e1e" text-anchor="middle" style="white-space: pre;" direction="ltr" dominant-baseline="text-before-edge">User Database</text></g><g stroke-linecap="round" transform="translate(937.2499647753898 62.59509796699342) rotate(0 88.22281800951805 34)"><path d="M17 0 C47.84 0.43, 71.9 0.45, 159.45 0 C168.73 -0.27, 177.57 5.78, 176.45 17 C178.58 23.85, 179.06 33.8, 176.45 51 C176.85 65.75, 167.6 69.35, 159.45 68 C101.82 65.12, 50.08 65.65, 17 68 C7.99 70.44, -2.7 62.67, 0 51 C1.87 41.57, 0.2 32.62, 0 17 C-3.41 5.95, 4.78 2.39, 17 0" stroke="none" stroke-width="0" fill="#fab005"></path><path d="M17 0 C60.22 0.63, 100.92 0.88, 159.45 0 M17 0 C67.1 -1.96, 118.65 -0.86, 159.45 0 M159.45 0 C169.64 1.4, 177.46 3.97, 176.45 17 M159.45 0 C169.21 0.84, 178.38 3.73, 176.45 17 M176.45 17 C174.65 29.42, 176.68 44.6, 176.45 51 M176.45 17 C176.06 29.26, 176.48 40.98, 176.45 51 M176.45 51 C177.33 62.75, 172.22 67.98, 159.45 68 M176.45 51 C178.71 64.4, 171.94 68.97, 159.45 68 M159.45 68 C122.91 65.9, 89.1 66.21, 17 68 M159.45 68 C104.62 68.53, 48.7 67.59, 17 68 M17 68 C4.68 66.59, 1.65 62.57, 0 51 M17 68 C5.21 67.95, 0.07 60.17, 0 51 M0 51 C0.02 41.15, 1 30.69, 0 17 M0 51 C-0.61 41.95, -0.18 33.5, 0 17 M0 17 C-0.35 6.91, 5.31 -1.26, 17 0 M0 17 C1.36 7.12, 5.77 -1.64, 17 0" stroke="#1e1e1e" stroke-width="2" fill="none"></path></g><g transform="translate(945.7852827849078 86.9950979669934) rotate(0 79.6875 9.600000000000023)"><text x="79.6875" y="0" font-family="Cascadia, Segoe UI Emoji" font-size="16px" fill="#1e1e1e" text-anchor="middle" style="white-space: pre;" direction="ltr" dominant-baseline="text-before-edge">Merchant Database</text></g><g stroke-linecap="round" transform="translate(823.1445380644059 697.8804622233264) rotate(0 74.5 34)"><path d="M2.68 6.31 C2.68 6.31, 2.68 6.31, 2.68 6.31 M2.68 6.31 C2.68 6.31, 2.68 6.31, 2.68 6.31 M0.45 14.97 C4.11 12.56, 7.73 9.15, 12.26 1.38 M0.45 14.97 C4 10.32, 7.94 6.15, 12.26 1.38 M0.85 20.61 C4.1 13.28, 10.79 11.14, 18.56 0.23 M0.85 20.61 C4.88 16.11, 8.74 11.14, 18.56 0.23 M0.59 27.01 C7.61 16.67, 18.12 9.18, 23.55 0.59 M0.59 27.01 C6.25 19.68, 14.39 12.32, 23.55 0.59 M0.32 33.41 C8.82 25.2, 18.81 13.54, 29.19 0.2 M0.32 33.41 C8.08 23.32, 16.16 14.38, 29.19 0.2 M0.72 39.05 C9.24 29.95, 14.06 21.48, 34.18 0.56 M0.72 39.05 C11.24 25.9, 23.02 14.71, 34.18 0.56 M0.46 45.45 C11.81 32.33, 21.62 20.43, 39.82 0.16 M0.46 45.45 C14.48 30.08, 28.26 12.56, 39.82 0.16 M0.85 51.09 C12.27 37.66, 20.3 28.37, 44.81 0.52 M0.85 51.09 C14.39 35.5, 28.25 19.37, 44.81 0.52 M1.25 56.73 C11.15 42.72, 24.86 28.78, 50.45 0.13 M1.25 56.73 C16.59 38.32, 32.86 19.07, 50.45 0.13 M2.3 61.62 C19.68 43.44, 37.59 19.88, 55.44 0.49 M2.3 61.62 C21.49 38.17, 41.8 15.31, 55.44 0.49 M5.32 64.25 C23.4 43.94, 43.05 22.57, 61.08 0.1 M5.32 64.25 C15.72 49.88, 27.83 37.8, 61.08 0.1 M8.99 66.12 C24.59 46.99, 41.2 31.52, 66.07 0.46 M8.99 66.12 C29.76 41.2, 50.15 17.88, 66.07 0.46 M13.32 67.23 C33.42 47.64, 50.53 26.04, 71.71 0.06 M13.32 67.23 C28.8 50.25, 44.63 33.28, 71.71 0.06 M17.65 68.35 C36.07 46.71, 55.41 24.02, 76.7 0.42 M17.65 68.35 C30.57 52.5, 45.76 38.49, 76.7 0.42 M22.64 68.71 C38.9 52.79, 53.92 32.87, 82.34 0.03 M22.64 68.71 C39.94 48.64, 55.37 30.31, 82.34 0.03 M28.28 68.31 C46.04 47.88, 66.88 25.79, 87.33 0.39 M28.28 68.31 C51.01 41.37, 74.13 16.05, 87.33 0.39 M33.27 68.67 C50.11 50.81, 62.65 34.14, 92.97 -0.01 M33.27 68.67 C53.88 44.01, 76.41 19.45, 92.97 -0.01 M38.91 68.28 C56.95 48.79, 74.65 25.65, 97.96 0.35 M38.91 68.28 C61.35 41.58, 85.59 14.31, 97.96 0.35 M43.9 68.64 C66.5 42.47, 89.73 16.65, 103.6 -0.04 M43.9 68.64 C61.69 48.01, 79.06 27.98, 103.6 -0.04 M49.54 68.24 C64.19 50.72, 84.29 30.83, 108.59 0.32 M49.54 68.24 C67.1 49.09, 82.42 30.08, 108.59 0.32 M54.53 68.6 C73.18 47.89, 95.51 23.69, 114.23 -0.08 M54.53 68.6 C76.92 44.47, 98.61 19.36, 114.23 -0.08 M60.17 68.21 C81 46.73, 97.13 25.58, 119.22 0.28 M60.17 68.21 C82.32 41.57, 105.22 15.5, 119.22 0.28 M65.16 68.57 C89.08 45.09, 107.99 18.03, 124.86 -0.11 M65.16 68.57 C86.21 43.11, 107.62 19.31, 124.86 -0.11 M70.8 68.17 C85.6 50.05, 97.73 34.66, 129.85 0.25 M70.8 68.17 C90.87 44.18, 113.03 21.74, 129.85 0.25 M75.79 68.53 C89.79 53.15, 101.87 38.09, 134.83 0.61 M75.79 68.53 C96.94 41.77, 119.04 17.32, 134.83 0.61 M81.43 68.14 C96.04 49.82, 115.65 29.2, 139.17 1.72 M81.43 68.14 C99.97 47.78, 117.38 28.18, 139.17 1.72 M86.42 68.5 C103.12 48.81, 121.56 28.12, 143.5 2.84 M86.42 68.5 C108.16 41.96, 131.48 17.5, 143.5 2.84 M92.06 68.1 C106.17 50.39, 122.8 33.47, 145.86 6.22 M92.06 68.1 C108.02 49.63, 125.11 31.37, 145.86 6.22 M97.05 68.46 C109.05 56.55, 118.51 45.3, 147.57 10.35 M97.05 68.46 C112.95 51.2, 127.44 33.01, 147.57 10.35 M102.04 68.82 C115.27 53.78, 126.43 36.77, 149.27 14.49 M102.04 68.82 C115.26 54.24, 127.61 39.13, 149.27 14.49 M107.68 68.43 C121.24 51.84, 132.86 39.06, 149.01 20.88 M107.68 68.43 C118.92 53.81, 132.34 40.62, 149.01 20.88 M112.67 68.79 C123.57 58.54, 132.47 44.11, 149.41 26.53 M112.67 68.79 C121.2 56.44, 132.75 45.71, 149.41 26.53 M118.31 68.4 C128.94 53.56, 142.55 41.79, 149.14 32.92 M118.31 68.4 C127.29 59.58, 134.75 49.62, 149.14 32.92 M123.3 68.76 C134.42 57.15, 142.25 45.59, 148.88 39.32 M123.3 68.76 C129.72 61.95, 133.85 55.49, 148.88 39.32 M128.94 68.36 C136.35 60.6, 140.97 55.4, 149.28 44.96 M128.94 68.36 C136.83 59.12, 145.02 50.2, 149.28 44.96 M134.58 67.97 C140.55 61.85, 145.56 57.23, 149.02 51.36 M134.58 67.97 C139.74 63.06, 145.5 56.34, 149.02 51.36 M140.88 66.82 C141.79 63.78, 144.93 63.65, 147.44 59.27 M140.88 66.82 C143.49 64.17, 146.11 60.86, 147.44 59.27" stroke="#ffc9c9" stroke-width="0.5" fill="none"></path><path d="M17 0 C60.31 2.06, 107.51 -0.94, 132 0 M17 0 C49.05 -0.01, 81.75 1.71, 132 0 M132 0 C143.09 1.61, 149.64 5.94, 149 17 M132 0 C143.78 -1.99, 146.84 7.89, 149 17 M149 17 C149.77 29.35, 147.05 40.77, 149 51 M149 17 C149.11 29.42, 147.87 40.31, 149 51 M149 51 C148.2 61.95, 143.2 67.82, 132 68 M149 51 C149.7 62.29, 145.53 66.84, 132 68 M132 68 C94.05 68.53, 57.35 67.56, 17 68 M132 68 C95.47 67.22, 57.18 68.77, 17 68 M17 68 C7.18 66.95, -1.13 64.05, 0 51 M17 68 C6.38 67.9, 0.75 63.6, 0 51 M0 51 C0.31 38.15, -1.37 28.67, 0 17 M0 51 C0.35 39.07, -0.23 27.36, 0 17 M0 17 C0.5 6.77, 7.49 -0.89, 17 0 M0 17 C-1.16 4.39, 4.83 0.74, 17 0" stroke="#1e1e1e" stroke-width="1" fill="none"></path></g><g transform="translate(870.9843818144059 722.2804622233265) rotate(0 26.66015625 9.600000000000023)"><text x="26.66015625" y="0" font-family="Cascadia, Segoe UI Emoji" font-size="16px" fill="#1e1e1e" text-anchor="middle" style="white-space: pre;" direction="ltr" dominant-baseline="text-before-edge">Caching</text></g><g stroke-linecap="round"><g transform="translate(616.7738605669861 92.44210916737438) rotate(0 38.457110480476786 -0.3896508615428047)"><path d="M-0.26 -1.18 C12.48 -1.42, 63.44 -0.84, 76.46 -0.81 M1.81 0.81 C14.35 0.73, 62.65 0.81, 75.27 0.72" stroke="#1e1e1e" stroke-width="1" fill="none"></path></g><g transform="translate(616.7738605669861 92.44210916737438) rotate(0 38.457110480476786 -0.3896508615428047)"><path d="M47.11 11.04 C53.58 7.23, 63.99 6.42, 75.27 0.72 M47.11 11.04 C55.41 9, 62.66 4.87, 75.27 0.72" stroke="#1e1e1e" stroke-width="1" fill="none"></path></g><g transform="translate(616.7738605669861 92.44210916737438) rotate(0 38.457110480476786 -0.3896508615428047)"><path d="M47.06 -9.48 C53.64 -7.1, 64.08 -1.73, 75.27 0.72 M47.06 -9.48 C55.49 -5.67, 62.75 -3.94, 75.27 0.72" stroke="#1e1e1e" stroke-width="1" fill="none"></path></g></g><mask></mask><g stroke-linecap="round"><g transform="translate(613.2722453076117 316.9329576203646) rotate(0 78.98864935940128 1.7907292422839873)"><path d="M0.26 -0.74 C26.38 0.21, 131.42 3.95, 157.73 4.66 M-1.06 1.48 C24.79 2.21, 130.24 2.55, 156.65 3.11" stroke="#1e1e1e" stroke-width="1" fill="none"></path></g><g transform="translate(613.2722453076117 316.9329576203646) rotate(0 78.98864935940128 1.7907292422839873)"><path d="M128.34 13.05 C138.04 8.76, 151.93 5.54, 156.65 3.11 M128.34 13.05 C136.31 9.83, 145.7 6.66, 156.65 3.11" stroke="#1e1e1e" stroke-width="1" fill="none"></path></g><g transform="translate(613.2722453076117 316.9329576203646) rotate(0 78.98864935940128 1.7907292422839873)"><path d="M128.57 -7.47 C138.01 -3.89, 151.8 0.75, 156.65 3.11 M128.57 -7.47 C136.59 -4.63, 145.92 -1.75, 156.65 3.11" stroke="#1e1e1e" stroke-width="1" fill="none"></path></g></g><mask></mask><g stroke-linecap="round"><g transform="translate(617.1028420536268 578.9084574029126) rotate(0 98.27693221838376 79.72324617634933)"><path d="M-1.08 -0.24 C15.21 23.17, 64.42 113.88, 97.55 140.38 C130.67 166.88, 181.33 155.56, 197.66 158.77 M0.55 -1.4 C17.2 21.69, 66.81 111.92, 99.63 138.78 C132.45 165.63, 181.54 156.06, 197.47 159.73" stroke="#1e1e1e" stroke-width="1" fill="none"></path></g><g transform="translate(617.1028420536268 578.9084574029126) rotate(0 98.27693221838376 79.72324617634933)"><path d="M168.82 168.61 C176.62 164.33, 186.86 165.63, 197.47 159.73 M168.82 168.61 C176.72 165.88, 183.09 164.34, 197.47 159.73" stroke="#1e1e1e" stroke-width="1" fill="none"></path></g><g transform="translate(617.1028420536268 578.9084574029126) rotate(0 98.27693221838376 79.72324617634933)"><path d="M169.81 148.11 C177.32 149.69, 187.27 156.84, 197.47 159.73 M169.81 148.11 C177.3 150.37, 183.42 153.82, 197.47 159.73" stroke="#1e1e1e" stroke-width="1" fill="none"></path></g></g><mask></mask><g stroke-linecap="round" transform="translate(1093.452768608006 350.56714089510444) rotate(0 62.866144545276256 63.35728629953633)"><path d="M22.17 16.63 C22.17 16.63, 22.17 16.63, 22.17 16.63 M22.17 16.63 C22.17 16.63, 22.17 16.63, 22.17 16.63 M4.86 42.65 C15.91 33, 22.7 20.58, 33.07 10.19 M4.86 42.65 C14.82 31, 25.07 18.17, 33.07 10.19 M4.59 49.04 C18.85 32.47, 32.02 16.42, 43.96 3.76 M4.59 49.04 C12.36 38.87, 21.58 29.93, 43.96 3.76 M3.68 56.2 C21.75 35.43, 38.91 12.54, 50.26 2.61 M3.68 56.2 C15.62 43.71, 27.51 29.46, 50.26 2.61 M3.41 62.59 C16.05 45.35, 32.29 30.29, 55.24 2.97 M3.41 62.59 C15.25 50.31, 25.79 37.64, 55.24 2.97 M1.19 71.26 C15.63 52.72, 31.99 33.99, 60.23 3.33 M1.19 71.26 C14.31 54.82, 28.68 39.3, 60.23 3.33 M2.89 75.39 C25.89 48.82, 49.55 22.86, 65.22 3.69 M2.89 75.39 C20.41 55.62, 35.51 36.66, 65.22 3.69 M4.6 79.52 C19.04 61.01, 36.9 41.44, 70.2 4.05 M4.6 79.52 C22.63 58.79, 38.67 39.83, 70.2 4.05 M5.65 84.41 C22.49 63.91, 43.83 40.41, 75.19 4.41 M5.65 84.41 C32.65 55.88, 58.14 25.46, 75.19 4.41 M7.36 88.55 C31.2 61.13, 51.73 36.25, 80.83 4.02 M7.36 88.55 C33.77 57.75, 58.65 28.39, 80.83 4.02 M9.06 92.68 C31.35 62.48, 57.64 34.48, 83.85 6.64 M9.06 92.68 C38.88 58.48, 69.41 23.76, 83.85 6.64 M10.77 96.81 C37.3 63.2, 67.58 31.99, 87.53 8.51 M10.77 96.81 C30.35 72.78, 50.72 49.73, 87.53 8.51 M12.48 100.95 C41.32 66.29, 72.29 35.97, 91.2 10.38 M12.48 100.95 C40.39 69.2, 67.24 39.01, 91.2 10.38 M15.5 103.57 C47.78 68.96, 77.45 35.94, 94.88 12.25 M15.5 103.57 C33.94 82.96, 53.29 61.31, 94.88 12.25 M18.51 106.19 C44.92 74.54, 73.29 43.97, 98.55 14.12 M18.51 106.19 C42.81 76.5, 67.84 48.15, 98.55 14.12 M21.53 108.82 C43.14 85.21, 63.09 63.09, 102.23 15.99 M21.53 108.82 C52.81 72.71, 82.68 37.81, 102.23 15.99 M24.55 111.44 C44.94 85.86, 65.93 62.12, 105.9 17.86 M24.55 111.44 C47.88 85.71, 69.66 61.8, 105.9 17.86 M27.57 114.07 C57.83 82.3, 85.03 49.05, 108.27 21.24 M27.57 114.07 C58.83 78.75, 88.28 44.75, 108.27 21.24 M30.59 116.69 C51.47 93.18, 73.65 68.42, 110.63 24.62 M30.59 116.69 C56.88 87.69, 81.01 58.8, 110.63 24.62 M33.61 119.32 C64.62 82.43, 97.66 46.2, 112.99 28 M33.61 119.32 C57.96 90.81, 85.64 60.62, 112.99 28 M36.63 121.94 C54.15 103.2, 72.65 80.86, 115.35 31.38 M36.63 121.94 C56.09 99.61, 74.49 78.39, 115.35 31.38 M40.96 123.05 C66.44 93.79, 94.01 64.77, 117.72 34.75 M40.96 123.05 C64.79 96.29, 87.14 70.52, 117.72 34.75 M45.29 124.17 C61.43 105.4, 80.47 86.35, 119.42 38.89 M45.29 124.17 C70.29 95.8, 95.21 67.37, 119.42 38.89 M49.62 125.28 C70.73 102.91, 87.54 80.23, 121.79 42.27 M49.62 125.28 C65.72 107.28, 79.18 91.23, 121.79 42.27 M54.61 125.64 C79.15 97.56, 99.96 73.34, 122.84 47.15 M54.61 125.64 C79.99 94.41, 105.72 66.23, 122.84 47.15 M58.94 126.76 C83.61 97.74, 111.7 67.33, 123.89 52.04 M58.94 126.76 C79.5 104.07, 97.71 81.33, 123.89 52.04 M63.92 127.12 C80.2 107.94, 100.48 84.42, 124.28 57.69 M63.92 127.12 C80.28 108.22, 95.31 90.58, 124.28 57.69 M70.22 125.97 C92.03 101.25, 114.25 75.57, 125.33 62.57 M70.22 125.97 C88.02 104.26, 107.9 84.03, 125.33 62.57 M77.18 124.07 C91.74 104.37, 107.6 86.67, 125.73 68.22 M77.18 124.07 C96.68 101.57, 115.19 79.51, 125.73 68.22 M84.13 122.16 C94.62 112.59, 104.2 101.2, 126.78 73.11 M84.13 122.16 C98.35 105.96, 112.96 90.74, 126.78 73.11 M91.75 119.5 C104.22 107.35, 113.32 95.88, 123.24 83.28 M91.75 119.5 C98.71 111.3, 106.63 102.2, 123.24 83.28 M108.54 106.28 C109.87 103.81, 113.64 100.79, 119.04 94.2 M108.54 106.28 C111.21 103.7, 113.91 100.38, 119.04 94.2 M33.73 119.72 C33.73 119.72, 33.73 119.72, 33.73 119.72 M33.73 119.72 C33.73 119.72, 33.73 119.72, 33.73 119.72 M42.39 121.95 C30.77 112.16, 16.17 98.29, 9.18 93.09 M42.39 121.95 C28.76 110.83, 15.36 99.25, 9.18 93.09 M50.3 123.53 C35.19 111.99, 23.31 100.9, 6.52 85.48 M50.3 123.53 C36.73 111.54, 22.27 98.47, 6.52 85.48 M58.2 125.1 C35.46 104.66, 16.22 89.28, 3.86 77.87 M58.2 125.1 C42.53 112.27, 27.11 99.45, 3.86 77.87 M63.85 124.71 C40.69 106.19, 21.93 87.18, 1.2 70.25 M63.85 124.71 C43.06 108.81, 24.24 91.8, 1.2 70.25 M68.73 123.66 C48.84 108.21, 29.45 89.57, 1.57 65.27 M68.73 123.66 C48.79 105.22, 26.56 87.5, 1.57 65.27 M73.62 122.61 C50.8 104.83, 31.41 85.29, 1.93 60.28 M73.62 122.61 C50.72 103.34, 29.18 84.8, 1.93 60.28 M78.51 121.55 C52.53 99.48, 25.7 76.8, 2.29 55.29 M78.51 121.55 C47.39 94.29, 18.56 67.85, 2.29 55.29 M83.4 120.5 C56.49 99.52, 31.65 75.35, 2.65 50.31 M83.4 120.5 C55.36 96.63, 26.04 70.1, 2.65 50.31 M88.29 119.45 C56.85 92.04, 28.03 65.75, 3.01 45.32 M88.29 119.45 C63.05 96.88, 37.52 76.45, 3.01 45.32 M92.42 117.75 C74.88 100.49, 53.86 81.97, 3.37 40.33 M92.42 117.75 C58.58 88.37, 24.83 58.14, 3.37 40.33 M95.8 115.38 C74.85 95.09, 55.04 79.49, 5.99 37.31 M95.8 115.38 C68.68 92.56, 43.04 69.3, 5.99 37.31 M99.18 113.02 C66.33 82.86, 35.2 54.76, 8.61 34.29 M99.18 113.02 C79.46 96.62, 61.83 78.88, 8.61 34.29 M101.8 110 C69.75 82.39, 36.03 52.47, 11.24 31.28 M101.8 110 C66.1 78.96, 29.99 48.14, 11.24 31.28 M105.18 107.64 C71.2 77.22, 35.1 45.44, 13.11 27.6 M105.18 107.64 C68.65 76.94, 32.28 44.11, 13.11 27.6 M108.56 105.28 C88.47 90.28, 71.36 70.63, 15.73 24.58 M108.56 105.28 C82.6 82.72, 58.13 59.51, 15.73 24.58 M111.94 102.91 C92.92 85.74, 72.23 68.61, 18.36 21.56 M111.94 102.91 C78.21 73.44, 42.95 42.96, 18.36 21.56 M114.56 99.9 C77.66 68.7, 43.43 36.64, 20.98 18.54 M114.56 99.9 C85.05 73.72, 53.54 46.04, 20.98 18.54 M116.43 96.22 C89.09 71.67, 60.98 47.57, 23.6 15.52 M116.43 96.22 C93.31 73.8, 69.13 53.74, 23.6 15.52 M118.3 92.55 C84.1 62.23, 52.05 31.82, 26.98 13.16 M118.3 92.55 C97.35 73.45, 76.94 57.18, 26.98 13.16 M119.42 88.21 C86.06 59.13, 49.88 31.31, 31.12 11.46 M119.42 88.21 C92.49 63.95, 65.25 40.06, 31.12 11.46 M121.29 84.54 C88.77 57.49, 61.24 30.18, 34.5 9.09 M121.29 84.54 C90.67 57.61, 59.61 30.35, 34.5 9.09 M122.4 80.21 C97.65 58.87, 74.05 36.3, 37.88 6.73 M122.4 80.21 C101.53 61.29, 79.27 41.56, 37.88 6.73 M124.27 76.53 C104.85 60.53, 89.41 43.92, 42.01 5.02 M124.27 76.53 C106.21 61.01, 89.04 45.83, 42.01 5.02 M125.39 72.2 C95.57 47.37, 65.43 20.98, 45.39 2.66 M125.39 72.2 C98 50.32, 72.44 26.01, 45.39 2.66 M124.99 66.56 C96.57 43.76, 70.83 17.55, 49.52 0.95 M124.99 66.56 C95.39 41.19, 65.74 15.56, 49.52 0.95 M124.6 60.92 C107.98 45.37, 88.15 32.05, 55.92 1.22 M124.6 60.92 C105.02 44.89, 86.69 29.99, 55.92 1.22 M123.45 54.62 C106.14 39.97, 91 27.62, 63.07 2.13 M123.45 54.62 C102.55 36.69, 81.32 16.62, 63.07 2.13 M122.3 48.32 C106.05 34.58, 91.82 23.1, 69.47 2.39 M122.3 48.32 C105.66 33.33, 90.14 20.34, 69.47 2.39 M121.9 42.68 C105.99 30.32, 89.04 15.91, 75.87 2.66 M121.9 42.68 C108.42 30.81, 94.32 17.72, 75.87 2.66 M115.47 31.78 C105.26 25.66, 98.81 15.87, 86.79 6.85 M115.47 31.78 C103.34 22.36, 92.67 12.04, 86.79 6.85 M107.53 19.58 C106.63 17.71, 104.84 16.65, 102.25 14.99 M107.53 19.58 C106.02 18.37, 104.41 16.85, 102.25 14.99" stroke="#a5d8ff" stroke-width="0.5" fill="none"></path><path d="M48.08 1.23 C56.79 -1.7, 69.13 0.17, 78.65 2.77 C88.17 5.38, 98.19 10.5, 105.21 16.85 C112.23 23.21, 117.39 31.72, 120.76 40.91 C124.13 50.09, 126.33 62.12, 125.44 71.95 C124.55 81.79, 121.15 92.04, 115.42 99.9 C109.69 107.77, 99.9 114.79, 91.06 119.14 C82.23 123.49, 71.92 125.89, 62.4 126.01 C52.87 126.14, 42.48 124.3, 33.91 119.88 C25.34 115.46, 16.57 107.71, 11 99.49 C5.43 91.28, 1.75 80.37, 0.47 70.6 C-0.8 60.83, -0.29 49.9, 3.35 40.88 C6.98 31.86, 14.01 23.07, 22.3 16.49 C30.58 9.9, 47.15 4, 53.07 1.39 C58.98 -1.23, 57.71 -0.2, 57.81 0.8 M55.47 1.47 C64.84 -0.34, 77.54 2.32, 86.71 5.6 C95.87 8.89, 104.28 13.76, 110.45 21.16 C116.62 28.55, 121.61 39.98, 123.74 50 C125.87 60.02, 125.7 71.65, 123.22 81.29 C120.75 90.92, 115.42 101.09, 108.88 107.83 C102.33 114.57, 93.06 118.91, 83.94 121.73 C74.83 124.55, 63.75 126.01, 54.18 124.75 C44.62 123.5, 34.31 119.65, 26.54 114.21 C18.78 108.77, 12.18 100.89, 7.6 92.11 C3.02 83.33, -1.13 71.65, -0.92 61.55 C-0.72 51.45, 3.76 40.22, 8.85 31.52 C13.93 22.82, 21.53 14.74, 29.57 9.34 C37.62 3.94, 52.72 0.59, 57.12 -0.88 C61.53 -2.35, 55.76 -0.92, 56 0.52" stroke="#1e1e1e" stroke-width="1" fill="none"></path></g><g transform="translate(1128.3736485382638 394.9240604146611) rotate(0 27.9921875 19.200000000000045)"><text x="27.9921875" y="0" font-family="Cascadia, Segoe UI Emoji" font-size="16px" fill="#1e1e1e" text-anchor="middle" style="white-space: pre;" direction="ltr" dominant-baseline="text-before-edge">Message</text><text x="27.9921875" y="19.2" font-family="Cascadia, Segoe UI Emoji" font-size="16px" fill="#1e1e1e" text-anchor="middle" style="white-space: pre;" direction="ltr" dominant-baseline="text-before-edge">Broker</text></g><g stroke-linecap="round"><g transform="translate(612.2670236477043 320.04574796241434) rotate(0 234.58149524787473 53.66741539213831)"><path d="M0.35 -0.79 C15.05 16.99, 10.56 91.14, 88.5 107.71 C166.44 124.28, 404.58 100.21, 468 98.61 M-0.92 1.41 C14.1 19.33, 12.06 89.87, 90.59 105.79 C169.12 121.7, 407.18 98.52, 470.28 96.88" stroke="#1e1e1e" stroke-width="1" fill="none"></path></g><g transform="translate(612.2670236477043 320.04574796241434) rotate(0 234.58149524787473 53.66741539213831)"><path d="M442.75 108.8 C450.29 102.87, 461.2 99.01, 470.28 96.88 M442.75 108.8 C453.67 104.33, 465.42 99.07, 470.28 96.88" stroke="#1e1e1e" stroke-width="1" fill="none"></path></g><g transform="translate(612.2670236477043 320.04574796241434) rotate(0 234.58149524787473 53.66741539213831)"><path d="M441.53 88.31 C449.65 89.06, 460.95 91.86, 470.28 96.88 M441.53 88.31 C452.91 91.98, 465.14 94.86, 470.28 96.88" stroke="#1e1e1e" stroke-width="1" fill="none"></path></g></g><mask></mask><g stroke-linecap="round"><g transform="translate(618.8806980595155 576.6998984592045) rotate(0 233.02220945503655 -68.50473595229948)"><path d="M-0.88 0.63 C27.89 -17.84, 95.33 -88.37, 173.24 -111.45 C251.15 -134.54, 417.65 -133.58, 466.59 -137.88 M0.85 -0.08 C29.42 -18.3, 94.82 -87.09, 172.36 -109.92 C249.9 -132.74, 416.92 -132.62, 466.1 -137.01" stroke="#1e1e1e" stroke-width="1" fill="none"></path></g><g transform="translate(618.8806980595155 576.6998984592045) rotate(0 233.02220945503655 -68.50473595229948)"><path d="M438.45 -125.38 C449.32 -129.07, 458 -132.48, 466.1 -137.01 M438.45 -125.38 C444.67 -128.9, 451.66 -129.97, 466.1 -137.01" stroke="#1e1e1e" stroke-width="1" fill="none"></path></g><g transform="translate(618.8806980595155 576.6998984592045) rotate(0 233.02220945503655 -68.50473595229948)"><path d="M437.44 -145.87 C448.56 -142.33, 457.6 -138.51, 466.1 -137.01 M437.44 -145.87 C444.02 -144.73, 451.24 -141.13, 466.1 -137.01" stroke="#1e1e1e" stroke-width="1" fill="none"></path></g></g><mask></mask><g stroke-linecap="round" transform="translate(1329.4937029670104 426.4506981686244) rotate(0 93.97467721659177 34)"><path d="M17 0 C51.56 -0.63, 86.41 -0.72, 170.95 0 C185.35 -2.54, 188.25 4.42, 187.95 17 C189.32 27.3, 185.55 29.55, 187.95 51 C187.4 60.77, 184.47 67.82, 170.95 68 C122.32 69.35, 76.56 67.88, 17 68 C2.89 69.65, 3.58 62.61, 0 51 C2.27 36.96, -1.92 26.26, 0 17 C2.58 3.9, 5.22 -1.6, 17 0" stroke="none" stroke-width="0" fill="#ffc9c9"></path><path d="M17 0 C49.42 0.23, 83.62 1.29, 170.95 0 M17 0 C78.5 1.77, 139.68 0.4, 170.95 0 M170.95 0 C181.51 0.31, 188.31 5.51, 187.95 17 M170.95 0 C183.11 -1.54, 187.72 6.49, 187.95 17 M187.95 17 C187.57 27.49, 189.72 43.21, 187.95 51 M187.95 17 C187.3 31.03, 188.57 42.38, 187.95 51 M187.95 51 C187.19 63.55, 183.06 67.09, 170.95 68 M187.95 51 C186.65 60.89, 180.44 68.85, 170.95 68 M170.95 68 C121.49 69.54, 71.81 70, 17 68 M170.95 68 C115.91 69.51, 62.03 69.36, 17 68 M17 68 C5.5 67.53, 0.05 63.76, 0 51 M17 68 C7.14 66.21, 2.04 62.09, 0 51 M0 51 C1.47 40.13, 1.66 32.6, 0 17 M0 51 C-0.71 38.52, -0.35 24.51, 0 17 M0 17 C1.93 5.33, 7.14 -1.14, 17 0 M0 17 C1.87 7.28, 7.95 1.3, 17 0" stroke="#1e1e1e" stroke-width="2" fill="none"></path></g><g transform="translate(1367.2183801836022 450.8506981686245) rotate(0 56.25 9.600000000000023)"><text x="56.25" y="0" font-family="Cascadia, Segoe UI Emoji" font-size="16px" fill="#1e1e1e" text-anchor="middle" style="white-space: pre;" direction="ltr" dominant-baseline="text-before-edge">Mail Service</text></g><g stroke-linecap="round"><g transform="translate(1319.0430742397198 448.37734851697644) rotate(0 -43.34072806312088 -6.487656803821892)"><path d="M0.86 1.14 C-13.82 -1.33, -73.35 -11.79, -87.81 -14.06 M-0.15 0.7 C-14.49 -1.74, -71.34 -10.54, -85.7 -13.1" stroke="#1e1e1e" stroke-width="1" fill="none"></path></g><g transform="translate(1319.0430742397198 448.37734851697644) rotate(0 -43.34072806312088 -6.487656803821892)"><path d="M-56.21 -18.63 C-63.65 -18.55, -76.75 -13.61, -85.7 -13.1 M-56.21 -18.63 C-66.48 -16.9, -75.85 -15.27, -85.7 -13.1" stroke="#1e1e1e" stroke-width="1" fill="none"></path></g><g transform="translate(1319.0430742397198 448.37734851697644) rotate(0 -43.34072806312088 -6.487656803821892)"><path d="M-59.55 1.62 C-66.06 -4.77, -78.1 -6.27, -85.7 -13.1 M-59.55 1.62 C-68.89 -3.45, -77.13 -8.64, -85.7 -13.1" stroke="#1e1e1e" stroke-width="1" fill="none"></path></g></g><mask></mask><g stroke-linecap="round" transform="translate(1290.270251828953 293.3696817015697) rotate(0 113.92889458178206 34)"><path d="M17 0 C60.3 1.22, 99.53 4.44, 210.86 0 C219.26 1.03, 231.23 2.94, 227.86 17 C229.95 25.78, 228.04 38.32, 227.86 51 C231.02 61.04, 221.11 68.29, 210.86 68 C170.04 69.88, 122.87 66.3, 17 68 C8.19 69.71, -3.08 59.85, 0 51 C-0.89 41.86, -0.31 35.31, 0 17 C1.83 4.71, 8.07 -1.37, 17 0" stroke="none" stroke-width="0" fill="#ffc9c9"></path><path d="M17 0 C87.18 3.12, 161.73 3.79, 210.86 0 M17 0 C56.05 -0.38, 95.11 -0.97, 210.86 0 M210.86 0 C221.99 0.72, 229.08 5.48, 227.86 17 M210.86 0 C223.04 -0.39, 225.8 7.74, 227.86 17 M227.86 17 C228.81 28.99, 230.02 44.52, 227.86 51 M227.86 17 C228.12 24.05, 227.17 31.37, 227.86 51 M227.86 51 C226.25 63.07, 222.53 67.5, 210.86 68 M227.86 51 C229.97 61.61, 222.34 66.3, 210.86 68 M210.86 68 C147.89 66.76, 85 67.19, 17 68 M210.86 68 C138.66 68.26, 67.04 66.77, 17 68 M17 68 C7.44 67.79, -0.1 62.84, 0 51 M17 68 C3.54 69.79, -0.97 64.35, 0 51 M0 51 C-0.1 36.74, 1.17 24.43, 0 17 M0 51 C0.41 40.41, 0.48 31.67, 0 17 M0 17 C1.99 6.8, 3.99 1.72, 17 0 M0 17 C-1.74 6.51, 3.92 1.87, 17 0" stroke="#1e1e1e" stroke-width="2" fill="none"></path></g><g transform="translate(1296.3866464107346 317.76968170156977) rotate(0 107.8125 9.600000000000023)"><text x="107.8125" y="0" font-family="Cascadia, Segoe UI Emoji" font-size="16px" fill="#1e1e1e" text-anchor="middle" style="white-space: pre;" direction="ltr" dominant-baseline="text-before-edge">Logging/History Service</text></g><g stroke-linecap="round"><g transform="translate(1276.7774217076835 354.942213586172) rotate(0 -22.012549559344734 17.15104756004439)"><path d="M1.17 -1.19 C-6.37 4.48, -36.99 28.59, -44.49 34.49 M0.33 0.79 C-7.48 6.65, -38.21 30.35, -45.68 36.13" stroke="#1e1e1e" stroke-width="1" fill="none"></path></g><g transform="translate(1276.7774217076835 354.942213586172) rotate(0 -22.012549559344734 17.15104756004439)"><path d="M-30.75 12.55 C-38.09 20.52, -41.23 30.25, -45.68 36.13 M-30.75 12.55 C-35.13 19.7, -38.78 26.14, -45.68 36.13" stroke="#1e1e1e" stroke-width="1" fill="none"></path></g><g transform="translate(1276.7774217076835 354.942213586172) rotate(0 -22.012549559344734 17.15104756004439)"><path d="M-19.09 27.66 C-30.74 30.24, -38.13 34.45, -45.68 36.13 M-19.09 27.66 C-26.93 30.31, -33.98 32.34, -45.68 36.13" stroke="#1e1e1e" stroke-width="1" fill="none"></path></g></g><mask></mask><g stroke-linecap="round" transform="translate(1340.187128767126 163.504027411474) rotate(0 65.30713256904528 32.52782292946705)"><path d="M16.26 0 C54.45 -3.24, 84.57 -1.05, 114.35 0 C123.63 2.18, 130.43 5.69, 130.61 16.26 C130.05 29.38, 128.57 39.13, 130.61 48.79 C132.26 63.21, 125.47 65.86, 114.35 65.06 C90.84 63.41, 70.65 68.47, 16.26 65.06 C3.65 64.6, -1.6 59.76, 0 48.79 C2.11 38.22, -0.49 33.16, 0 16.26 C-0.55 3.26, 5.16 2.42, 16.26 0" stroke="none" stroke-width="0" fill="#fab005"></path><path d="M16.26 0 C55.6 0.74, 94.15 1.1, 114.35 0 M16.26 0 C39.75 -0.44, 62.37 -0.52, 114.35 0 M114.35 0 C123.41 1.8, 132.26 7.12, 130.61 16.26 M114.35 0 C124.22 0.76, 129.45 7.58, 130.61 16.26 M130.61 16.26 C131.57 29.28, 129.45 39.6, 130.61 48.79 M130.61 16.26 C130.53 23.73, 131.27 31.38, 130.61 48.79 M130.61 48.79 C130.74 58.16, 125.77 66.08, 114.35 65.06 M130.61 48.79 C131.41 60.58, 123 67.05, 114.35 65.06 M114.35 65.06 C91.75 65.02, 71.51 66.25, 16.26 65.06 M114.35 65.06 C92.49 65.21, 69.8 65.73, 16.26 65.06 M16.26 65.06 C4.58 66.81, 1.66 61.41, 0 48.79 M16.26 65.06 C6.03 65.29, -1.42 61.32, 0 48.79 M0 48.79 C-0.31 41.36, -1.12 32.59, 0 16.26 M0 48.79 C-1.16 37.6, -1.08 25.07, 0 16.26 M0 16.26 C-1.52 7.05, 3.86 1.71, 16.26 0 M0 16.26 C-1.62 5.61, 4.63 -2.21, 16.26 0" stroke="#1e1e1e" stroke-width="1" fill="none"></path></g><g transform="translate(1369.8419175861713 186.43185034094108) rotate(0 35.65234375 9.600000000000023)"><text x="35.65234375" y="0" font-family="Cascadia, Segoe UI Emoji" font-size="16px" fill="#1e1e1e" text-anchor="middle" style="white-space: pre;" direction="ltr" dominant-baseline="text-before-edge">Logs Table</text></g><g stroke-linecap="round"><g transform="translate(1408.6020461188305 280.9720495885225) rotate(0 0.4918077172596895 -19.354000777612896)"><path d="M0.2 -0.37 C0.34 -6.78, 0.74 -32.11, 0.93 -38.51 M-0.36 0.63 C-0.31 -5.94, 0.22 -32.91, 0.47 -39.38" stroke="#1e1e1e" stroke-width="1" fill="none"></path></g><g transform="translate(1408.6020461188305 280.9720495885225) rotate(0 0.4918077172596895 -19.354000777612896)"><path d="M6.59 -21.01 C4 -26.94, 3.05 -32.09, 0.47 -39.38 M6.59 -21.01 C4.34 -25.92, 3.39 -31.28, 0.47 -39.38" stroke="#1e1e1e" stroke-width="1" fill="none"></path></g><g transform="translate(1408.6020461188305 280.9720495885225) rotate(0 0.4918077172596895 -19.354000777612896)"><path d="M-6.65 -21.37 C-5.02 -27.21, -1.77 -32.25, 0.47 -39.38 M-6.65 -21.37 C-5.04 -26.16, -2.14 -31.43, 0.47 -39.38" stroke="#1e1e1e" stroke-width="1" fill="none"></path></g></g><mask></mask><g transform="translate(1353.1505105018518 138.68985368045378) rotate(0 37.5 9.600000000000023)"><text x="0" y="0" font-family="Cascadia, Segoe UI Emoji" font-size="16px" fill="#1e1e1e" text-anchor="start" style="white-space: pre;" direction="ltr" dominant-baseline="text-before-edge">Postgres</text></g><g stroke-linecap="round"><g transform="translate(501.8695624204215 140.02999659240027) rotate(0 -0.7516606942792805 67.70400680263947)"><path d="M0 0 C-0.25 22.57, -1.25 112.84, -1.5 135.41 M0 0 C-0.25 22.57, -1.25 112.84, -1.5 135.41" stroke="#1e1e1e" stroke-width="1" fill="none"></path></g><g transform="translate(501.8695624204215 140.02999659240027) rotate(0 -0.7516606942792805 67.70400680263947)"><path d="M-11.45 107.11 C-8.87 114.44, -6.29 121.78, -1.5 135.41 M-11.45 107.11 C-7.85 117.36, -4.24 127.61, -1.5 135.41" stroke="#1e1e1e" stroke-width="1" fill="none"></path></g><g transform="translate(501.8695624204215 140.02999659240027) rotate(0 -0.7516606942792805 67.70400680263947)"><path d="M9.07 107.33 C6.33 114.61, 3.59 121.88, -1.5 135.41 M9.07 107.33 C5.24 117.5, 1.41 127.68, -1.5 135.41" stroke="#1e1e1e" stroke-width="1" fill="none"></path></g></g><mask></mask><g stroke-linecap="round"><g transform="translate(536.0351982902835 274.03027461923136) rotate(0 -1.3554513513122401 -67.82249085517657)"><path d="M0 0 C-0.45 -22.61, -2.26 -113.04, -2.71 -135.64 M0 0 C-0.45 -22.61, -2.26 -113.04, -2.71 -135.64" stroke="#1e1e1e" stroke-width="1" fill="none"></path></g><g transform="translate(536.0351982902835 274.03027461923136) rotate(0 -1.3554513513122401 -67.82249085517657)"><path d="M8.11 -107.66 C4.78 -116.27, 1.46 -124.87, -2.71 -135.64 M8.11 -107.66 C4.08 -118.09, 0.05 -128.52, -2.71 -135.64" stroke="#1e1e1e" stroke-width="1" fill="none"></path></g><g transform="translate(536.0351982902835 274.03027461923136) rotate(0 -1.3554513513122401 -67.82249085517657)"><path d="M-12.41 -107.25 C-9.43 -115.98, -6.44 -124.71, -2.71 -135.64 M-12.41 -107.25 C-8.79 -117.83, -5.18 -128.41, -2.71 -135.64" stroke="#1e1e1e" stroke-width="1" fill="none"></path></g></g><mask></mask><g stroke-linecap="round"><g transform="translate(509.4946583230767 370.71977575791846) rotate(0 2.2675197784355987 85.51977306840695)"><path d="M0 0 C0.76 28.51, 3.78 142.53, 4.54 171.04 M0 0 C0.76 28.51, 3.78 142.53, 4.54 171.04" stroke="#1e1e1e" stroke-width="1" fill="none"></path></g><g transform="translate(509.4946583230767 370.71977575791846) rotate(0 2.2675197784355987 85.51977306840695)"><path d="M-6.47 143.13 C-3.11 151.64, 0.24 160.15, 4.54 171.04 M-6.47 143.13 C-2.46 153.31, 1.55 163.48, 4.54 171.04" stroke="#1e1e1e" stroke-width="1" fill="none"></path></g><g transform="translate(509.4946583230767 370.71977575791846) rotate(0 2.2675197784355987 85.51977306840695)"><path d="M14.04 142.59 C11.14 151.26, 8.24 159.94, 4.54 171.04 M14.04 142.59 C10.58 152.96, 7.11 163.33, 4.54 171.04" stroke="#1e1e1e" stroke-width="1" fill="none"></path></g></g><mask></mask><g stroke-linecap="round"><g transform="translate(539.6685004492215 539.7249943311334) rotate(0 1.1775244336295145 -85.3249611283685)"><path d="M0 0 C0.39 -28.44, 1.96 -142.21, 2.36 -170.65 M0 0 C0.39 -28.44, 1.96 -142.21, 2.36 -170.65" stroke="#1e1e1e" stroke-width="1" fill="none"></path></g><g transform="translate(539.6685004492215 539.7249943311334) rotate(0 1.1775244336295145 -85.3249611283685)"><path d="M12.23 -142.32 C10 -148.7, 7.78 -155.08, 2.36 -170.65 M12.23 -142.32 C8.38 -153.36, 4.53 -164.4, 2.36 -170.65" stroke="#1e1e1e" stroke-width="1" fill="none"></path></g><g transform="translate(539.6685004492215 539.7249943311334) rotate(0 1.1775244336295145 -85.3249611283685)"><path d="M-8.29 -142.6 C-5.9 -148.92, -3.5 -155.23, 2.36 -170.65 M-8.29 -142.6 C-4.14 -153.53, 0.01 -164.46, 2.36 -170.65" stroke="#1e1e1e" stroke-width="1" fill="none"></path></g></g><mask></mask><g stroke-linecap="round" transform="translate(700.4137782796274 56.389047063270255) rotate(0 81.06251011931818 34)"><path d="M17 0 C43.54 -2.78, 70.33 2.31, 145.13 0 C153.2 0.8, 160.14 5.19, 162.13 17 C164.47 24.22, 160.49 40.1, 162.13 51 C162.75 63.85, 154.45 67.08, 145.13 68 C112.96 65.26, 82.57 67.66, 17 68 C7.33 66.02, 2.55 62.84, 0 51 C-1.58 42.31, 1.92 32.38, 0 17 C-2.11 2.11, 4.52 -0.77, 17 0" stroke="none" stroke-width="0" fill="#a5d8ff"></path><path d="M17 0 C42.77 0.75, 71.16 -0.35, 145.13 0 M17 0 C58.3 -1.94, 99.82 -1.36, 145.13 0 M145.13 0 C155.14 -1.29, 163.8 6.87, 162.13 17 M145.13 0 C154.41 0.84, 162.26 4.56, 162.13 17 M162.13 17 C162.06 29.32, 164.42 40.36, 162.13 51 M162.13 17 C160.98 26.43, 162.88 36.06, 162.13 51 M162.13 51 C163.2 62.58, 156.8 66.75, 145.13 68 M162.13 51 C160.12 62.76, 155.61 68.25, 145.13 68 M145.13 68 C95.64 70.47, 44.95 69.76, 17 68 M145.13 68 C101.45 67.73, 58.41 66.42, 17 68 M17 68 C4.03 67.24, 0.43 62.6, 0 51 M17 68 C6.97 69.87, 1.77 62.1, 0 51 M0 51 C1.3 39.53, -1.85 27.71, 0 17 M0 51 C0.85 43.35, -0.33 35.08, 0 17 M0 17 C0.56 5.01, 5.26 -0.19, 17 0 M0 17 C0.14 6.74, 5.46 0.66, 17 0" stroke="#1e1e1e" stroke-width="2" fill="none"></path></g><g transform="translate(711.1637883989456 80.78904706327023) rotate(0 70.3125 9.600000000000023)"><text x="70.3125" y="0" font-family="Cascadia, Segoe UI Emoji" font-size="16px" fill="#1e1e1e" text-anchor="middle" style="white-space: pre;" direction="ltr" dominant-baseline="text-before-edge">Google Maps API</text></g><g stroke-linecap="round"><g transform="translate(870.6559692076348 96.11502175380281) rotate(0 31.015387828294024 0.4026500549304046)"><path d="M0.68 0.87 C10.89 0.64, 51.09 -0.3, 61.47 -0.3 M-0.42 0.28 C9.56 0.67, 49.71 0.34, 60.23 0.66" stroke="#1e1e1e" stroke-width="1" fill="none"></path></g><g transform="translate(870.6559692076348 96.11502175380281) rotate(0 31.015387828294024 0.4026500549304046)"><path d="M31.95 10.65 C42.34 6.37, 48.09 5.73, 60.23 0.66 M31.95 10.65 C40.5 8.01, 49 4.72, 60.23 0.66" stroke="#1e1e1e" stroke-width="1" fill="none"></path></g><g transform="translate(870.6559692076348 96.11502175380281) rotate(0 31.015387828294024 0.4026500549304046)"><path d="M32.14 -9.87 C42.66 -7.59, 48.34 -1.68, 60.23 0.66 M32.14 -9.87 C40.44 -6.29, 48.88 -3.34, 60.23 0.66" stroke="#1e1e1e" stroke-width="1" fill="none"></path></g></g><mask></mask><g stroke-linecap="round" transform="translate(1090.2225575106017 692.6544249888517) rotate(0 74.5 34)"><path d="M17 0 C60.25 2.96, 97.69 1, 132 0 C144.61 -3.31, 148.16 5.58, 149 17 C150.57 27.18, 145.57 39.78, 149 51 C147.21 64.76, 145.39 69.79, 132 68 C95.94 70.24, 59.37 66.21, 17 68 C8.14 71.25, 2.62 62.84, 0 51 C-2.21 34.73, -3.38 25.19, 0 17 C-2.02 2.83, 4.27 -0.54, 17 0" stroke="none" stroke-width="0" fill="#a5d8ff"></path><path d="M17 0 C44.51 -0.75, 73.81 0.63, 132 0 M17 0 C58.12 -0.15, 97.3 0.41, 132 0 M132 0 C144.44 -1.83, 148.43 4.24, 149 17 M132 0 C142.4 1.05, 148.52 7.49, 149 17 M149 17 C149.17 30.62, 148.28 43.99, 149 51 M149 17 C148.4 25.35, 150.24 35.19, 149 51 M149 51 C148.14 62.57, 141.53 67.11, 132 68 M149 51 C150.06 61.06, 142.33 69.53, 132 68 M132 68 C107.77 68.2, 79.9 68.02, 17 68 M132 68 C92.19 68.09, 52.08 68.29, 17 68 M17 68 C4.72 67.07, 1.75 62.91, 0 51 M17 68 C7.08 69.23, 2.21 61.96, 0 51 M0 51 C0.38 43.79, 1.29 36.22, 0 17 M0 51 C0.58 36.5, 0.12 24.56, 0 17 M0 17 C-1.02 5.89, 5.53 -1.11, 17 0 M0 17 C1.73 7.67, 6.77 1.49, 17 0" stroke="#1e1e1e" stroke-width="2" fill="none"></path></g><g transform="translate(1128.0584950106017 717.0544249888518) rotate(0 36.6640625 9.600000000000023)"><text x="36.6640625" y="0" font-family="Cascadia, Segoe UI Emoji" font-size="16px" fill="#1e1e1e" text-anchor="middle" style="white-space: pre;" direction="ltr" dominant-baseline="text-before-edge">Xendit API</text></g><g stroke-linecap="round"><g transform="translate(983.9133433511947 715.640622149387) rotate(0 46.34503619272846 0.10436200745255064)"><path d="M0.61 -0.11 C16.05 0.03, 78.55 0.94, 93.72 0.99 M-0.52 -1.22 C14.75 -1.42, 77.57 -1.17, 93.31 -0.73" stroke="#1e1e1e" stroke-width="1" fill="none"></path></g><g transform="translate(983.9133433511947 715.640622149387) rotate(0 46.34503619272846 0.10436200745255064)"><path d="M64.97 9.14 C75.83 6.85, 88.37 -0.53, 93.31 -0.73 M64.97 9.14 C73.93 7.38, 82.51 3.79, 93.31 -0.73" stroke="#1e1e1e" stroke-width="1" fill="none"></path></g><g transform="translate(983.9133433511947 715.640622149387) rotate(0 46.34503619272846 0.10436200745255064)"><path d="M65.26 -11.38 C76.02 -5.66, 88.45 -5.03, 93.31 -0.73 M65.26 -11.38 C73.99 -7.1, 82.48 -4.65, 93.31 -0.73" stroke="#1e1e1e" stroke-width="1" fill="none"></path></g></g><mask></mask><g stroke-linecap="round"><g transform="translate(1082.9287167288635 739.3267101803889) rotate(0 -52.58072980012639 0)"><path d="M-0.31 0.94 C-17.81 0.73, -87.34 -1.08, -104.86 -1.11 M1.73 0.39 C-15.92 0.27, -87.64 0.11, -105.64 -0.16" stroke="#1e1e1e" stroke-width="1" fill="none"></path></g><g transform="translate(1082.9287167288635 739.3267101803889) rotate(0 -52.58072980012639 0)"><path d="M-77.38 -10.2 C-84.69 -6.6, -97.02 -4.35, -105.64 -0.16 M-77.38 -10.2 C-86.73 -6.06, -96.93 -2.18, -105.64 -0.16" stroke="#1e1e1e" stroke-width="1" fill="none"></path></g><g transform="translate(1082.9287167288635 739.3267101803889) rotate(0 -52.58072980012639 0)"><path d="M-77.53 10.32 C-84.83 7.46, -97.11 3.25, -105.64 -0.16 M-77.53 10.32 C-86.95 7.04, -97.09 3.5, -105.64 -0.16" stroke="#1e1e1e" stroke-width="1" fill="none"></path></g></g><mask></mask><g stroke-linecap="round" transform="translate(825.6890831279893 868.9143917438665) rotate(0 74.5 34)"><path d="M17 0 C40.41 3.67, 64.89 1.45, 132 0 C143.88 2.53, 145.71 3.45, 149 17 C150.8 28.72, 151.02 41.06, 149 51 C147.59 61.98, 145.09 69.51, 132 68 C104.26 65.87, 79.21 67.35, 17 68 C5.97 68.7, -0.28 63.48, 0 51 C2.65 34.53, -2.83 26.87, 0 17 C0.79 7.22, 2.27 -1.67, 17 0" stroke="none" stroke-width="0" fill="#a5d8ff"></path><path d="M17 0 C45.3 -0.7, 75.31 0.71, 132 0 M17 0 C57.31 0.61, 97.36 0.49, 132 0 M132 0 C143.3 1.38, 148.38 6.86, 149 17 M132 0 C143.72 -1.61, 147.32 7.35, 149 17 M149 17 C149 28.04, 148.72 35.04, 149 51 M149 17 C149.47 30.41, 149.34 42.88, 149 51 M149 51 C147.5 61.11, 142.68 69.61, 132 68 M149 51 C150.7 61.76, 144.72 69.93, 132 68 M132 68 C93.93 69.28, 55.11 68.05, 17 68 M132 68 C104.91 67.99, 78.94 68.8, 17 68 M17 68 C6.82 68.45, -1.15 64.3, 0 51 M17 68 C6.17 66.98, -1.33 60.62, 0 51 M0 51 C-0.65 39.84, -1.53 28.75, 0 17 M0 51 C-0.11 42.17, -0.08 32.53, 0 17 M0 17 C-0.43 4.13, 6.82 0.68, 17 0 M0 17 C0.11 3.64, 7.93 -1, 17 0" stroke="#1e1e1e" stroke-width="2" fill="none"></path></g><g transform="translate(841.9703331279893 893.3143917438666) rotate(0 58.21875 9.600000000000023)"><text x="58.21875" y="0" font-family="Cascadia, Segoe UI Emoji" font-size="16px" fill="#1e1e1e" text-anchor="middle" style="white-space: pre;" direction="ltr" dominant-baseline="text-before-edge">Google Maps API</text></g><g stroke-linecap="round"><g transform="translate(868.9853463750765 818.3720973972619) rotate(89.96718294506947 38.26940182536282 -0.5018912215346063)"><path d="M0.96 0.59 C13.52 0.34, 62.84 -1.52, 75.48 -1.82 M0.01 -0.15 C12.92 -0.23, 64.95 -0.74, 77.63 -0.71" stroke="#1e1e1e" stroke-width="1" fill="none"></path></g><g transform="translate(868.9853463750765 818.3720973972619) rotate(89.96718294506947 38.26940182536282 -0.5018912215346063)"><path d="M49.49 9.68 C59.21 4.47, 65.58 3.42, 77.63 -0.71 M49.49 9.68 C57.43 7.51, 65.1 4.48, 77.63 -0.71" stroke="#1e1e1e" stroke-width="1" fill="none"></path></g><g transform="translate(868.9853463750765 818.3720973972619) rotate(89.96718294506947 38.26940182536282 -0.5018912215346063)"><path d="M49.4 -10.84 C59.08 -9.7, 65.49 -4.4, 77.63 -0.71 M49.4 -10.84 C57.39 -7.2, 65.09 -4.42, 77.63 -0.71" stroke="#1e1e1e" stroke-width="1" fill="none"></path></g></g><mask></mask><g stroke-linecap="round"><g transform="translate(926.1685408321941 818.278536964811) rotate(89.96718294506947 -42.89146112670505 0.12742660180936127)"><path d="M-1.06 -0.82 C-15.48 -0.9, -71.45 -0.07, -85.54 0.05 M0.58 1.37 C-14.05 1.42, -71.89 1.54, -86.37 1.48" stroke="#1e1e1e" stroke-width="1" fill="none"></path></g><g transform="translate(926.1685408321941 818.278536964811) rotate(89.96718294506947 -42.89146112670505 0.12742660180936127)"><path d="M-58.17 -8.77 C-70.2 -4.72, -79.9 -0.94, -86.37 1.48 M-58.17 -8.77 C-66.11 -5.2, -73.26 -3.72, -86.37 1.48" stroke="#1e1e1e" stroke-width="1" fill="none"></path></g><g transform="translate(926.1685408321941 818.278536964811) rotate(89.96718294506947 -42.89146112670505 0.12742660180936127)"><path d="M-58.18 11.76 C-70.31 8, -80 3.98, -86.37 1.48 M-58.18 11.76 C-66.12 9.77, -73.26 5.69, -86.37 1.48" stroke="#1e1e1e" stroke-width="1" fill="none"></path></g></g><mask></mask><g transform="translate(942.1351633918425 40.90412748894698) rotate(0 37.5 9.600000000000023)"><text x="0" y="0" font-family="Cascadia, Segoe UI Emoji" font-size="16px" fill="#1e1e1e" text-anchor="start" style="white-space: pre;" direction="ltr" dominant-baseline="text-before-edge">Postgres</text></g><g transform="translate(787.4598576772073 269.59219192673845) rotate(0 37.5 9.600000000000023)"><text x="0" y="0" font-family="Cascadia, Segoe UI Emoji" font-size="16px" fill="#1e1e1e" text-anchor="start" style="white-space: pre;" direction="ltr" dominant-baseline="text-before-edge">Postgres</text></g><g transform="translate(828.7875251617302 511.0733813569119) rotate(0 34.2265625 9.600000000000023)"><text x="0" y="0" font-family="Cascadia, Segoe UI Emoji" font-size="16px" fill="#1e1e1e" text-anchor="start" style="white-space: pre;" direction="ltr" dominant-baseline="text-before-edge">MongoDB</text></g><g stroke-linecap="round" transform="translate(799.5983353785136 539.0258065910635) rotate(0 93.45836256691837 34)"><path d="M17 0 C79.4 -1.42, 134.68 -3.06, 169.92 0 C182.18 -2.62, 183.48 2.86, 186.92 17 C186.61 24.24, 189.74 37.3, 186.92 51 C188.04 62.55, 179.84 67.47, 169.92 68 C140.53 68.97, 109.48 65.53, 17 68 C2.32 64.73, 0.57 63.99, 0 51 C2.94 40.74, 1.17 24.42, 0 17 C2.29 7.86, 4.28 -0.41, 17 0" stroke="none" stroke-width="0" fill="#fab005"></path><path d="M17 0 C72.66 -2.01, 125.3 0.91, 169.92 0 M17 0 C54.1 0.46, 90.69 0.24, 169.92 0 M169.92 0 C180.81 1.65, 186.69 5.21, 186.92 17 M169.92 0 C179.98 1.63, 188.2 4.11, 186.92 17 M186.92 17 C187.97 28.46, 184.73 37.55, 186.92 51 M186.92 17 C186.28 29.16, 187.66 39.64, 186.92 51 M186.92 51 C187.09 61.25, 181.53 66.64, 169.92 68 M186.92 51 C187.52 60.37, 183.23 66.43, 169.92 68 M169.92 68 C136 67.04, 101.22 65.72, 17 68 M169.92 68 C137.84 69.39, 106.42 69.65, 17 68 M17 68 C4.06 68.74, -1.7 63.77, 0 51 M17 68 C3.88 69.32, 0.33 64.63, 0 51 M0 51 C0.54 40.73, -1.21 32.52, 0 17 M0 51 C-0.25 42.26, -0.5 32.08, 0 17 M0 17 C-0.64 7.33, 4.26 0.86, 17 0 M0 17 C1.22 7.14, 6.61 -1.81, 17 0" stroke="#1e1e1e" stroke-width="2" fill="none"></path></g><g transform="translate(822.744197945432 563.4258065910636) rotate(0 70.3125 9.600000000000023)"><text x="70.3125" y="0" font-family="Cascadia, Segoe UI Emoji" font-size="16px" fill="#1e1e1e" text-anchor="middle" style="white-space: pre;" direction="ltr" dominant-baseline="text-before-edge">Orders Database</text></g><g stroke-linecap="round"><g transform="translate(872.7875865320225 653.3594725073184) rotate(89.96718294506947 36.109294919896456 -0.5046564053491238)"><path d="M0.44 0.25 C12.71 -0.08, 61.31 -0.75, 73.1 -1.14 M-0.78 -0.67 C11.45 -0.88, 60.23 0.45, 72.62 0.33" stroke="#1e1e1e" stroke-width="1" fill="none"></path></g><g transform="translate(872.7875865320225 653.3594725073184) rotate(89.96718294506947 36.109294919896456 -0.5046564053491238)"><path d="M44.32 10.29 C51.93 9.09, 58.58 3.34, 72.62 0.33 M44.32 10.29 C50.73 7.97, 55.33 6.07, 72.62 0.33" stroke="#1e1e1e" stroke-width="1" fill="none"></path></g><g transform="translate(872.7875865320225 653.3594725073184) rotate(89.96718294506947 36.109294919896456 -0.5046564053491238)"><path d="M44.54 -10.23 C52.24 -6.15, 58.84 -6.63, 72.62 0.33 M44.54 -10.23 C51.11 -8.29, 55.66 -5.92, 72.62 0.33" stroke="#1e1e1e" stroke-width="1" fill="none"></path></g></g><mask></mask><g stroke-linecap="round"><g transform="translate(922.1729723106314 651.1794714586048) rotate(89.96718294506947 -41.01481381611211 1.8684475249710886)"><path d="M0.88 -0.13 C-13.04 0.27, -69.44 2.16, -83.06 2.63 M-0.11 -1.24 C-13.71 -0.76, -67.42 2.8, -80.89 3.59" stroke="#1e1e1e" stroke-width="1" fill="none"></path></g><g transform="translate(922.1729723106314 651.1794714586048) rotate(89.96718294506947 -41.01481381611211 1.8684475249710886)"><path d="M-53.4 -8.41 C-62.85 -5.89, -73.75 1.85, -80.89 3.59 M-53.4 -8.41 C-59.85 -6.3, -65.72 -4.19, -80.89 3.59" stroke="#1e1e1e" stroke-width="1" fill="none"></path></g><g transform="translate(922.1729723106314 651.1794714586048) rotate(89.96718294506947 -41.01481381611211 1.8684475249710886)"><path d="M-52.12 12.07 C-62.05 7.7, -73.37 8.54, -80.89 3.59 M-52.12 12.07 C-58.98 9.8, -65.12 7.53, -80.89 3.59" stroke="#1e1e1e" stroke-width="1" fill="none"></path></g></g><mask></mask><g transform="translate(828.8703203270957 677.6181199360072) rotate(0 18.22265625 9.600000000000023)"><text x="0" y="0" font-family="Cascadia, Segoe UI Emoji" font-size="16px" fill="#1e1e1e" text-anchor="start" style="white-space: pre;" direction="ltr" dominant-baseline="text-before-edge">Redis</text></g><g stroke-linecap="round" transform="translate(393.6166220183327 10) rotate(0 376.61759329619326 82.20291471919342)"><path d="M32 0 C192.77 -0.22, 352.51 0.01, 721.24 0 M32 0 C278.23 -1.64, 524.91 -1.87, 721.24 0 M721.24 0 C743.28 -1.56, 753.29 9.15, 753.24 32 M721.24 0 C743.17 1.38, 754.84 10.23, 753.24 32 M753.24 32 C752.24 61.39, 752.63 89.94, 753.24 132.41 M753.24 32 C752.74 68.8, 753.24 107.06, 753.24 132.41 M753.24 132.41 C752.17 155.32, 740.61 163.95, 721.24 164.41 M753.24 132.41 C753.72 152.99, 741.28 164.95, 721.24 164.41 M721.24 164.41 C529.43 163.1, 336.98 163.18, 32 164.41 M721.24 164.41 C560.9 167.12, 399.84 166.63, 32 164.41 M32 164.41 C8.95 163.65, -0.12 151.86, 0 132.41 M32 164.41 C12.4 162.2, -1.56 152.42, 0 132.41 M0 132.41 C1.51 93.75, 0.68 55.91, 0 32 M0 132.41 C1.66 110.31, 1.42 89.89, 0 32 M0 32 C-0.89 9.85, 12.4 0.42, 32 0 M0 32 C-1.44 10.62, 10.17 1.88, 32 0" stroke="#ff8787" stroke-width="1" fill="none"></path></g><g stroke-linecap="round" transform="translate(386.37177976209523 233.44343396263696) rotate(0 303.5103082893861 82.20291471919336)"><path d="M32 0 C166.03 -0.34, 299.44 0.49, 575.02 0 M32 0 C223.13 -1.44, 413.7 -1.51, 575.02 0 M575.02 0 C595.82 -1.97, 606.16 10.23, 607.02 32 M575.02 0 C595.33 0.06, 607.25 9.37, 607.02 32 M607.02 32 C607.47 60.69, 607.46 91.31, 607.02 132.41 M607.02 32 C606.9 66.12, 606.46 100.99, 607.02 132.41 M607.02 132.41 C608.05 155.43, 595.93 166.13, 575.02 164.41 M607.02 132.41 C606.26 154.98, 594.3 163.28, 575.02 164.41 M575.02 164.41 C408.21 166.99, 240.66 166.82, 32 164.41 M575.02 164.41 C405.93 162.74, 236.94 162.75, 32 164.41 M32 164.41 C12.44 166.08, -1.73 155.26, 0 132.41 M32 164.41 C11.44 163.18, -0.98 154.77, 0 132.41 M0 132.41 C0.38 93.82, 0.48 59.21, 0 32 M0 132.41 C1.23 101.3, -0.19 71.86, 0 32 M0 32 C1.09 11.59, 12.12 -1.73, 32 0 M0 32 C1.43 12.11, 10.77 -1.88, 32 0" stroke="#ff8787" stroke-width="1" fill="none"></path></g><g stroke-linecap="round" transform="translate(394.50710198366824 498.83599292764677) rotate(0 433.7097241805677 228.52693083054783)"><path d="M32 0 C335.72 0.19, 640.57 0.14, 835.42 0 M32 0 C290.09 0.48, 548.31 0.67, 835.42 0 M835.42 0 C856.12 1.7, 868.9 10.82, 867.42 32 M835.42 0 C854.97 -1.88, 868.9 8.6, 867.42 32 M867.42 32 C867.01 133.63, 867.92 232.93, 867.42 425.05 M867.42 32 C866.59 151, 866.65 269.3, 867.42 425.05 M867.42 425.05 C866.56 444.46, 858.01 455.67, 835.42 457.05 M867.42 425.05 C868.21 445.55, 856.11 459.29, 835.42 457.05 M835.42 457.05 C629.08 456.93, 421.79 457.51, 32 457.05 M835.42 457.05 C531.74 453.89, 227.87 454.15, 32 457.05 M32 457.05 C12.56 455.68, -0.57 447.79, 0 425.05 M32 457.05 C12.01 456.95, -0.88 446.24, 0 425.05 M0 425.05 C1.35 287.37, 1.94 149.87, 0 32 M0 425.05 C0.47 305.85, 0.94 185.82, 0 32 M0 32 C1.3 11.74, 10.06 1.73, 32 0 M0 32 C-2.25 11.73, 11.46 -2.26, 32 0" stroke="#ff8787" stroke-width="1" fill="none"></path></g><g transform="translate(169.56242075808314 265.72918480345163) rotate(0 24.4482421875 12)"><text x="0" y="0" font-family="Cascadia, Segoe UI Emoji" font-size="20px" fill="#1e1e1e" text-anchor="start" style="white-space: pre;" direction="ltr" dominant-baseline="text-before-edge">REST</text></g></svg>