<?xml version="1.0" encoding="UTF-8"?>
<svg id="OBJECTS" xmlns="http://www.w3.org/2000/svg" xmlns:xlink="http://www.w3.org/1999/xlink" viewBox="0 0 396.98 287.77">
  <defs>
    <style>
      .cls-1 {
        fill: url(#linear-gradient);
      }

      .cls-1, .cls-2, .cls-3, .cls-4, .cls-5, .cls-6, .cls-7, .cls-8, .cls-9, .cls-10, .cls-11, .cls-12 {
        stroke-width: 0px;
      }

      .cls-2 {
        fill: url(#linear-gradient-6);
      }

      .cls-3 {
        fill: url(#linear-gradient-5);
      }

      .cls-4 {
        fill: #ceb6cd;
      }

      .cls-5 {
        fill: url(#linear-gradient-2);
      }

      .cls-6 {
        fill: url(#linear-gradient-7);
      }

      .cls-7 {
        fill: url(#linear-gradient-3);
      }

      .cls-8 {
        fill: #823b4f;
      }

      .cls-9 {
        fill: url(#linear-gradient-8);
      }

      .cls-10 {
        fill: #fd897a;
      }

      .cls-11 {
        fill: #e1d3e0;
      }

      .cls-12 {
        fill: url(#linear-gradient-4);
      }
    </style>
    <linearGradient id="linear-gradient" x1="137.59" y1="67.09" x2="201.22" y2="197.54" gradientUnits="userSpaceOnUse">
      <stop offset="0" stop-color="#fd897a"/>
      <stop offset="1" stop-color="#dd6258"/>
    </linearGradient>
    <linearGradient id="linear-gradient-2" x1="56.29" y1="196.76" x2="152.54" y2="192.78" xlink:href="#linear-gradient"/>
    <linearGradient id="linear-gradient-3" x1="-5.21" y1="260.4" x2="299.71" y2="197.82" xlink:href="#linear-gradient"/>
    <linearGradient id="linear-gradient-4" x1="338.84" y1="90.86" x2="362.17" y2="70.44" xlink:href="#linear-gradient"/>
    <linearGradient id="linear-gradient-5" x1="324.11" y1="102.82" x2="382.71" y2="72.32" gradientUnits="userSpaceOnUse">
      <stop offset="0" stop-color="#fd897a"/>
      <stop offset="1" stop-color="#e1d3e0"/>
    </linearGradient>
    <linearGradient id="linear-gradient-6" x1="329.28" y1="73.65" x2="397.66" y2="38.93" xlink:href="#linear-gradient"/>
    <linearGradient id="linear-gradient-7" x1="250.08" y1="99.8" x2="229" y2="62.42" xlink:href="#linear-gradient"/>
    <linearGradient id="linear-gradient-8" x1="245.49" y1="92.23" x2="224.81" y2="47.68" xlink:href="#linear-gradient-5"/>
  </defs>
  <g id="Layer_4" data-name="Layer 4">
    <g>
      <path class="cls-1" d="m329.8,89.88s17.81-17.5-9.63-41.76c-27.44-24.26-46.93-29.43-46.93-29.43l-14.32-3.18,7.95,5.57s-16.31-7.16-23.86-9.55c-7.56-2.39-20.28-11.53-36.59-11.53,0,0,2.78,1.59,6.36,3.58,0,0-24.66-1.99-42.56,5.57-17.9,7.56-47.33,9.15-47.33,9.15l7.56,2.78s-42.96,7.16-70.8,23.86l14.72-2.39s-38.58,9.55-55.68,35.4C1.59,103.81,0,151.93,0,151.93l5.57-13.13s-7.56,46.14,4.38,70c11.93,23.86,64.57,79.41,155.78,62.44,91.21-16.97,156.97-111.36,152.73-124.09s11.35-57.28,11.35-57.28Z"/>
      <path class="cls-5" d="m2.39,165.46c2.61-16.98,15.51-50.51,44.15-45.74,28.64,4.77,50.11-1.19,50.11-1.19,0,0-6.76,2.78-7.56,5.97,0,0,14.32-4.38,28.24-10.74,13.92-6.36,50.91,3.98,50.91,3.98h-10.74s19.49,2.78,31.82,21.08c12.33,18.3,12.33,19.49,12.33,19.49l-6.76-4.38s19.49,29.43,29.03,48.92c9.55,19.49,4.77,48.52-18.69,56.88-23.47,8.35-80.74,29.43-136.42,3.58l7.56,5.97s-27.05-9.15-40.97-21.08c0,0,2.39,7.56,6.36,11.93,0,0-24.26-19.49-33.81-46.14-9.55-26.65-6.36-43.35-5.57-48.52Z"/>
      <g>
        <path class="cls-7" d="m83.52,245.4c11.8-27.84,32.22-44.94,52.1-44.94s39.77-23.86,52.1-25.06c0,0-5.97,3.98-5.97,9.55,0,0,49.72-31.82,83.52-28.64,33.81,3.18,77.96-12.33,83.13-19.49s27.44-23.07,27.44-23.07c0,0-3.98,4.77-3.98,7.16s13.52-17.5,13.52-17.5c0,0,5.57,5.97,5.57,17.5l1.99-10.74s9.55,14.32-.8,44.15c-10.34,29.83-27.44,45.34-27.44,45.34,0,0,5.57-1.59,10.74-7.16,0,0-38.98,53.3-80.74,72.78,0,0,8.35-2.78,13.13-3.58,0,0-17.1,18.3-63.24,23.47s-180.97,7.16-161.08-39.77Z"/>
        <path class="cls-4" d="m392.96,110.17l-1.99,10.74c0-11.53-5.57-17.5-5.57-17.5,0,0-13.52,19.89-13.52,17.5s3.98-7.16,3.98-7.16c0,0-22.27,15.91-27.44,23.07-2.43,3.37-13.5,8.59-28.05,12.84-2.45,3.73-4.92,7.1-7.34,9.84-15.51,17.5,12.33-1.59,12.33-1.59,0,0-5.57,23.86-8.75,27.44-3.18,3.58,27.44-17.5,27.44-17.5,0,0-3.18,13.92-1.19,14.32,1.99.4,15.11-11.93,16.7-14.72,1.59-2.78-1.59,27.44,3.58,21.48,5.17-5.97,9.94-16.31,10.34-13.13.18,1.44-.04,7.54.1,13.7,5.73-7.59,13.11-19.34,18.6-35.18,10.34-29.83.8-44.15.8-44.15Z"/>
      </g>
      <g>
        <g>
          <path class="cls-12" d="m351.5,116.12s15.78-10.5,21.82-26.35l-2.67.82s10.53-18.39,13.85-31.65c0,0-20.45-4.18-33.5-2.26,0,0,4.49-2.54,7.79-3.82,0,0-17.03,3.32-25.26,8.63l2.02-4.58s-14.05,12.31-18.91,18.79c-4.86,6.48-7.25,6.9-1.08,16.04,6.17,9.14,35.95,24.37,35.95,24.37Z"/>
          <path class="cls-3" d="m349.28,78.39l22.04-4.9-12.79,13.5,11.67-3.8s-13.53,13.28-17.31,19.92c-2.87,5.06-13.7-1.84-13.7-1.84l4.35-5.34-10.48,2.53-3.26-8.59s-7.37-1.88-2.89-4.43c4.49-2.54,26.27-10.92,26.27-10.92l-3.91,3.85Z"/>
          <path class="cls-2" d="m316.63,75.71c4.86-6.48,18.91-18.8,18.91-18.8l-2.02,4.58c8.23-5.31,25.26-8.63,25.26-8.63-3.3,1.28-7.79,3.82-7.79,3.82,13.05-1.92,33.5,2.26,33.5,2.26-.02.08-.05.17-.07.26l-23.73,1.4,3.49,1.79s-10.43,1.42-14.85,1.97c-4.41.55-17.54,7.4-17.54,7.4l6.04-1.26s-9.09,5.87-12.02,8.5c-1.44,1.29-7.23,5.11-12.75,8.67-2.76-5.38-.45-6.62,3.56-11.96Z"/>
        </g>
        <g>
          <path class="cls-11" d="m300.01,145.02c15.09,1.32,50.24-.95,56.01,5.21,5.77,6.16,5.67,12.79,5.67,12.79,0,0-4.59-3.44-7.78-3.35,0,0,3.3,2.84,4.46,5.82,0,0-14.44-2.92-22.68,1.94-8.23,4.86-3.76,19.98-25.38,21.97-21.62,1.99-27.53-1.52-36.01-6.77-8.47-5.25-32.32-6.3-32.32-6.3l8.12-2.74s-23.09-4.99-35.74-1.97c0,0-1.49-1.94,3.45-4.86,0,0-3.13-.97-7.03,2.27,0,0,1.63-10.27,8.42-22.64,6.79-12.37,72.61-2.1,80.81-1.39Z"/>
          <path class="cls-10" d="m297.14,67.06c-27.74,2.41-40.61,9.18-55.1,26.44-14.5,17.26-27.6,47.87-27.6,47.87,0,0,8.75-4.56,6.37-4.69s-9.01,18.89-9.32,24.45c0,0,9.39-11.43,24.12-13.54,14.72-2.11,20.53,3.26,20.53,3.26,0,0-5.52-1.1-8.49-.2,0,0,20.36,6.43,31.01,15.52,10.65,9.09,13.85,18.56,28.89,15.4,15.05-3.15,16-15.58,23.05-23.16,7.06-7.58,17.76-9.11,23.22-6.95,0,0-.88-3.24-3.78-3.66,0,0,10.8,1.66,14.15,8.22,0,0,.63-16.16-6.67-23.47,0,0,7.43,4.92,8.86,7.92,1.43,3,1.06.06,1.06.06,0,0-4.13-31.03-25.79-52.41-21.66-21.38-42.65-21.21-44.52-21.04Z"/>
          <path class="cls-8" d="m280.46,138.37c-7.31-.46-14.77-1.47-21.53-4.37,7.06,1.56,14.52,2.58,21.53,4.37h0Z"/>
          <path class="cls-8" d="m337.44,135.67c-5.33,1.7-10.79,2.73-16.37,3.08,5.32-1.7,10.79-2.73,16.37-3.08h0Z"/>
          <path class="cls-8" d="m310.52,166.32c6.78.85,9.13,4.22,9.38,8.16-2.78,3.21-6.49,5.85-12.34,7.08-11.61,2.43-16.17-2.66-22.54-9.28,3.15-5.3,10.7-7.82,25.51-5.96Z"/>
        </g>
        <path class="cls-6" d="m279.83,89.6s-7.64-20.34-23.77-31.19l.22,3.2s-17.81-16.52-31.76-23.66c0,0-9.96,21.76-11.19,36.83,0,0-1.68-5.67-2.25-9.68,0,0-.7,19.88,3.1,30.44l-4.59-3.44s10.11,18.88,16.09,25.98c5.98,7.1,5.83,9.88,17.63,5.35,11.8-4.53,36.52-33.84,36.52-33.84Z"/>
        <path class="cls-9" d="m233.48,85.06l.23-25.88,11.77,17.78-1.22-14.01s11.33,18.55,17.77,24.48c4.91,4.52-5.6,14.83-5.6,14.83l-4.83-6.24.12,12.35-10.43,1.42s-4.01,7.75-5.69,2.08c-1.68-5.67-5.4-32.16-5.4-32.16l3.29,5.36Z"/>
      </g>
    </g>
  </g>
</svg>